<svg xmlns="http://www.w3.org/2000/svg" id="eye-slash" fill="none"><path fill="#fff" d="M11.69 9.833C13.177 8.505 14 7 14 7s-2.625-4.813-7-4.813a6.15 6.15 0 0 0-2.441.515l.674.675A5.2 5.2 0 0 1 7 3.063c1.855 0 3.394 1.022 4.522 2.15.543.545 1.03 1.144 1.453 1.787-.051.076-.107.16-.171.252-.293.42-.726.98-1.282 1.536a9.57 9.57 0 0 1-.452.425l.62.62Z"/><path fill="#fff" d="M9.885 8.03A3.062 3.062 0 0 0 5.97 4.117l.72.72A2.187 2.187 0 0 1 9.166 7.31l.719.72ZM7.31 9.168l.72.72a3.062 3.062 0 0 1-3.916-3.915l.72.72A2.187 2.187 0 0 0 7.31 9.167Z"/><path fill="#fff" d="M2.931 4.787c-.157.14-.309.282-.453.427A11.492 11.492 0 0 0 1.025 7l.171.252c.293.42.726.98 1.282 1.536 1.128 1.128 2.668 2.15 4.522 2.15.627 0 1.216-.117 1.768-.315l.673.675A6.15 6.15 0 0 1 7 11.814C2.625 11.814 0 7 0 7s.822-1.506 2.31-2.833l.62.62h.001Z"/><path fill="#fff" fill-rule="evenodd" d="M11.94 12.56 1.44 2.06l.62-.62 10.5 10.5-.62.62Z" clip-rule="evenodd"/></svg>