<svg xmlns="http://www.w3.org/2000/svg" id="logo" fill="none">
  <path fill="#2F5FEB" fill-rule="evenodd" d="M37.352 1.58H1.278V0h36.074a3.686 3.686 0 1 1 0 7.373H1.278v-1.58h36.074a2.106 2.106 0 1 0 0-4.213ZM4.174 9.48h36.074V7.9H4.174a3.686 3.686 0 0 0 0 7.372h36.074v-1.58H4.174a2.106 2.106 0 1 1 0-4.213Z" clip-rule="evenodd"/>
  <path fill="#2F5FEB" d="M3.911 2.37h34.23v.527H3.912V2.37ZM37.615 10.27H3.385v.526h34.23v-.526ZM3.911 3.423h34.23v.527H3.912v-.527ZM37.615 11.323H3.385v.526h34.23v-.526ZM3.911 4.476h34.23v.527H3.912v-.527ZM37.615 12.376H3.385v.527h34.23v-.527Z"/>
</svg>
