<svg xmlns="http://www.w3.org/2000/svg" id="logo" viewBox="0 0 774 207" fill="none">
  <path fill="#1F125D" d="M3.891 148.66C1.297 147.029 0 144.442 0 140.904c0-3.535 2.586-8.915 7.766-16.136 1.5-2.31 3.914-3.465 7.25-3.465 3.343 0 7.879 1.67 13.609 5.01 5.727 3.332 10.906 4.994 15.531 4.994 8.32 0 12.485-1.631 12.485-4.901 0-2.59-4.57-4.498-13.703-5.727-8.586-1.218-17.106-4.417-25.563-9.598-3.95-2.442-7.219-6.289-9.812-11.532-2.586-5.244-3.875-11.47-3.875-18.68 0-21.513 14.785-32.273 44.359-32.273 9.676 0 19.629 2.317 29.86 6.944 4.757 2.186 7.14 4.912 7.14 8.178 0 3.27-1.5 7.284-4.5 12.047-2.992 4.769-6.055 7.148-9.188 7.148-1.636 0-4.671-1.018-9.109-3.059-4.43-2.047-9.23-3.074-14.406-3.074-8.043 0-12.063 1.498-12.063 4.495 0 4.088 4.633 6.741 13.907 7.959 8.988.959 17.71 3.542 26.171 7.755 3.946 1.916 7.25 5.224 9.907 9.926 2.656 4.694 3.984 10.577 3.984 17.65 0 7.077-1.328 13.101-3.984 18.071-2.657 4.974-6.371 8.685-11.141 11.127-8.719 4.225-19.656 6.336-32.812 6.336-13.157 0-25.797-3.812-37.922-11.439Zm222.869-44.102c0-16.343 5.723-29.822 17.172-40.434 11.445-10.62 24.531-15.934 39.25-15.934 14.727 0 27.75 5.275 39.062 15.825 11.313 10.549 16.97 23.997 16.97 40.34 0 11.299-2.934 21.342-8.798 30.12-5.855 8.782-12.976 15.246-21.36 19.397-8.386 4.152-17.077 6.227-26.077 6.227-8.992 0-17.715-2.208-26.172-6.632-8.45-4.432-15.57-10.971-21.36-19.616-5.792-8.647-8.687-18.408-8.687-29.293Zm42.734 14.607c4.364 3.332 8.79 4.994 13.282 4.994 4.5 0 9-1.701 13.5-5.103 4.5-3.402 6.75-8.435 6.75-15.106 0-6.68-2.117-11.65-6.344-14.92-4.219-3.265-8.79-4.9-13.703-4.9-4.906 0-9.477 1.7-13.703 5.104-4.22 3.401-6.328 8.407-6.328 15.012 0 6.609 2.18 11.58 6.546 14.919ZM433.45 51.873c2.594.812 4.743 2.208 6.454 4.183 1.707 1.977 2.562 5.145 2.562 9.504 0 4.35-1.297 9.114-3.89 14.294-2.594 5.174-6.344 7.757-11.25 7.757-2.45 0-4.797-.547-7.047-1.638-2.25-1.094-5.22-1.64-8.907-1.64-3.68 0-7.12 1.295-10.328 3.886-3.199 2.583-4.797 5.712-4.797 9.394v42.885c0 3.133-.105 5.486-.312 7.054-.2 1.561-.844 3.363-1.938 5.4-2.043 3.539-7.355 5.305-15.937 5.305-6.543 0-11.246-1.154-14.11-3.464-2.18-1.912-3.406-4.841-3.687-8.786V68.415c0-3.129.102-5.477.312-7.038.207-1.568.786-3.312 1.735-5.227 1.906-3.672 7.222-5.51 15.953-5.51 8.176 0 13.285 1.569 15.328 4.698 1.5 2.185 2.25 4.432 2.25 6.741.688-.956 1.676-2.11 2.969-3.464 1.289-1.362 4.05-3.2 8.281-5.509 4.227-2.317 7.941-3.48 11.14-3.48 3.196 0 5.884.171 8.063.515 2.188.336 4.57.913 7.156 1.732ZM565.342 91.59c0 8.364-2.086 14.556-6.25 18.571-4.156 4.018-8.758 6.023-13.797 6.023h-48.453c0 3.82 2.25 7.023 6.75 9.614 4.5 2.582 9 3.87 13.5 3.87 7.894 0 14.094-.815 18.594-2.45l2.25-.812c3.27-1.498 6-2.247 8.187-2.247 4.352 0 8.098 3.066 11.234 9.192 1.77 3.676 2.657 6.804 2.657 9.395 0 12.11-14.516 18.164-43.547 18.164-10.086 0-19.047-1.732-26.89-5.196-7.837-3.472-13.934-8.073-18.298-13.795-8.586-11.027-12.875-23.347-12.875-36.955 0-17.154 5.551-30.872 16.657-41.152 11.113-10.277 24.984-15.419 41.609-15.419 18.945 0 32.851 6.676 41.719 20.022 4.632 7.078 6.953 14.802 6.953 23.175Zm-43.14 6.023c5.175 0 7.765-2.177 7.765-6.539 0-3.128-1.196-5.649-3.578-7.552-2.387-1.904-5.797-2.857-10.235-2.857-4.43 0-8.824 1.808-13.187 5.416-4.356 3.601-6.531 7.444-6.531 11.532h25.766Zm64.185-79.635c0-3.13.102-5.477.312-7.039.208-1.568.786-3.378 1.735-5.43C590.34 1.838 595.657 0 604.387 0c8.312 0 13.488 1.838 15.531 5.51 1.094 2.05 1.739 3.892 1.938 5.522.207 1.636.312 4.02.312 7.148v94.54c0 4.901.406 8.002 1.219 9.301.82 1.292 2.629 1.935 5.422 1.935 2.8 0 4.676.106 5.625.312.957.2 2.117.776 3.484 1.732 2.727 1.772 4.094 6.602 4.094 14.498 0 8.576-1.367 13.811-4.094 15.715-3.543 2.454-11.996 2.863-25.36 1.233-10.491-1.362-17.304-4.838-20.437-10.425-3.824-6.667-5.734-17.283-5.734-31.85V17.978ZM761.2 51.873c8.039 3.538 12.062 7.826 12.062 12.859 0 2.458-.547 4.772-1.64 6.945-1.086 2.178-1.626 3.332-1.626 3.464l-53.578 119.665c-1.086 2.591-2 4.565-2.75 5.93-.75 1.362-1.945 2.654-3.578 3.87-1.636 1.226-3.683 1.842-6.14 1.842-2.45 0-6.059-1.022-10.829-3.058-8.042-3.539-12.062-7.757-12.062-12.657 0-3.278 6.539-18.866 19.625-46.77l-40.688-68.4c-2.73-4.495-4.093-7.835-4.093-10.019 0-4.347 3.68-8.7 11.047-13.062 4.632-2.724 8.242-4.089 10.828-4.089 2.593 0 4.707.547 6.343 1.638 1.633 1.093 2.829 2.217 3.579 3.372.75 1.155 4.492 7.487 11.234 18.991 6.75 11.498 13.191 22.22 19.328 32.164.688-2.185 4.367-10.588 11.047-25.22 6.676-14.637 10.254-22.428 10.734-23.376.477-.956 1.258-2.115 2.344-3.48 1.77-2.31 4.254-3.465 7.453-3.465 3.207 0 6.992.951 11.36 2.856Z"/>
  <mask id="a" width="114" height="183" x="107" y="14" maskUnits="userSpaceOnUse" style="mask-type:luminance">
    <path fill="#fff" d="M107.362 14.908h113.25v181.276h-113.25V14.908Z"/>
  </mask>
  <g mask="url(#a)">
    <path fill="#6F86FF" d="m179.163 196.491-1.246-5.481c-.219-.929-15.606-64.557-70.735-78.192V98.625c55.453-13.718 70.586-77.549 70.73-78.189l1.25-5.49 13.24 7.803-.212.925c-.472 2.083-8.77 36.985-35.558 63.262 26.023-19.102 37.55-49.193 41.238-60.964l8.664 5.107c-4.211 12.898-14.844 38.757-36.91 58.108 25.082-16.226 37.406-41.706 42.394-54.877l8.594 5.068c-6.82 17.595-24.172 50.992-61.469 66.344 37.297 15.348 54.653 48.747 61.469 66.343l-8.605 5.072c-5.008-13.151-17.34-38.589-42.305-54.815 22.016 19.343 32.625 45.154 36.832 58.041l-8.672 5.107c-3.7-11.75-15.23-41.752-41.113-60.858 26.695 26.261 34.969 61.073 35.441 63.152l.211.929-13.238 7.798Z"/>
  </g>
</svg>
