<svg id="map" xmlns="http://www.w3.org/2000/svg" fill="none">
  <g clip-path="url(#a)">
    <g filter="url(#b)">
      <path fill="#D9DBE1" d="M866.656 253.262a.754.754 0 0 0-.087-.581.75.75 0 0 0-.48-.337l-4.927-1.038a.92.92 0 0 0 0-.105 3.198 3.198 0 0 1 0-.634.92.92 0 0 0 0-.105.754.754 0 0 0 0-.268.92.92 0 0 0 0-.105 3.208 3.208 0 0 1 0-.635.902.902 0 0 0 0-.104 3.208 3.208 0 0 1 0-.635.902.902 0 0 0 0-.104 3.208 3.208 0 0 1 0-.635.902.902 0 0 0 0-.104 3.208 3.208 0 0 1 0-.635.902.902 0 0 0 0-.104.76.76 0 0 0 0-.269.92.92 0 0 0 0-.105 3.198 3.198 0 0 1 0-.634.92.92 0 0 0 0-.105 3.198 3.198 0 0 1 0-.634.92.92 0 0 0 0-.105 3.198 3.198 0 0 1 0-.634.92.92 0 0 0 0-.105 3.198 3.198 0 0 1 0-.634.92.92 0 0 0 0-.105.76.76 0 0 0 0-.269.902.902 0 0 0 0-.104 3.208 3.208 0 0 1 0-.635.902.902 0 0 0 0-.104 3.208 3.208 0 0 1 0-.635.902.902 0 0 0 0-.104 3.208 3.208 0 0 1 0-.635.92.92 0 0 0 0-.105.754.754 0 0 0 0-.268.744.744 0 0 0-.492-.627l-3.154-1.135a.74.74 0 0 0-.559 0l-9.251 4.136-11.026 4.89a.743.743 0 0 0-.395.418 235.5 235.5 0 0 0 0 2.658.751.751 0 0 0 0 .365.755.755 0 0 0 0 .366.755.755 0 0 0 0 .366.755.755 0 0 0 0 .366.755.755 0 0 0 0 .366.751.751 0 0 0 0 .365.755.755 0 0 0 0 .366.755.755 0 0 0 0 .366c.02.211.02.424 0 .635l-2.714.253-4.07-.552h-.097a.745.745 0 0 0-.745.747v4.673l-3.057 3.957a.731.731 0 0 0-.089.156l-2.073 4.749-9.922 2.015h-.112l-4.533 1.68-7.156-.433-.515-3.837a.74.74 0 0 0-.574-.627l-6.903-1.538H793.382l-7.365 1.829-3.101-.709h-.164a.732.732 0 0 0-.343.082l-3.854 1.993-3.482-2.486a.747.747 0 0 0-.432-.142h-.164l-1.148.269.641-4.771 1.141-9.854 8.573-5.495 2.654-1.374 4.659.672h.104a.744.744 0 0 0 .746-.746v-7.204l3.243-3.36.059-.067 2.237-2.919 5.389-.396a.74.74 0 0 0 .672-.616.738.738 0 0 0-.016-.324v-6.301a.732.732 0 0 0 0-.366.732.732 0 0 0 0-.247.693.693 0 0 0 .269-.276l2.863-5.726 2.087-2.143h3.571a.747.747 0 0 0 .745-.94.732.732 0 0 0 0-.366.732.732 0 0 0 0-.366.732.732 0 0 0 0-.366.728.728 0 0 0 0-.365.732.732 0 0 0 0-.366.732.732 0 0 0 0-.366.732.732 0 0 0 0-.366.732.732 0 0 0 0-.366.728.728 0 0 0 0-.365.732.732 0 0 0 0-.366.732.732 0 0 0 0-.366.732.732 0 0 0 0-.366.732.732 0 0 0 0-.366.732.732 0 0 0 0-.366.728.728 0 0 0 0-.365.732.732 0 0 0 0-.366.732.732 0 0 0 0-.366.732.732 0 0 0 0-.366.732.732 0 0 0 0-.366.728.728 0 0 0 0-.365.732.732 0 0 0 0-.366.732.732 0 0 0 0-.366.732.732 0 0 0 0-.366.732.732 0 0 0 0-.366.728.728 0 0 0 0-.365.732.732 0 0 0 0-.366.732.732 0 0 0 0-.366.732.732 0 0 0 0-.366.732.732 0 0 0 0-.366.732.732 0 0 0 0-.366.728.728 0 0 0 0-.365v-.068l2.423.232h.075a.743.743 0 0 0 .387-.105l3.653-2.239a.75.75 0 0 0 .358-.747v-.142a.746.746 0 0 0 0-.231v-.142a.746.746 0 0 0 0-.231v-.142a.752.752 0 0 0 0-.232v-.142a.746.746 0 0 0 0-.231v-.142a.746.746 0 0 0 0-.231v-.045l9.274-4.972 4.525 1.336a.74.74 0 0 0 .79-.246c.097-.83.142-1.665.134-2.501a.732.732 0 0 0 0-.366.732.732 0 0 0 0-.366.732.732 0 0 0 0-.366.728.728 0 0 0 0-.365.732.732 0 0 0 0-.366.732.732 0 0 0 0-.366.732.732 0 0 0 0-.366.732.732 0 0 0 0-.366.728.728 0 0 0 0-.365.732.732 0 0 0 0-.366.732.732 0 0 0 0-.366.732.732 0 0 0 0-.366.732.732 0 0 0 0-.366.732.732 0 0 0 0-.366.728.728 0 0 0 0-.365.732.732 0 0 0 0-.366.732.732 0 0 0 0-.366.732.732 0 0 0 0-.366.732.732 0 0 0 0-.366.728.728 0 0 0 0-.365.732.732 0 0 0 0-.366.732.732 0 0 0 0-.366.732.732 0 0 0 0-.366.732.732 0 0 0 0-.366.728.728 0 0 0 0-.365.732.732 0 0 0 0-.366.732.732 0 0 0 0-.366.732.732 0 0 0 0-.366.732.732 0 0 0 0-.366.728.728 0 0 0 0-.365.732.732 0 0 0 0-.366.732.732 0 0 0 0-.366.732.732 0 0 0 0-.366.732.732 0 0 0 0-.366.732.732 0 0 0 0-.366.728.728 0 0 0 0-.365.732.732 0 0 0 0-.366.732.732 0 0 0 0-.366.732.732 0 0 0 0-.366.732.732 0 0 0 0-.366.728.728 0 0 0 0-.365.732.732 0 0 0 0-.366.732.732 0 0 0 0-.366.732.732 0 0 0 0-.366.732.732 0 0 0 0-.366.728.728 0 0 0 0-.365.732.732 0 0 0 0-.366.732.732 0 0 0 0-.366.732.732 0 0 0 0-.366.732.732 0 0 0 0-.366.732.732 0 0 0 0-.366.728.728 0 0 0 0-.365.732.732 0 0 0 0-.366.732.732 0 0 0 0-.366.732.732 0 0 0 0-.366.732.732 0 0 0 0-.366.728.728 0 0 0 0-.365.732.732 0 0 0 0-.366.732.732 0 0 0 0-.366.732.732 0 0 0 0-.366.732.732 0 0 0 0-.366.732.732 0 0 0 0-.366.728.728 0 0 0 0-.365.732.732 0 0 0 0-.366.732.732 0 0 0 0-.366.732.732 0 0 0 0-.366.732.732 0 0 0 0-.366.728.728 0 0 0 0-.365.732.732 0 0 0 0-.366.732.732 0 0 0 0-.366.732.732 0 0 0 0-.366.732.732 0 0 0 0-.366.728.728 0 0 0 0-.365.732.732 0 0 0 0-.366.732.732 0 0 0 0-.366.732.732 0 0 0 0-.366.732.732 0 0 0 0-.366.732.732 0 0 0 0-.366.728.728 0 0 0 0-.365.732.732 0 0 0 0-.366.732.732 0 0 0 0-.366.732.732 0 0 0 0-.366.732.732 0 0 0 0-.366.728.728 0 0 0 0-.365.732.732 0 0 0 0-.366.732.732 0 0 0 0-.366.732.732 0 0 0 0-.366 3.815 3.815 0 0 0-.067-.911l-2.482-4.479a.743.743 0 0 0-.403-.343l-4.376-1.493v-.112a.753.753 0 0 0 0-.299v-.067c.02-.099.02-.2 0-.299v-.067c.02-.099.02-.2 0-.299v-.067c.02-.098.02-.2 0-.299v-.067c.02-.098.02-.2 0-.298v-.068c.02-.098.02-.2 0-.298v-.067c.02-.099.02-.2 0-.299v-.067c.02-.099.02-.2 0-.299v-.067c.02-.099.02-.2 0-.299v-.067c.02-.098.02-.2 0-.298v-.068c.02-.098.02-.2 0-.298v-.067a.753.753 0 0 0 0-.299v-.067a.75.75 0 0 0-.231-.68.773.773 0 0 0-.149-.089.748.748 0 0 0 .395-.366l2.169-4.532 1.491-1.358 5.361.657h.089a.754.754 0 0 0 .589-.292l3.168-4.143 6.575-2.24a.739.739 0 0 0 .395-.328l1.879-3.173c.056-.561.081-1.124.075-1.687a.755.755 0 0 0 0-.366.755.755 0 0 0 0-.366.755.755 0 0 0 0-.366.751.751 0 0 0 0-.365.755.755 0 0 0 0-.366.755.755 0 0 0 0-.366.755.755 0 0 0 0-.366.755.755 0 0 0 0-.366.751.751 0 0 0 0-.365.755.755 0 0 0 0-.366.755.755 0 0 0 0-.366.755.755 0 0 0 0-.366.755.755 0 0 0 0-.366.755.755 0 0 0 0-.366.751.751 0 0 0 0-.365.755.755 0 0 0 0-.366.755.755 0 0 0 0-.366.755.755 0 0 0 0-.366.755.755 0 0 0 0-.366.751.751 0 0 0 0-.365.755.755 0 0 0 0-.366.755.755 0 0 0 0-.366.755.755 0 0 0 0-.366.755.755 0 0 0 0-.366.751.751 0 0 0 0-.365.755.755 0 0 0 0-.366.755.755 0 0 0 0-.366.755.755 0 0 0 0-.366.755.755 0 0 0 0-.366.755.755 0 0 0 0-.366.751.751 0 0 0 0-.365.755.755 0 0 0 0-.366.755.755 0 0 0 0-.366.755.755 0 0 0 0-.366.755.755 0 0 0 0-.366.751.751 0 0 0 0-.365.755.755 0 0 0 0-.366.755.755 0 0 0 0-.366.755.755 0 0 0 0-.366.755.755 0 0 0 0-.366.751.751 0 0 0 0-.365.755.755 0 0 0 0-.366.755.755 0 0 0 0-.366.755.755 0 0 0 0-.366.755.755 0 0 0 0-.366.755.755 0 0 0 0-.366.751.751 0 0 0 0-.365.755.755 0 0 0 0-.366.755.755 0 0 0 0-.366.755.755 0 0 0 0-.366.755.755 0 0 0 0-.366.751.751 0 0 0 0-.365.755.755 0 0 0 0-.366.755.755 0 0 0 0-.366.755.755 0 0 0 0-.366.755.755 0 0 0 0-.366.751.751 0 0 0 0-.365.755.755 0 0 0 0-.366.755.755 0 0 0 0-.366.755.755 0 0 0 0-.366.755.755 0 0 0 0-.366.755.755 0 0 0 0-.366.751.751 0 0 0 0-.365.755.755 0 0 0 0-.366.755.755 0 0 0 0-.366.755.755 0 0 0 0-.366.755.755 0 0 0 0-.366.751.751 0 0 0 0-.365.755.755 0 0 0 0-.366.755.755 0 0 0 0-.366.755.755 0 0 0 0-.366.755.755 0 0 0 0-.366.751.751 0 0 0 0-.365.755.755 0 0 0 0-.366.755.755 0 0 0 0-.366.755.755 0 0 0 0-.366.755.755 0 0 0 0-.366.755.755 0 0 0 0-.366.751.751 0 0 0 0-.365.755.755 0 0 0 0-.366.755.755 0 0 0 0-.366.755.755 0 0 0 0-.366.754.754 0 0 0 0-.366.755.755 0 0 0 0-.365.755.755 0 0 0 0-.366.755.755 0 0 0 0-.366.755.755 0 0 0 0-.366.755.755 0 0 0 0-.366.755.755 0 0 0 0-.366 1.61 1.61 0 0 0-.336-1.179l-9.96-5.973-1.945-3.389a.666.666 0 0 0-.09-.127l-1.237-1.388a7.528 7.528 0 0 1 0-.672.755.755 0 0 0 0-.366.755.755 0 0 0 0-.366.755.755 0 0 0 0-.366.755.755 0 0 0 0-.365.755.755 0 0 0 0-.366.755.755 0 0 0 0-.366.755.755 0 0 0 0-.366.755.755 0 0 0 0-.366.755.755 0 0 0 0-.366.755.755 0 0 0 0-.365.755.755 0 0 0 0-.366.755.755 0 0 0 0-.366.755.755 0 0 0 0-.366.755.755 0 0 0 0-.366.755.755 0 0 0 0-.365.93.93 0 0 0 0-.784.935.935 0 0 0-.597-.508l-3.108-.523h-.127a.746.746 0 0 0-.507.194l-3.772 3.465-2.199-4.525a.75.75 0 0 0-.559-.41l-6.829-1.784-3.981-3.659a.743.743 0 0 0-.745-.149l-6.099 2.24a16.07 16.07 0 0 1 0-.695.731.731 0 0 0 0-.365.731.731 0 0 0 0-.366.731.731 0 0 0 0-.366.731.731 0 0 0 0-.366.731.731 0 0 0 0-.366.731.731 0 0 0 0-.365.731.731 0 0 0 0-.366.731.731 0 0 0 0-.366.731.731 0 0 0 0-.366.731.731 0 0 0 0-.366.731.731 0 0 0 0-.365.731.731 0 0 0 0-.366.731.731 0 0 0 0-.366.731.731 0 0 0 0-.366.731.731 0 0 0 0-.366.731.731 0 0 0 0-.365.731.731 0 0 0 0-.366.731.731 0 0 0 0-.366.731.731 0 0 0 0-.366.731.731 0 0 0 0-.366.731.731 0 0 0 0-.366.731.731 0 0 0 0-.365.731.731 0 0 0 0-.366.731.731 0 0 0 0-.366.731.731 0 0 0 0-.366.731.731 0 0 0 0-.366.731.731 0 0 0 0-.366.731.731 0 0 0 0-.365.731.731 0 0 0 0-.366.731.731 0 0 0 0-.366.731.731 0 0 0 0-.366.731.731 0 0 0 0-.366.731.731 0 0 0 0-.365.731.731 0 0 0 0-.366.731.731 0 0 0 0-.366.731.731 0 0 0 0-.366.731.731 0 0 0 0-.366.731.731 0 0 0 0-.365.731.731 0 0 0 0-.366.731.731 0 0 0 0-.366.731.731 0 0 0 0-.366.743.743 0 0 0-.357-.843l-2.058-1.105a.745.745 0 0 0-.961.231l-2.043 2.986-5.793-.224a.743.743 0 0 0-.32.075l-4.473 2.105-1.804.142a13.27 13.27 0 0 1 0-.746.755.755 0 0 0 0-.366.755.755 0 0 0 0-.366.755.755 0 0 0 0-.366.755.755 0 0 0 0-.366.755.755 0 0 0 0-.365.755.755 0 0 0 0-.366.755.755 0 0 0 0-.366.755.755 0 0 0 0-.366.755.755 0 0 0 0-.366.755.755 0 0 0 0-.366.755.755 0 0 0 0-.365.755.755 0 0 0 0-.366.755.755 0 0 0 0-.366.755.755 0 0 0 0-.366.755.755 0 0 0 0-.366.755.755 0 0 0 0-.365.755.755 0 0 0 0-.366.755.755 0 0 0 0-.366.755.755 0 0 0 0-.366 3.154 3.154 0 0 0-.09-.948l-2.422-3.733-.142-7.615a.75.75 0 0 0-.321-.597l-5.591-3.86a.741.741 0 0 0-.328-.127l-11.271-1.493-1.066-6.547a.749.749 0 0 0-1.216-.455l-4.159 3.486a.745.745 0 0 0-.261.485l-.679 5.801h-5.218a.744.744 0 0 0-.358.097l-4.875 2.732-7.791-3.979a.743.743 0 0 0-.328-.074h-.164l-5.964 1.314a.739.739 0 0 0-.469.328l-2.542 3.98-13.173-2.658h-.149a.745.745 0 0 0-.746.671l-.678 6.54-9.117.478a.747.747 0 0 0-.306.082l-3.914 2.023-7.089-1.142h-.12a.744.744 0 0 0-.439.15l-5.621 4.143-7.068 2.09-4.115-2.374a.743.743 0 0 0-.373-.097.746.746 0 0 0-.231 0l-3.526 1.165a.745.745 0 0 0-.484.896.738.738 0 0 0 0 .343.738.738 0 0 0 0 .343.738.738 0 0 0 0 .344.738.738 0 0 0 0 .343.738.738 0 0 0 0 .344.738.738 0 0 0 0 .343.738.738 0 0 0 0 .343.738.738 0 0 0 0 .344.738.738 0 0 0 0 .343.738.738 0 0 0 0 .344.738.738 0 0 0 0 .343.738.738 0 0 0 0 .344.738.738 0 0 0 0 .343.738.738 0 0 0 0 .343.738.738 0 0 0 0 .344.738.738 0 0 0 0 .343.738.738 0 0 0 0 .344.738.738 0 0 0 0 .343.738.738 0 0 0 0 .343.738.738 0 0 0 0 .344.738.738 0 0 0 0 .343.738.738 0 0 0 0 .344.738.738 0 0 0 0 .343.738.738 0 0 0 0 .344.738.738 0 0 0 0 .343.701.701 0 0 0 0 .224l-10.295-.582h-.09a.74.74 0 0 0-.268.052l-4.756 1.822-13.524-1.733-5.076-4.658a.747.747 0 0 0-.887-.097l-4.734 2.643-7.053-3.345a.74.74 0 0 0-.32-.075.745.745 0 0 0-.41.127l-5.047 3.375a.75.75 0 0 0-.328.567.736.736 0 0 0 .037.247.715.715 0 0 0-.037.12.736.736 0 0 0 .037.245.715.715 0 0 0-.037.12.736.736 0 0 0 .037.246.718.718 0 0 0-.037.12.737.737 0 0 0 .037.246.714.714 0 0 0-.037.12.737.737 0 0 0 .037.246.714.714 0 0 0-.037.12.736.736 0 0 0 .037.246.714.714 0 0 0-.037.12.736.736 0 0 0 .037.245.717.717 0 0 0-.037.12.736.736 0 0 0 .037.246.715.715 0 0 0-.037.12.736.736 0 0 0 .037.246.715.715 0 0 0-.037.12.736.736 0 0 0 .037.246.715.715 0 0 0-.037.12.736.736 0 0 0 .037.246.715.715 0 0 0-.037.12.737.737 0 0 0 .037.246.714.714 0 0 0-.037.119.737.737 0 0 0 .037.246.714.714 0 0 0-.037.12.736.736 0 0 0 .037.246.768.768 0 0 0-.037.142.736.736 0 0 0 .037.246.717.717 0 0 0-.037.12.736.736 0 0 0 .037.246.777.777 0 0 0-.037.135.737.737 0 0 0 .037.246.714.714 0 0 0-.037.12.737.737 0 0 0 .037.246.779.779 0 0 0-.037.134.736.736 0 0 0 .037.246.715.715 0 0 0-.037.12.736.736 0 0 0 .037.246.78.78 0 0 0-.037.135c-.01.069-.01.14 0 .209l-8.275 3.733a.749.749 0 0 0-.425.552l-1.312 7.45a.75.75 0 0 0 0 .3v.074a.75.75 0 0 0 0 .299v.074a.75.75 0 0 0 0 .299V81c-.02.099-.02.2 0 .3v.074a.75.75 0 0 0 0 .298v.075a.75.75 0 0 0 0 .299v.074a.75.75 0 0 0 0 .299v.075a.75.75 0 0 0 0 .298v.075c-.02.098-.02.2 0 .299v.074a.75.75 0 0 0 0 .299v.074a.75.75 0 0 0 0 .299v.075a.75.75 0 0 0 0 .298v.075c-.02.099-.02.2 0 .299v.074a.698.698 0 0 0 0 .112l-13.24-2.03h-.112a1.877 1.877 0 0 0-.745 1.672.755.755 0 0 0 0 .366.755.755 0 0 0 0 .365.755.755 0 0 0 0 .366.755.755 0 0 0 0 .366.755.755 0 0 0 0 .366.755.755 0 0 0 0 .366.755.755 0 0 0 0 .365.755.755 0 0 0 0 .366v.068l-2.11.82-13.254-2.926h-.165a.746.746 0 0 0-.365.097l-8.946 5.062a.747.747 0 0 0-.38.672v.284a.668.668 0 0 0 0 .09v.283a.67.67 0 0 0 0 .09v.283a.67.67 0 0 0 0 .09v.283a.67.67 0 0 0 0 .09v.284a.67.67 0 0 0 0 .09v.283a.668.668 0 0 0 0 .09v.283a.67.67 0 0 0 0 .09v.284a.67.67 0 0 0 0 .09v.283a.67.67 0 0 0 0 .09v.283a.668.668 0 0 0 0 .09v.283a.67.67 0 0 0 0 .09v.284a.67.67 0 0 0 0 .09v.283a.67.67 0 0 0 0 .09v.283a.67.67 0 0 0 0 .09v.283a.668.668 0 0 0 0 .09v.284a.67.67 0 0 0 0 .09v.283a.67.67 0 0 0 0 .09v.283a.67.67 0 0 0 0 .09v.284a.67.67 0 0 0 0 .09v.283a.67.67 0 0 0 0 .09v.283a.67.67 0 0 0 0 .09v.283a.67.67 0 0 0 0 .09v.284a.67.67 0 0 0 0 .09V100.127l-2.013-.358h-.126a.744.744 0 0 0-.746.679l-.082.889a.614.614 0 0 0 0-.105v-.187a.724.724 0 0 0 0-.186v-.187a.724.724 0 0 0 0-.186v-.187a.752.752 0 0 0-.066-.662.75.75 0 0 0-.567-.346l-5.905-1.038-2.236-2.03a.746.746 0 0 0-.746-.15l-6.448 2.292-10.437-5.33-4.831-6.047a.743.743 0 0 0-.41-.261l-18.48-4.435-.529-2.598a.75.75 0 0 0-.671-.56l-4.153-.53h-.097a.743.743 0 0 0-.589.291l-3.056 3.972-9.975-5.226a.74.74 0 0 0-.708 0l-6.336 3.494a.747.747 0 0 0-.239.209l-3.571 4.793-5.487 3.314-4.294-2.545a.744.744 0 0 0-.708 0l-7.224 3.523a.746.746 0 0 0-.335.321l-1.931 3.644-5.218-.284-2.237-4.599a.745.745 0 0 0-.671-.418l-9.415.38-.321-3.291a.74.74 0 0 0-.32-.545l-4.473-3.084a.745.745 0 0 0-.351-.127l-7.126-.746v-.06a.429.429 0 0 1 0-.366.429.429 0 0 1 0-.365.43.43 0 0 1 0-.366.429.429 0 0 1 0-.366.429.429 0 0 1 0-.366.429.429 0 0 1 0-.366.429.429 0 0 1 0-.366.429.429 0 0 1 0-.365.429.429 0 0 1 0-.366.429.429 0 0 1 0-.366.43.43 0 0 1 0-.366.429.429 0 0 1 0-.366.429.429 0 0 1 0-.365.429.429 0 0 1 0-.366.429.429 0 0 1 0-.366.429.429 0 0 1 0-.366.429.429 0 0 1 0-.366.429.429 0 0 1 0-.365.43.43 0 0 1 0-.366.429.429 0 0 1 0-.366.429.429 0 0 1 0-.366.429.429 0 0 1 0-.366.429.429 0 0 1 0-.366.429.429 0 0 1 0-.365.429.429 0 0 1 0-.366.429.429 0 0 1 0-.366.43.43 0 0 1 0-.366.747.747 0 0 0-.254-.582l-3.161-2.8a.743.743 0 0 0-.44-.186l-25.257-1.904-9.281-6.107a.744.744 0 0 0-.358-.12l-23.311-1.634a.747.747 0 0 0-.745.575l-1.976 8.525-6.881-2.24a.744.744 0 0 0-.522 0l-2.892 1.21a.744.744 0 0 0-.403.859l-.082-.09a.745.745 0 0 0-.842-.194l-7.612 3.18a.742.742 0 0 0-.454.65l-.507 9.526-5.696.888a.744.744 0 0 0-.596.523l-1.178 3.964-11.674-.321a.744.744 0 0 0-.358.09l-7.03 3.86a.752.752 0 0 0-.388.596.601.601 0 0 1 0 .366.601.601 0 0 1 0 .366.601.601 0 0 1 0 .366.601.601 0 0 1 0 .366.601.601 0 0 1 0 .365.601.601 0 0 1 0 .366.601.601 0 0 1 0 .366.601.601 0 0 1 0 .366.601.601 0 0 1 0 .366.601.601 0 0 1 0 .365.601.601 0 0 1 0 .366.601.601 0 0 1 0 .366.601.601 0 0 1 0 .366.601.601 0 0 1 0 .366.601.601 0 0 1 0 .366.601.601 0 0 1 0 .365.601.601 0 0 1 0 .366.601.601 0 0 1 0 .366.601.601 0 0 1 0 .366.601.601 0 0 1 0 .366.601.601 0 0 1 0 .365.601.601 0 0 1 0 .366.601.601 0 0 1 0 .366.601.601 0 0 1 0 .366.601.601 0 0 1 0 .366.601.601 0 0 1 0 .365.601.601 0 0 1 0 .366.6.6 0 0 1 0 .366.602.602 0 0 1 0 .366.602.602 0 0 1 0 .366.602.602 0 0 1 0 .366.599.599 0 0 1 0 .365.602.602 0 0 1 0 .366.602.602 0 0 1 0 .366.602.602 0 0 1 0 .366.602.602 0 0 1 0 .366.599.599 0 0 1 0 .365.602.602 0 0 1 0 .366.602.602 0 0 1 0 .366.602.602 0 0 1 0 .366.602.602 0 0 1 0 .366.602.602 0 0 1 0 .366.599.599 0 0 1 0 .365.602.602 0 0 1 0 .366.602.602 0 0 1 0 .366.602.602 0 0 1 0 .366.602.602 0 0 1 0 .366.599.599 0 0 1 0 .365.602.602 0 0 1 0 .366.602.602 0 0 1 0 .366.785.785 0 0 0 0 .097l-2.176.097a.746.746 0 0 0-.276.067l-21.329 9.832a.751.751 0 0 0-.417.844v.209a.76.76 0 0 0 0 .329v.037a.756.756 0 0 0 0 .328v.053a.756.756 0 0 0 0 .328v.037a.76.76 0 0 0 0 .329v.052a.76.76 0 0 0 0 .329v.037a.76.76 0 0 0 0 .329v.052a.756.756 0 0 0 0 .328v.038a.756.756 0 0 0 0 .328v.052a.76.76 0 0 0 0 .329v.037a.76.76 0 0 0 0 .329v.037a.756.756 0 0 0 0 .328v.038a.756.756 0 0 0 0 .328v.038a.756.756 0 0 0 0 .328v.037a.732.732 0 0 0 0 .187l-4.95-.963h-.142a.744.744 0 0 0-.343.082l-6.485 3.345a.743.743 0 0 0-.395.56.57.57 0 0 1 0 .365c.04.119.04.248 0 .366.04.119.04.247 0 .366.04.119.04.247 0 .366.04.118.04.247 0 .366a.57.57 0 0 1 0 .365c.04.119.04.248 0 .366.04.119.04.248 0 .366.04.119.04.247 0 .366.04.119.04.247 0 .366.04.118.04.247 0 .366a.57.57 0 0 1 0 .365c.04.119.04.248 0 .366.04.119.04.247 0 .366.04.119.04.247 0 .366.04.118.04.247 0 .366a.57.57 0 0 1 0 .365c.04.119.04.248 0 .366.04.119.04.247 0 .366.04.119.04.247 0 .366.04.118.04.247 0 .366a.57.57 0 0 1 0 .365c.04.119.04.248 0 .366.04.119.04.247 0 .366.04.119.04.247 0 .366.04.118.04.247 0 .366.04.118.04.247 0 .366a.57.57 0 0 1 0 .365c.04.119.04.248 0 .366.04.119.04.247 0 .366.04.119.04.247 0 .366.04.118.04.247 0 .366a.57.57 0 0 1 0 .365c.04.119.04.248 0 .366.04.119.04.247 0 .366.04.119.04.247 0 .366.04.118.04.247 0 .366a.57.57 0 0 1 0 .365c.04.119.04.248 0 .366.04.119.04.248 0 .366.04.119.04.247 0 .366.04.118.04.247 0 .366.04.118.04.247 0 .366a.57.57 0 0 1 0 .365c.04.119.04.248 0 .366.04.119.04.247 0 .366.04.119.04.247 0 .366.04.118.04.247 0 .366a.57.57 0 0 1 0 .365c.04.119.04.248 0 .366.04.119.04.247 0 .366.04.119.04.247 0 .366.04.118.04.247 0 .366a.57.57 0 0 1 0 .365c.04.119.04.248 0 .366.04.119.04.248 0 .366.04.119.04.247 0 .366.04.119.04.247 0 .366.04.118.04.247 0 .366a.57.57 0 0 1 0 .365c.04.119.04.248 0 .366.04.119.04.247 0 .366.04.119.04.247 0 .366.04.118.04.247 0 .366a.57.57 0 0 1 0 .365c.04.119.04.248 0 .366.04.119.04.247 0 .366.04.119.04.247 0 .366.04.118.04.247 0 .366a.57.57 0 0 1 0 .365c.04.119.04.248 0 .366.04.119.04.248 0 .366.04.119.04.247 0 .366.04.119.04.247 0 .366.04.118.04.247 0 .366a.57.57 0 0 1 0 .365c.04.119.04.248 0 .366.04.119.04.247 0 .366.04.119.04.247 0 .366.04.118.04.247 0 .366a.57.57 0 0 1 0 .365c.04.119.04.248 0 .366.04.119.04.247 0 .366.04.119.04.247 0 .366.04.118.04.247 0 .366a.57.57 0 0 1 0 .365c.04.119.04.248 0 .366.04.119.04.248 0 .366.04.119.04.247 0 .366.04.119.04.247 0 .366.04.118.04.247 0 .366a.57.57 0 0 1 0 .365c.04.119.04.248 0 .366.04.119.04.247 0 .366a.737.737 0 0 0 .231.649l3.936 3.644.097 2.769-4.95 2.352a.75.75 0 0 0-.403.866.747.747 0 0 0 0 .358.752.752 0 0 0 0 .359.747.747 0 0 0 0 .358.747.747 0 0 0 0 .358.752.752 0 0 0 0 .359.747.747 0 0 0 0 .358.747.747 0 0 0 0 .358.752.752 0 0 0 0 .359.747.747 0 0 0 0 .358c-.02.099-.02.2 0 .299l-3.727 1.351-4.257-1.471a.737.737 0 0 0-.686.038l-2.602 1.493a6.792 6.792 0 0 0-.335 2.299.755.755 0 0 0 0 .366.755.755 0 0 0 0 .366.755.755 0 0 0 0 .366.751.751 0 0 0 0 .365.755.755 0 0 0 0 .366.755.755 0 0 0 0 .366.755.755 0 0 0 0 .366.755.755 0 0 0 0 .366.755.755 0 0 0 0 .366.751.751 0 0 0 0 .365.755.755 0 0 0 0 .366.755.755 0 0 0 0 .366.755.755 0 0 0 0 .366.755.755 0 0 0 0 .366.751.751 0 0 0 0 .365.755.755 0 0 0 0 .366.755.755 0 0 0 0 .366.755.755 0 0 0 0 .366.755.755 0 0 0 0 .366v.059a.745.745 0 0 0-.075.321l-.626-.186a.744.744 0 0 0-.462 0l-3.139 1.112-9.922-1.456-6.419-4.352a.747.747 0 0 0-.298-.12l-7.276-1.216h-.119a.737.737 0 0 0-.306.067l-3.064 1.396a.746.746 0 0 0-.41.858.752.752 0 0 0 0 .359.747.747 0 0 0 0 .358.747.747 0 0 0 0 .358.752.752 0 0 0 0 .359.747.747 0 0 0 0 .358.747.747 0 0 0 0 .358.752.752 0 0 0 0 .359.747.747 0 0 0 0 .358.747.747 0 0 0 0 .358.752.752 0 0 0 0 .359.747.747 0 0 0 0 .358.752.752 0 0 0 0 .359.747.747 0 0 0 0 .358.747.747 0 0 0 0 .358.752.752 0 0 0 0 .359.747.747 0 0 0 0 .358.747.747 0 0 0 0 .358.752.752 0 0 0 0 .359.75.75 0 0 0 0 .291l-.887.463a.733.733 0 0 0-.372.448 835.52 835.52 0 0 0 0 2.239.732.732 0 0 0 0 .366.732.732 0 0 0 0 .366.732.732 0 0 0 0 .366.728.728 0 0 0 0 .365.732.732 0 0 0 0 .366.732.732 0 0 0 0 .366.732.732 0 0 0 0 .366.732.732 0 0 0 0 .366.732.732 0 0 0 0 .366.728.728 0 0 0 0 .365.732.732 0 0 0 0 .366.732.732 0 0 0 0 .366.732.732 0 0 0 0 .366l-1.052-.075-8.103-3.972a.743.743 0 0 0-.328-.074h-.179l-8.58 2.105a.747.747 0 0 0-.537.933.732.732 0 0 0 0 .366.732.732 0 0 0 0 .366.732.732 0 0 0 0 .366.732.732 0 0 0 0 .366.728.728 0 0 0 0 .365.732.732 0 0 0 0 .366.732.732 0 0 0 0 .366.732.732 0 0 0 0 .366l-12.107-2.023h-.119a.743.743 0 0 0-.746.933.755.755 0 0 0 0 .366.751.751 0 0 0 0 .365.755.755 0 0 0 0 .366.755.755 0 0 0 0 .366.755.755 0 0 0 0 .366.755.755 0 0 0 0 .366.751.751 0 0 0 0 .365.755.755 0 0 0 0 .366.755.755 0 0 0 0 .366.755.755 0 0 0 0 .366.755.755 0 0 0 0 .366.755.755 0 0 0 0 .366.751.751 0 0 0 0 .365.755.755 0 0 0 0 .366.755.755 0 0 0 0 .366.755.755 0 0 0 0 .366c.022.203.022.409 0 .612l-2.609 2.008-8.99-1.806h-.15a.745.745 0 0 0-.745.94.755.755 0 0 0 0 .366.755.755 0 0 0 0 .366.755.755 0 0 0 0 .366.751.751 0 0 0 0 .365.755.755 0 0 0 0 .366.755.755 0 0 0 0 .366.755.755 0 0 0 0 .366.755.755 0 0 0 0 .366.755.755 0 0 0 0 .366.751.751 0 0 0 0 .365.755.755 0 0 0 0 .366.755.755 0 0 0 0 .366.755.755 0 0 0 0 .366.755.755 0 0 0 0 .366.751.751 0 0 0 0 .365.755.755 0 0 0 0 .366.755.755 0 0 0 0 .366.755.755 0 0 0 0 .366 1.81 1.81 0 0 1 0 .53l-4.339-3.151a.743.743 0 0 0-.864 0l-2.125 1.494-7.052-.523a.747.747 0 0 0-.746.747l-.045 4.516-3.347 1.239-7.216-3.284a.75.75 0 0 0-.306-.068h-.156l-4.57.986-4.734-2.546a.75.75 0 0 0-.552-.06l-6.955 1.934a.739.739 0 0 0-.485.411.746.746 0 0 0 0 .485.755.755 0 0 0 0 .366.751.751 0 0 0 0 .365.755.755 0 0 0 0 .366.755.755 0 0 0 0 .366.755.755 0 0 0 0 .366.755.755 0 0 0 0 .366c.017.216.017.433 0 .649l-2.646 1.366-13.911.53a.75.75 0 0 0-.365.112l-7.06 4.368-6.59-.814h-.089a.735.735 0 0 0-.358.09l-7.045 3.874-10.802-1.314h-.097a.75.75 0 0 0-.388.112l-7.343 4.48-4.063.142a.742.742 0 0 0-.7.589l-1.14 5.458a.741.741 0 0 0 0 .194l-.232-.12a.74.74 0 0 0-.298-.082l-10.579-.605a.747.747 0 0 0-.566.262l-3.847 4.539-8.864-.642h-.097a.747.747 0 0 0-.745.582l-1.252 5.457-27.144 11.624a.75.75 0 0 0-.417.889.748.748 0 0 0 0 .366.744.744 0 0 0 0 .365.748.748 0 0 0 0 .366.748.748 0 0 0 0 .366.748.748 0 0 0 0 .366.748.748 0 0 0 0 .366.744.744 0 0 0 0 .365.748.748 0 0 0 0 .366.748.748 0 0 0 0 .366.748.748 0 0 0 0 .366.748.748 0 0 0 0 .366.744.744 0 0 0 0 .365.748.748 0 0 0 0 .366.748.748 0 0 0 0 .366.748.748 0 0 0 0 .366.748.748 0 0 0 0 .366.748.748 0 0 0 0 .366.744.744 0 0 0 0 .365.748.748 0 0 0 0 .366.748.748 0 0 0 0 .366.748.748 0 0 0 0 .366.748.748 0 0 0 0 .366.744.744 0 0 0 0 .365.748.748 0 0 0 0 .366.748.748 0 0 0 0 .366.748.748 0 0 0 0 .366.748.748 0 0 0 0 .366.744.744 0 0 0 0 .365.748.748 0 0 0 0 .366.748.748 0 0 0 0 .366.748.748 0 0 0 0 .366.748.748 0 0 0 0 .366.748.748 0 0 0 0 .366.744.744 0 0 0 0 .365.748.748 0 0 0 0 .366.748.748 0 0 0 0 .366.748.748 0 0 0 0 .366.748.748 0 0 0 0 .366.744.744 0 0 0 0 .365.748.748 0 0 0 0 .366.748.748 0 0 0 0 .366.748.748 0 0 0 0 .366.748.748 0 0 0 0 .366.744.744 0 0 0 0 .365.748.748 0 0 0 0 .366.748.748 0 0 0 0 .366.748.748 0 0 0 0 .366.748.748 0 0 0 0 .366.748.748 0 0 0 0 .366.744.744 0 0 0 0 .365.736.736 0 0 0 0 .105l-6.135.328a.756.756 0 0 0-.343.105l-8.491 5.218a2.06 2.06 0 0 0-.366 1.031.657.657 0 0 1 0 .365.66.66 0 0 1 0 .366.66.66 0 0 1 0 .366.66.66 0 0 1 0 .366.66.66 0 0 1 0 .366.657.657 0 0 1 0 .365.66.66 0 0 1 0 .366.66.66 0 0 1 0 .366.66.66 0 0 1 0 .366.66.66 0 0 1 0 .366.657.657 0 0 1 0 .365.66.66 0 0 1 0 .366.66.66 0 0 1 0 .366.66.66 0 0 1 0 .366.66.66 0 0 1 0 .366.66.66 0 0 1 0 .366.657.657 0 0 1 0 .365.66.66 0 0 1 0 .366.66.66 0 0 1 0 .366.66.66 0 0 1 0 .366.66.66 0 0 1 0 .366.657.657 0 0 1 0 .365.66.66 0 0 1 0 .366.66.66 0 0 1 0 .366.66.66 0 0 1 0 .366.66.66 0 0 1 0 .366.657.657 0 0 1 0 .365.66.66 0 0 1 0 .366.66.66 0 0 1 0 .366.66.66 0 0 1 0 .366.66.66 0 0 1 0 .366.66.66 0 0 1 0 .366.657.657 0 0 1 0 .365.66.66 0 0 1 0 .366.66.66 0 0 1 0 .366.66.66 0 0 1 0 .366.66.66 0 0 1 0 .366.657.657 0 0 1 0 .365.66.66 0 0 1 0 .366.66.66 0 0 1 0 .366.66.66 0 0 1 0 .366.66.66 0 0 1 0 .366.657.657 0 0 1 0 .365.66.66 0 0 1 0 .366.66.66 0 0 1 0 .366.66.66 0 0 1 0 .366.66.66 0 0 1 0 .366.66.66 0 0 1 0 .366.657.657 0 0 1 0 .365.66.66 0 0 1 0 .366.66.66 0 0 1 0 .366.66.66 0 0 1 0 .366.66.66 0 0 1 0 .366.657.657 0 0 1 0 .365.66.66 0 0 1 0 .366.66.66 0 0 1 0 .366.66.66 0 0 1 0 .366.66.66 0 0 1 0 .366.657.657 0 0 1 0 .365.66.66 0 0 1 0 .366.66.66 0 0 1 0 .366.66.66 0 0 1 0 .366.66.66 0 0 1 0 .366.66.66 0 0 1 0 .366.657.657 0 0 1 0 .365.66.66 0 0 1 0 .366.66.66 0 0 1 0 .366.66.66 0 0 1 0 .366.66.66 0 0 1 0 .366.657.657 0 0 1 0 .365.66.66 0 0 1 0 .366.66.66 0 0 1 0 .366.66.66 0 0 1 0 .366.66.66 0 0 1 0 .366.657.657 0 0 1 0 .365.66.66 0 0 1 0 .366.66.66 0 0 1 0 .366.66.66 0 0 1 0 .366.66.66 0 0 1 0 .366.66.66 0 0 1 0 .366.657.657 0 0 1 0 .365.66.66 0 0 1 0 .366.66.66 0 0 1 0 .366.66.66 0 0 1 0 .366.66.66 0 0 1 0 .366.657.657 0 0 1 0 .365.66.66 0 0 1 0 .366.66.66 0 0 1 0 .366.66.66 0 0 1 0 .366.66.66 0 0 1 0 .366.66.66 0 0 1 0 .366.657.657 0 0 1 0 .365.66.66 0 0 1 0 .366.748.748 0 0 0 .403.642l3.586 2.232a.754.754 0 0 0 .2.068l16.2 3.105 2.423 5.786a.745.745 0 0 0 .649.455l22.849 1.27 14.753 5.741a.77.77 0 0 0 .268.052l9.528-.075a.751.751 0 0 0 0 .217v.044a.75.75 0 0 0 0 .322v.044a.746.746 0 0 0 0 .321v.045a.746.746 0 0 0 0 .321v.045a.746.746 0 0 0 0 .321v.045a.746.746 0 0 0 0 .321v.045a.746.746 0 0 0 0 .321v.044a.746.746 0 0 0 0 .321v.045a.746.746 0 0 0 0 .321v.045a.746.746 0 0 0 0 .321v.045a.746.746 0 0 0 0 .321v.045a.746.746 0 0 0 0 .321v.044a.746.746 0 0 0 0 .321v.045a.746.746 0 0 0 0 .321.746.746 0 0 0 .603.59l13.732 2.374h1.32a.755.755 0 0 0 0 .314.744.744 0 0 0 0 .351.74.74 0 0 0 0 .35.744.744 0 0 0 0 .351.744.744 0 0 0 0 .351.744.744 0 0 0 0 .351.744.744 0 0 0 0 .351.744.744 0 0 0 0 .351.744.744 0 0 0 0 .351.744.744 0 0 0 0 .351.74.74 0 0 0 0 .35.744.744 0 0 0 0 .351.744.744 0 0 0 0 .351.744.744 0 0 0 0 .351.744.744 0 0 0 0 .351.744.744 0 0 0 0 .351.744.744 0 0 0 0 .351.744.744 0 0 0 0 .351.744.744 0 0 0 0 .351.74.74 0 0 0 0 .35.744.744 0 0 0 0 .351.744.744 0 0 0 0 .351.744.744 0 0 0 0 .351.744.744 0 0 0 0 .351.744.744 0 0 0 0 .351.744.744 0 0 0 0 .351.744.744 0 0 0 0 .351.74.74 0 0 0 0 .35.744.744 0 0 0 0 .351.744.744 0 0 0 0 .351.744.744 0 0 0 0 .351.744.744 0 0 0 0 .351.744.744 0 0 0 0 .351.744.744 0 0 0 0 .351.744.744 0 0 0 0 .351.744.744 0 0 0 0 .351.74.74 0 0 0 0 .35.744.744 0 0 0 0 .351.744.744 0 0 0 0 .351.744.744 0 0 0 0 .351.744.744 0 0 0 0 .351.744.744 0 0 0 0 .351.744.744 0 0 0 0 .351.737.737 0 0 0 .089.567l2.095 3.389v.09a.764.764 0 0 0 0 .224v.142a.764.764 0 0 0 0 .224v.142a.764.764 0 0 0 0 .224v.141a.764.764 0 0 0 0 .224v.142a.764.764 0 0 0 0 .224v.142a.764.764 0 0 0 0 .224v.142a.764.764 0 0 0 0 .224v.142a.764.764 0 0 0 0 .224v.142a.758.758 0 0 0 0 .223v.142a.764.764 0 0 0 0 .224v.142a.764.764 0 0 0 0 .224v.142a.764.764 0 0 0 0 .224v.142a.764.764 0 0 0 0 .224v.142a.764.764 0 0 0 0 .224v.141a.764.764 0 0 0 0 .224v.142a.764.764 0 0 0 0 .224v.142a.764.764 0 0 0 0 .224v.142a.764.764 0 0 0 0 .224v.142a.764.764 0 0 0 0 .224v.141a.764.764 0 0 0 0 .224v.142a.764.764 0 0 0 0 .224v.142a.764.764 0 0 0 0 .224v.142a.764.764 0 0 0 0 .224v.142a.764.764 0 0 0 0 .224v.142a.758.758 0 0 0 0 .223v.142a.764.764 0 0 0 0 .224v.142a.764.764 0 0 0 0 .224v.142a.764.764 0 0 0 0 .224v.142a.764.764 0 0 0 0 .224v.142a.764.764 0 0 0 0 .224v.141a.764.764 0 0 0 0 .224v.142a.764.764 0 0 0 0 .224v.142a.764.764 0 0 0 0 .224v.142a.764.764 0 0 0 0 .224v.142a.764.764 0 0 0 0 .224v.141a.764.764 0 0 0 0 .224v.142a.764.764 0 0 0 0 .224v.142a.764.764 0 0 0 0 .224v.142a.764.764 0 0 0 0 .224v.142a.764.764 0 0 0 0 .224v.142a.758.758 0 0 0 0 .223v.142c-.02.099-.02.2 0 .299l2.594 9.056.157 13.161a.755.755 0 0 0 .074.321l3.467 7.138a.738.738 0 0 0 .432.38l5.964 2.038h.172l10.69 1.023 4.383 4.927v.045a.689.689 0 0 1 0 .366.689.689 0 0 1 0 .366.689.689 0 0 1 0 .366.689.689 0 0 1 0 .366.685.685 0 0 1 0 .365.689.689 0 0 1 0 .366.689.689 0 0 1 0 .366.689.689 0 0 1 0 .366.689.689 0 0 1 0 .366.685.685 0 0 1 0 .365.689.689 0 0 1 0 .366.689.689 0 0 1 0 .366.689.689 0 0 1 0 .366.689.689 0 0 1 0 .366.685.685 0 0 1 0 .365.689.689 0 0 1 0 .366.689.689 0 0 1 0 .366.689.689 0 0 1 0 .366.689.689 0 0 1 0 .366.689.689 0 0 1 0 .366.685.685 0 0 1 0 .365.755.755 0 0 0 .336.635l4.808 4.233a.78.78 0 0 0 0 .246v.127a.787.787 0 0 0 0 .247v.126a.787.787 0 0 0 0 .247v.127a.78.78 0 0 0 0 .246v.127a.78.78 0 0 0 0 .246v.127a.787.787 0 0 0 0 .247v.127a.78.78 0 0 0 0 .246v.127a.78.78 0 0 0 0 .246v.127a.78.78 0 0 0 0 .246v.127a.787.787 0 0 0 0 .247v.127a.78.78 0 0 0 0 .246v.127a.78.78 0 0 0 0 .246v.127a.787.787 0 0 0 0 .247v.126a.787.787 0 0 0 0 .247v.127a.78.78 0 0 0 0 .246v.127a.78.78 0 0 0 0 .246v.127a.787.787 0 0 0 0 .247v.127a.78.78 0 0 0 0 .246v.127a.78.78 0 0 0 0 .246v.127a.747.747 0 0 0 .365.747l7.135 4.203a.716.716 0 0 0 0 .261v.052a.755.755 0 0 0 0 .321v.053a.755.755 0 0 0 0 .321v.052a.755.755 0 0 0 0 .321v.052a.755.755 0 0 0 0 .321v.053a.755.755 0 0 0 0 .321v.052a.755.755 0 0 0 0 .321v.052a.755.755 0 0 0 0 .321v.052a.755.755 0 0 0 0 .321v.053a.755.755 0 0 0 0 .321v.052a.755.755 0 0 0 0 .321v.052a.755.755 0 0 0 0 .321v.052a.755.755 0 0 0 0 .321v.053a.755.755 0 0 0 0 .321v.052a.755.755 0 0 0 0 .321v.052a.755.755 0 0 0 0 .321v.053a.75.75 0 0 0 .141.574l2.408 3.166a.753.753 0 0 0 .328.246l6.986 2.71a.74.74 0 0 0 .574 0l4.383-1.986 14.574 3.905c.065.008.13.008.194 0a.742.742 0 0 0 .298-.06l6.933-2.986 12.539 2.979h.179a.746.746 0 0 0 .597-.299l2.982-3.927 12.404 2.523h.15a.728.728 0 0 0 .342-.082l5.062-2.62a.75.75 0 0 0 .373-.851v-4.45a2.463 2.463 0 0 1 0-.582l17.646.045a.743.743 0 0 0 .745-.567l.693-2.77 17.147-1.546a.741.741 0 0 0 .648-.53l1.193-3.979 15.976-.164a.746.746 0 0 0 .745-.597l1.342-6.533 8.297-2.986a.742.742 0 0 0 .485-.59l.343.262a.746.746 0 0 0 .395.149l22.625 1.553a.742.742 0 0 0 .664-.403.74.74 0 0 0 .074-.306l.276.328a.748.748 0 0 0 .917.187l4.786-2.471a.747.747 0 0 0 .403-.657l.067-9.049 17.362-8.958a.747.747 0 0 0 .388-.822v-.044a.755.755 0 0 0 0-.321v-.045a.755.755 0 0 0 0-.321v-.045a.755.755 0 0 0 0-.321v-.045a.755.755 0 0 0 0-.321v-.045a.755.755 0 0 0 0-.321v-.044a.755.755 0 0 0 0-.321v-.045a.755.755 0 0 0 0-.321v-.045a.75.75 0 0 0 0-.134l11.227-4.801a.754.754 0 0 0 .417-.448c.002-1.368.002-2.737 0-4.106a.732.732 0 0 0 0-.366.728.728 0 0 0 0-.365.732.732 0 0 0 0-.366.732.732 0 0 0 0-.366.732.732 0 0 0 0-.366.732.732 0 0 0 0-.366.728.728 0 0 0 0-.365.732.732 0 0 0 0-.366.732.732 0 0 0 0-.366.732.732 0 0 0 0-.366.732.732 0 0 0 0-.366.732.732 0 0 0 0-.366.728.728 0 0 0 0-.365.732.732 0 0 0 0-.366.732.732 0 0 0 0-.366.732.732 0 0 0 0-.366.732.732 0 0 0 0-.366.728.728 0 0 0 0-.365.732.732 0 0 0 0-.366.732.732 0 0 0 0-.366.732.732 0 0 0 0-.366.732.732 0 0 0 0-.366.748.748 0 0 0 0-.283l8.126-5.062a.745.745 0 0 0 .321-.836.748.748 0 0 0 0-.067c.02-.099.02-.2 0-.299a.749.749 0 0 0 0-.067c.02-.099.02-.2 0-.299a.749.749 0 0 0 0-.067c.02-.098.02-.2 0-.299a.748.748 0 0 0 0-.067c.02-.098.02-.2 0-.298a.771.771 0 0 0 0-.068c.02-.098.02-.2 0-.298a.748.748 0 0 0 0-.067.753.753 0 0 0 0-.299.749.749 0 0 0 0-.067c.02-.099.02-.2 0-.299a.749.749 0 0 0 0-.067c.02-.099.02-.2 0-.299a.748.748 0 0 0 0-.067c.02-.098.02-.2 0-.298a.771.771 0 0 0 0-.068c.02-.098.02-.2 0-.298a.748.748 0 0 0 0-.067.753.753 0 0 0 0-.299.749.749 0 0 0 0-.067c.02-.099.02-.2 0-.299a.749.749 0 0 0 0-.067c.02-.099.02-.2 0-.299a.748.748 0 0 0 0-.067c.02-.098.02-.2 0-.298a.771.771 0 0 0 0-.068c.02-.098.02-.2 0-.298a.771.771 0 0 0 0-.068c.02-.098.02-.2 0-.298a.748.748 0 0 0 0-.067c.02-.099.02-.2 0-.299a.749.749 0 0 0 0-.067c.02-.099.02-.2 0-.299l4.517-.53a.743.743 0 0 0 .656-.746V369.463l7.828-1.612a.745.745 0 0 0 .589-.799v-.187a.765.765 0 0 0 0-.179v-.186a.774.774 0 0 0 0-.18v-.186a.765.765 0 0 0 0-.179v-.187a.765.765 0 0 0 0-.179v-.187a.766.766 0 0 0 0-.179v-.187a.765.765 0 0 0 0-.179v-.186a.774.774 0 0 0 0-.18v-.186a.765.765 0 0 0 0-.179v-.187a.765.765 0 0 0 0-.179v-.187a.902.902 0 0 0 0-.104l4.294-.747a.746.746 0 0 0 .611-.657l.403-3.845a.752.752 0 0 0 .201 0l7.209-.41a.753.753 0 0 0 .365-.12l4.219-2.755 12.517.822a.75.75 0 0 0 .313-.068l4.853-2.239 3.795 2.098a.743.743 0 0 0 .649 0l8.789-3.733 12.114 1.493h.089a.745.745 0 0 0 .701-.5l1.17-3.322 9.789-3.315 7.298 2.068h.112l.447.052h.09a.748.748 0 0 0 .671-.418l.089-.187a.745.745 0 0 0 .082.396.736.736 0 0 0 .567.388l8.751 1.053h.09a.745.745 0 0 0 .745-.747V345.126l7.157.306 5.427 3.12a.75.75 0 0 0 .194.075l6.165 1.545 3.221 4.427 2.982 4.696a.747.747 0 0 0 .626.344h.104l9.915-1.434 13.538 2.748h.149c.391-1.349.641-2.735.746-4.136l3.861-.262 1.916 1.971.082.068 6.016 4.643a.743.743 0 0 0 .351.149l5.606.747 2.326 3.516a.742.742 0 0 0 .618.336h.373a.801.801 0 0 0 0 .12v.201a.75.75 0 0 0 0 .164v.202a.75.75 0 0 0 0 .164v.202a.75.75 0 0 0 0 .164v.202a.75.75 0 0 0 0 .164v.202a.75.75 0 0 0 0 .164v.201a.759.759 0 0 0 0 .165v.201a.75.75 0 0 0 0 .164v.202a.75.75 0 0 0 0 .164v.202a.75.75 0 0 0 0 .164v.202a.75.75 0 0 0 0 .164v.201a.759.759 0 0 0 0 .165v.201a.75.75 0 0 0 0 .164v.202a.75.75 0 0 0 0 .164v.202a.75.75 0 0 0 0 .164v.202a.75.75 0 0 0 0 .164v.201a.759.759 0 0 0 0 .165v.201a.75.75 0 0 0 0 .164v.202a.75.75 0 0 0 0 .164v.202a.75.75 0 0 0 0 .164v.202a.75.75 0 0 0 0 .164v.202a.75.75 0 0 0 0 .164v.201a.759.759 0 0 0 0 .165v.201a.75.75 0 0 0 0 .164v.202a.75.75 0 0 0 0 .164v.202a.75.75 0 0 0 0 .164v.202a.75.75 0 0 0 0 .164v.201a.759.759 0 0 0 0 .165v.201a.75.75 0 0 0 0 .164v.202a.75.75 0 0 0 0 .164v.202a.75.75 0 0 0 0 .164v.202a.75.75 0 0 0 0 .164v.201a.759.759 0 0 0 0 .165v.201a.75.75 0 0 0 0 .164v.202a.75.75 0 0 0 0 .164v.202a.75.75 0 0 0 0 .164v.202a.75.75 0 0 0 0 .164v.202a.75.75 0 0 0 0 .164v.201a.759.759 0 0 0 0 .165v.201a.75.75 0 0 0 0 .164v.202a.75.75 0 0 0 0 .164v.202a.75.75 0 0 0 0 .164v.202a.75.75 0 0 0 0 .164v.201a.759.759 0 0 0 0 .165v.201a.75.75 0 0 0 0 .164v.202a.75.75 0 0 0 0 .164v.202a.75.75 0 0 0 0 .164v.202a.75.75 0 0 0 0 .164v.201a.759.759 0 0 0 0 .165v.201a.759.759 0 0 0 0 .165v.201a.75.75 0 0 0 0 .164v.202a.75.75 0 0 0 0 .164v.202a.75.75 0 0 0 0 .164v.202a.75.75 0 0 0 0 .164v.201a.759.759 0 0 0 0 .165v.201a.75.75 0 0 0 0 .164v.202a.75.75 0 0 0 0 .164v.202a.75.75 0 0 0 0 .164v.202a.75.75 0 0 0 0 .164v.201a.759.759 0 0 0 0 .165v.201a.75.75 0 0 0 0 .164v.202a.75.75 0 0 0 0 .164v.202a.75.75 0 0 0 0 .164v.202a.75.75 0 0 0 0 .164v.201a.759.759 0 0 0 0 .165v.201a.759.759 0 0 0 0 .165v.201a.75.75 0 0 0 0 .164v.202a.75.75 0 0 0 0 .164v.202a.75.75 0 0 0 0 .164v.201a.759.759 0 0 0 0 .165v.201a.759.759 0 0 0 0 .165v.201a.752.752 0 0 0 .313.65l7.455 5.285a.744.744 0 0 0 .432.135l7.813-.538.328 2.65v.068a.75.75 0 0 0 0 .134c.024.195.011.392-.037.582a.429.429 0 0 1 0 .366.429.429 0 0 1 0 .366.429.429 0 0 1 0 .366.426.426 0 0 1 0 .365.432.432 0 0 1 0 .366.429.429 0 0 1 0 .366.429.429 0 0 1 0 .366.429.429 0 0 1 0 .366.426.426 0 0 1 0 .366.425.425 0 0 1 0 .365.432.432 0 0 1 0 .366.429.429 0 0 1 0 .366.429.429 0 0 1 0 .366.426.426 0 0 1 0 .366.426.426 0 0 1 0 .365.432.432 0 0 1 0 .366.429.429 0 0 1 0 .366.429.429 0 0 1 0 .366.429.429 0 0 1 0 .366.426.426 0 0 1 0 .366.425.425 0 0 1 0 .365.429.429 0 0 1 0 .366.745.745 0 0 0 .306.575l1.304.941v.403a.755.755 0 0 0 0 .366.751.751 0 0 0 0 .365.755.755 0 0 0 0 .366.755.755 0 0 0 0 .366.755.755 0 0 0 0 .366.755.755 0 0 0 0 .366.751.751 0 0 0 0 .365.755.755 0 0 0 0 .366.755.755 0 0 0 0 .366.755.755 0 0 0 0 .366.755.755 0 0 0 0 .366.755.755 0 0 0 0 .366.751.751 0 0 0 0 .365.755.755 0 0 0 0 .366.755.755 0 0 0 0 .366.755.755 0 0 0 0 .366.755.755 0 0 0 0 .366.751.751 0 0 0 0 .365.755.755 0 0 0 0 .366.755.755 0 0 0 0 .366.755.755 0 0 0 0 .366.755.755 0 0 0 0 .366.755.755 0 0 0 0 .366.751.751 0 0 0 0 .365.755.755 0 0 0 0 .366.755.755 0 0 0 0 .366.755.755 0 0 0 0 .366.755.755 0 0 0 0 .366.751.751 0 0 0 0 .365.755.755 0 0 0 0 .366.755.755 0 0 0 0 .366.755.755 0 0 0 0 .366.755.755 0 0 0 0 .366.751.751 0 0 0 0 .365.755.755 0 0 0 0 .366.755.755 0 0 0 0 .366.755.755 0 0 0 0 .366.755.755 0 0 0 0 .366.751.751 0 0 0 0 .365.755.755 0 0 0 0 .366.755.755 0 0 0 0 .366.755.755 0 0 0 0 .366.755.755 0 0 0 0 .366.755.755 0 0 0 0 .366.751.751 0 0 0 0 .365.755.755 0 0 0 0 .366.755.755 0 0 0 0 .366.755.755 0 0 0 0 .366.755.755 0 0 0 0 .366.751.751 0 0 0 0 .365.755.755 0 0 0 0 .366.755.755 0 0 0 0 .366.755.755 0 0 0 0 .366.755.755 0 0 0 0 .366.755.755 0 0 0 0 .366.751.751 0 0 0 0 .365c-.011.274-.011.548 0 .822a.746.746 0 0 0 .626.477l5.741.523 6.045 1.971a.752.752 0 0 0 .232 0h.141l10.825-2.091h.104l8.834-3.038a.744.744 0 0 0 .477-.888v-.06a.751.751 0 0 0 0-.306v-.06a.751.751 0 0 0 0-.306v-.06a.751.751 0 0 0 0-.306v-.06a.751.751 0 0 0 0-.306v-.059a.756.756 0 0 0 0-.307v-.059a.751.751 0 0 0 0-.306v-.06a.751.751 0 0 0 0-.306v-.06a.751.751 0 0 0 0-.306v-.06a.751.751 0 0 0 0-.306v-.059a.756.756 0 0 0 0-.307v-.059a.751.751 0 0 0 0-.306v-.06a.561.561 0 0 0 0-.082l2.714.836c.071.01.144.01.216 0a.746.746 0 0 0 .701-.485l3.876-10.236 8.297-4.285 9.036-1.291 7.328 3.06a.74.74 0 0 0 .82-.171c.148-.336.209-.703.179-1.068a.755.755 0 0 0 0-.366.751.751 0 0 0 0-.365.755.755 0 0 0 0-.366.755.755 0 0 0 0-.366.755.755 0 0 0 0-.366.755.755 0 0 0 0-.366.751.751 0 0 0 0-.365.755.755 0 0 0 0-.366.755.755 0 0 0 0-.366.755.755 0 0 0 0-.366.755.755 0 0 0 0-.366.755.755 0 0 0 0-.366.751.751 0 0 0 0-.365.755.755 0 0 0 0-.366.755.755 0 0 0 0-.366.755.755 0 0 0 0-.366.755.755 0 0 0 0-.366.751.751 0 0 0 0-.365.755.755 0 0 0 0-.366.755.755 0 0 0 0-.366.755.755 0 0 0 0-.366.755.755 0 0 0 0-.366.751.751 0 0 0 0-.365.755.755 0 0 0 0-.366.755.755 0 0 0 0-.366.755.755 0 0 0 0-.366.755.755 0 0 0 0-.366.755.755 0 0 0 0-.366.751.751 0 0 0 0-.365.755.755 0 0 0 0-.366.755.755 0 0 0 0-.366.755.755 0 0 0 0-.366.755.755 0 0 0 0-.366.751.751 0 0 0 0-.365.755.755 0 0 0 0-.366.755.755 0 0 0 0-.366.755.755 0 0 0 0-.366.755.755 0 0 0 0-.366.751.751 0 0 0 0-.365.755.755 0 0 0 0-.366.755.755 0 0 0 0-.366.755.755 0 0 0 0-.366.755.755 0 0 0 0-.366.755.755 0 0 0 0-.366.751.751 0 0 0 0-.365.755.755 0 0 0 0-.366.755.755 0 0 0 0-.366.755.755 0 0 0 0-.366.755.755 0 0 0 0-.366.751.751 0 0 0 0-.365.755.755 0 0 0 0-.366.755.755 0 0 0 0-.366.755.755 0 0 0 0-.366.755.755 0 0 0 0-.366.755.755 0 0 0 0-.366.751.751 0 0 0 0-.365.755.755 0 0 0 0-.366.755.755 0 0 0 0-.366.755.755 0 0 0 0-.366.755.755 0 0 0 0-.366.751.751 0 0 0 0-.365.755.755 0 0 0 0-.366.755.755 0 0 0 0-.366.755.755 0 0 0 0-.366.755.755 0 0 0 0-.366.751.751 0 0 0 0-.365.755.755 0 0 0 0-.366.755.755 0 0 0 0-.366.755.755 0 0 0 0-.366.755.755 0 0 0 0-.366.751.751 0 0 0 0-.365.755.755 0 0 0 0-.366.755.755 0 0 0 0-.366.755.755 0 0 0 0-.366.755.755 0 0 0 0-.366.755.755 0 0 0 0-.366.751.751 0 0 0 0-.365.755.755 0 0 0 0-.366.755.755 0 0 0 0-.366.755.755 0 0 0 0-.366.755.755 0 0 0 0-.366.751.751 0 0 0 0-.365.755.755 0 0 0 0-.366.755.755 0 0 0 0-.366.755.755 0 0 0 0-.366.755.755 0 0 0 0-.366.751.751 0 0 0 0-.365.755.755 0 0 0 0-.366.755.755 0 0 0 0-.366.755.755 0 0 0 0-.366.755.755 0 0 0 0-.366 5.96 5.96 0 0 0 0-.866l-1.424-3.105a.745.745 0 0 0-.358-.366l-5.964-2.83a.736.736 0 0 0-.32-.067l-1.35.105a.7.7 0 0 0 0-.194.732.732 0 0 0 0-.366.732.732 0 0 0 0-.366.732.732 0 0 0 0-.366.732.732 0 0 0 0-.366.732.732 0 0 0 0-.366.728.728 0 0 0 0-.365.732.732 0 0 0 0-.366.732.732 0 0 0 0-.366.732.732 0 0 0 0-.366.732.732 0 0 0 0-.366.728.728 0 0 0 0-.365.732.732 0 0 0 0-.366.732.732 0 0 0 0-.366.732.732 0 0 0 0-.366.732.732 0 0 0 0-.366.728.728 0 0 0 0-.365.732.732 0 0 0 0-.366.732.732 0 0 0 0-.366.732.732 0 0 0 0-.366.732.732 0 0 0 0-.366.732.732 0 0 0 0-.366.728.728 0 0 0 0-.365.732.732 0 0 0 0-.366.732.732 0 0 0 0-.366.732.732 0 0 0 0-.366.732.732 0 0 0 0-.366.728.728 0 0 0 0-.365.732.732 0 0 0 0-.366.732.732 0 0 0 0-.366.732.732 0 0 0 0-.366.732.732 0 0 0 0-.366.728.728 0 0 0 0-.365.732.732 0 0 0 0-.366.732.732 0 0 0 0-.366.732.732 0 0 0 0-.366.732.732 0 0 0 0-.366.732.732 0 0 0 0-.366.728.728 0 0 0 0-.365.732.732 0 0 0 0-.366.732.732 0 0 0 0-.366.732.732 0 0 0 0-.366.732.732 0 0 0 0-.366.728.728 0 0 0 0-.365.732.732 0 0 0 0-.366.732.732 0 0 0 0-.366.732.732 0 0 0 0-.366.732.732 0 0 0 0-.366.728.728 0 0 0 0-.365.732.732 0 0 0 0-.366.732.732 0 0 0 0-.366.732.732 0 0 0 0-.366.732.732 0 0 0 0-.366.732.732 0 0 0 0-.366.728.728 0 0 0 0-.365l-1.118-4.345a.75.75 0 0 0 0-.291v-.404a.751.751 0 0 0 0-.306v-.067a.751.751 0 0 0 0-.306v-.067a.751.751 0 0 0 0-.306v-.067a.756.756 0 0 0 0-.307v-.067a.711.711 0 0 0 0-.216l1.163-.605 4.473-.231a.749.749 0 0 0 .701-.642l.872-6.07a.76.76 0 0 0 0-.269v-.104a.76.76 0 0 0 0-.269v-.104a.76.76 0 0 0 0-.269v-.105a.76.76 0 0 0 0-.269v-.104a.76.76 0 0 0 0-.269v-.104a.76.76 0 0 0 0-.269v-.105a.698.698 0 0 0 0-.112l1.297-.141 2.318 1.866 2.796 2.09a.74.74 0 0 0 .917 0l1.088-.888a.749.749 0 0 0 .269-.657v-.134a.752.752 0 0 0 0-.232v-.134a.752.752 0 0 0 0-.232v-.134a.746.746 0 0 0 0-.231v-.135a.746.746 0 0 0 0-.231v-.135a.746.746 0 0 0 0-.231l1.737-.269c.009.231.009.463 0 .694a.732.732 0 0 0 0 .366.732.732 0 0 0 0 .366.732.732 0 0 0 0 .366.732.732 0 0 0 0 .366.728.728 0 0 0 0 .365.732.732 0 0 0 0 .366.732.732 0 0 0 0 .366.732.732 0 0 0 0 .366.732.732 0 0 0 0 .366.732.732 0 0 0 0 .366.728.728 0 0 0 0 .365.732.732 0 0 0 0 .366 8.187 8.187 0 0 0 0 .829.743.743 0 0 0 .633.47l8.201.665h.015a.752.752 0 0 0 .626-.344l2.46-3.83 6.404-1.157a.752.752 0 0 0 0 .232v.142a.746.746 0 0 0 0 .231v.142a.746.746 0 0 0 0 .231v.142a.746.746 0 0 0 0 .231v.142a.752.752 0 0 0 0 .232v.142a.746.746 0 0 0 0 .231v.142a.746.746 0 0 0 0 .231v.142a.752.752 0 0 0 0 .232v.141a.752.752 0 0 0 0 .232v.142a.746.746 0 0 0 0 .231v.142a.746.746 0 0 0 0 .231v.142a.752.752 0 0 0 0 .232v.142a.746.746 0 0 0 0 .231v.142a.746.746 0 0 0 0 .231v.142a.752.752 0 0 0 0 .232v.141a.752.752 0 0 0 0 .232v.142a.746.746 0 0 0 0 .231v.142a.75.75 0 0 0 .529.799l2.236.672c.072.01.145.01.217 0a.74.74 0 0 0 .275-.053l5.659-2.239.134-.067 4.682-3.114 6.821.53a.736.736 0 0 0 .402-.119l2.766-1.754 7.328 1.694h.164a.742.742 0 0 0 .388-.112l4.95-3.038a.776.776 0 0 0 .194-.172l3.712-4.584 6.314-2.747h.068l6.627-3.733a.748.748 0 0 0 .365-.746v-.075c.02-.099.02-.2 0-.299v-.074c.02-.099.02-.2 0-.299v-.075c.02-.098.02-.2 0-.298v-.075c.02-.098.02-.2 0-.299v-.074a.753.753 0 0 0 0-.276l2.729.455h.126a.75.75 0 0 0 .702-.492.745.745 0 0 0 .044-.299v-.269a.92.92 0 0 0 0-.105v-.268a.92.92 0 0 0 0-.105v-.269a.902.902 0 0 0 0-.104v-.269a.902.902 0 0 0 0-.104v-.269a.92.92 0 0 0 0-.105v-.268a.92.92 0 0 0 0-.105v-.269a.902.902 0 0 0 0-.104v-.269a.92.92 0 0 0 0-.105v-.268a.92.92 0 0 0 0-.105v-.269a.902.902 0 0 0 0-.104v-.142l5.569 2.284a.74.74 0 0 0 .566 0l3.146-1.276-.186.791a.733.733 0 0 0 0 .336.733.733 0 0 0 0 .336.733.733 0 0 0 0 .336.733.733 0 0 0 0 .336.733.733 0 0 0 0 .336.733.733 0 0 0 0 .336.733.733 0 0 0 0 .336.733.733 0 0 0 0 .336.733.733 0 0 0 0 .336.733.733 0 0 0 0 .336.733.733 0 0 0 0 .336.733.733 0 0 0 0 .336.733.733 0 0 0 0 .336.733.733 0 0 0 0 .336.73.73 0 0 0 0 .335.733.733 0 0 0 0 .336.733.733 0 0 0 0 .336.733.733 0 0 0 0 .336.733.733 0 0 0 0 .336.733.733 0 0 0 0 .336.733.733 0 0 0 0 .336.733.733 0 0 0 0 .336.733.733 0 0 0 0 .336.733.733 0 0 0 0 .336.733.733 0 0 0 0 .336.733.733 0 0 0 0 .336.733.733 0 0 0 0 .336.733.733 0 0 0 0 .336.733.733 0 0 0 0 .336.733.733 0 0 0 0 .336.733.733 0 0 0 0 .336.733.733 0 0 0 0 .336.733.733 0 0 0 0 .336.733.733 0 0 0 0 .336.73.73 0 0 0 0 .335.733.733 0 0 0 0 .336.733.733 0 0 0 0 .336.733.733 0 0 0 0 .336.733.733 0 0 0 0 .336.733.733 0 0 0 0 .336.733.733 0 0 0 0 .336.733.733 0 0 0 0 .336.733.733 0 0 0 0 .336.733.733 0 0 0 0 .336.733.733 0 0 0 0 .336.733.733 0 0 0 0 .336.733.733 0 0 0 0 .336.733.733 0 0 0 0 .336.733.733 0 0 0 0 .336.733.733 0 0 0 0 .336.733.733 0 0 0 0 .336.733.733 0 0 0 0 .336.733.733 0 0 0 0 .336.733.733 0 0 0 0 .336.733.733 0 0 0 0 .336.73.73 0 0 0 0 .335.733.733 0 0 0 0 .336.733.733 0 0 0 0 .336.733.733 0 0 0 0 .336.733.733 0 0 0 0 .336.733.733 0 0 0 0 .336.733.733 0 0 0 0 .336.733.733 0 0 0 0 .336.733.733 0 0 0 0 .336.733.733 0 0 0 0 .336.733.733 0 0 0 0 .336.733.733 0 0 0 0 .336.733.733 0 0 0 0 .336.733.733 0 0 0 0 .336.733.733 0 0 0 0 .336.733.733 0 0 0 0 .336.733.733 0 0 0 0 .336.733.733 0 0 0 0 .336.733.733 0 0 0 0 .336.73.73 0 0 0 0 .335.733.733 0 0 0 0 .336.733.733 0 0 0 0 .336.733.733 0 0 0 0 .336.733.733 0 0 0 0 .336.733.733 0 0 0 0 .336.733.733 0 0 0 0 .336.733.733 0 0 0 0 .336.733.733 0 0 0 0 .336.733.733 0 0 0 0 .336.733.733 0 0 0 0 .336.733.733 0 0 0 0 .336.733.733 0 0 0 0 .336.733.733 0 0 0 0 .336.733.733 0 0 0 0 .336.733.733 0 0 0 0 .336.733.733 0 0 0 0 .336.733.733 0 0 0 0 .336.733.733 0 0 0 0 .336.733.733 0 0 0 0 .336.746.746 0 0 0 .432.858l4.518 1.919a.746.746 0 0 0 .291.059.663.663 0 0 0 .178 0l5.025-1.261a.749.749 0 0 0 .388-.239l1.319-1.56a.757.757 0 0 0 .172-.374l.35-2.396 6.277-3.412 17.519-.224a.743.743 0 0 0 .313-.075l3.869-1.851a.747.747 0 0 0 .157-.097l2.05-1.695 12.136-.978 8.514 3.248.626.619a.674.674 0 0 0 0 .127v3.703a.732.732 0 0 0 0 .366.743.743 0 0 0 .253.747l1.61 1.276.112.075 3.087 1.665a.7.7 0 0 0 0 .194v3.098a.731.731 0 0 0 0 .329v.037a.727.727 0 0 0 0 .328v.053a.727.727 0 0 0 0 .328v.037a.731.731 0 0 0 0 .329v.052a.731.731 0 0 0 0 .329v.037a.727.727 0 0 0 0 .328v.053a.727.727 0 0 0 0 .328v.038a.727.727 0 0 0 0 .328v.052a.731.731 0 0 0 0 .329v.037a.746.746 0 0 0 0 .381l.663 2.165a.75.75 0 0 0 .671.53l4.078.224a.765.765 0 0 0 .268-.052l6.076-2.367 5.218.702h.097c.065.008.13.008.194 0l6.978-1.904a.747.747 0 0 0 .499-.455c.005-.518.005-1.036 0-1.553a.732.732 0 0 0 0-.209l2.49.157a.747.747 0 0 0 .5-.195l3.414-3.068a.755.755 0 0 0 .209-.328l1.752-5.398a1.35 1.35 0 0 0 0-.09l.745-3.986a.751.751 0 0 0 0-.306v-.067a.751.751 0 0 0 0-.306v-.068a.751.751 0 0 0 0-.306v-.067a.751.751 0 0 0 0-.306v-.067a.751.751 0 0 0 0-.306v-.068a.751.751 0 0 0 0-.306v-.067a.751.751 0 0 0 0-.306v-.067a.751.751 0 0 0 0-.306v-.067a.751.751 0 0 0 0-.306v-.068a.751.751 0 0 0 0-.306v-.067a.751.751 0 0 0 0-.306v-.067a.751.751 0 0 0 0-.306v-.068a.751.751 0 0 0 0-.306v-.067a.751.751 0 0 0 0-.306v-.067a.751.751 0 0 0 0-.306v-.067a.751.751 0 0 0 0-.306v-.068a.751.751 0 0 0 0-.306v-.067a.751.751 0 0 0 0-.306v-.067a.751.751 0 0 0 0-.306v-.067a.751.751 0 0 0 0-.306v-.068a.751.751 0 0 0 0-.306v-.067a.751.751 0 0 0 0-.306v-.067a.751.751 0 0 0 0-.306v-.068a.751.751 0 0 0 0-.306v-.067a.751.751 0 0 0 0-.306v-.067a.751.751 0 0 0 0-.306v-.067a.751.751 0 0 0 0-.306v-.068a.751.751 0 0 0 0-.306v-.067a.75.75 0 0 0 0-.291l3.236-4.367 4.905-2.24a.741.741 0 0 0 .307-.264.737.737 0 0 0 .125-.386l.105-2.463 6.657-.202a.749.749 0 0 0 .745-.657l.194-1.59a.787.787 0 0 0 0-.194v-.172a.787.787 0 0 0 0-.194v-.172a.787.787 0 0 0 0-.194v-.171a.795.795 0 0 0 0-.195v-.171a.787.787 0 0 0 0-.194v-.172a.787.787 0 0 0 0-.194v-.172a.787.787 0 0 0 0-.194v-.172a.787.787 0 0 0 0-.194v-.171a.795.795 0 0 0 0-.195v-.171a.787.787 0 0 0 0-.194v-.172a.787.787 0 0 0 0-.194v-.172a.787.787 0 0 0 0-.194v-.172a.787.787 0 0 0 0-.194v-.172a.787.787 0 0 0 0-.194v-.171a.787.787 0 0 0 0-.194v-.172a.787.787 0 0 0 0-.194v-.172a.787.787 0 0 0 0-.194v-.172a.787.787 0 0 0 0-.194v-.172a.787.787 0 0 0 0-.194v-.171a.795.795 0 0 0 0-.195v-.171a.787.787 0 0 0 0-.194v-.105l1.215-.896a.738.738 0 0 0 .264-.36.738.738 0 0 0 .012-.446v-.067a.751.751 0 0 0 0-.306v-.067a.756.756 0 0 0 0-.307v-.067a.751.751 0 0 0 0-.306v-.067a.751.751 0 0 0 0-.306v-.067a.751.751 0 0 0 0-.306v-.068a.751.751 0 0 0 0-.306v-.067a.751.751 0 0 0 0-.306v-.067a.751.751 0 0 0 0-.306v-.067a.751.751 0 0 0 0-.306v-.068a.751.751 0 0 0 0-.306v-.067a.751.751 0 0 0 0-.306v-.067a.751.751 0 0 0 0-.306v-.068a.751.751 0 0 0 0-.306v-.067a.751.751 0 0 0 0-.306v-.067a.751.751 0 0 0 0-.306v-.067a.751.751 0 0 0 0-.306v-.068a.751.751 0 0 0 0-.306v-.067a.751.751 0 0 0 0-.306v-.067a.751.751 0 0 0 0-.306v-.067a.756.756 0 0 0 0-.307v-.067a.751.751 0 0 0 0-.306v-.067a.751.751 0 0 0 0-.306v-.067a.751.751 0 0 0 0-.306v-.06l2.184-1.322 12.278.277a.747.747 0 0 0 .373-.097l5.107-2.942a.748.748 0 0 0 .365-.746v-.112a.722.722 0 0 0 0-.254v-.112a.722.722 0 0 0 0-.254v-.112a.722.722 0 0 0 0-.254v-.112a.722.722 0 0 0 0-.254v-.112a.717.717 0 0 0 0-.253v-.112a.722.722 0 0 0 0-.254v-.112a.722.722 0 0 0 0-.254v-.112a.722.722 0 0 0 0-.254v-.082l7.03-1.448a.745.745 0 0 0 .499-.374l2.006-3.65 2.348-2.315c.141-1.091.208-2.191.201-3.292a.732.732 0 0 0 0-.366.728.728 0 0 0 0-.365.732.732 0 0 0 0-.366.732.732 0 0 0 0-.366.732.732 0 0 0 0-.366.732.732 0 0 0 0-.366.732.732 0 0 0 0-.366.728.728 0 0 0 0-.365.732.732 0 0 0 0-.366.732.732 0 0 0 0-.366.732.732 0 0 0 0-.366.732.732 0 0 0 0-.366.728.728 0 0 0 0-.365.732.732 0 0 0 0-.366.732.732 0 0 0 0-.366.732.732 0 0 0 0-.366.732.732 0 0 0 0-.366.728.728 0 0 0 0-.365.732.732 0 0 0 0-.366.732.732 0 0 0 0-.366.732.732 0 0 0 0-.366.732.732 0 0 0 0-.366.732.732 0 0 0 0-.366.728.728 0 0 0 0-.365.732.732 0 0 0 0-.366.732.732 0 0 0 0-.366.732.732 0 0 0 0-.366.732.732 0 0 0 0-.366.728.728 0 0 0 0-.365.732.732 0 0 0 0-.366.732.732 0 0 0 0-.366.732.732 0 0 0 0-.366.732.732 0 0 0 0-.366.728.728 0 0 0 0-.365.732.732 0 0 0 0-.366.732.732 0 0 0 0-.366.732.732 0 0 0 0-.366.732.732 0 0 0 0-.366.732.732 0 0 0 0-.366.728.728 0 0 0 0-.365.732.732 0 0 0 0-.366.732.732 0 0 0 0-.366.732.732 0 0 0 0-.366.732.732 0 0 0 0-.366.728.728 0 0 0 0-.365.732.732 0 0 0 0-.366.732.732 0 0 0 0-.366.732.732 0 0 0 0-.366.732.732 0 0 0 0-.366.732.732 0 0 0 0-.366.728.728 0 0 0 0-.365.732.732 0 0 0 0-.366.732.732 0 0 0 0-.366.732.732 0 0 0 0-.366.732.732 0 0 0 0-.366.728.728 0 0 0 0-.365.732.732 0 0 0 0-.366.732.732 0 0 0 0-.366.732.732 0 0 0 0-.366.732.732 0 0 0 0-.366.728.728 0 0 0 0-.365.732.732 0 0 0 0-.366.732.732 0 0 0 0-.366.732.732 0 0 0 0-.366.732.732 0 0 0 0-.366.732.732 0 0 0 0-.366.728.728 0 0 0 0-.365.732.732 0 0 0 0-.366.732.732 0 0 0 0-.366.732.732 0 0 0 0-.366.732.732 0 0 0 0-.366.728.728 0 0 0 0-.365.732.732 0 0 0 0-.366.732.732 0 0 0 0-.366.732.732 0 0 0 0-.366.732.732 0 0 0 0-.366.728.728 0 0 0 0-.365.732.732 0 0 0 0-.366.732.732 0 0 0 0-.366.732.732 0 0 0 0-.366.732.732 0 0 0 0-.366.732.732 0 0 0 0-.366.728.728 0 0 0 0-.365.732.732 0 0 0 0-.366.732.732 0 0 0 0-.366.746.746 0 0 0 .045-.612Zm-45.132-104.809a2.632 2.632 0 0 1 0-.575 1.71 1.71 0 0 1 0-.515c.06.007.12.007.179 0l3.989-.067-4.168 1.157Z"/>
    </g>
    <path fill="#fff" d="m720.451 281.094 6.59 1.709 2.401 1.083 5.65-1.628 1.178 3.86-3.981 1.403 1.864 2.076-6.195 2.493-.156 5.308-4.503 2.33-5.651 7.532.321 1.62 2.877 2.121-5.255 3.934-1.491 6.316 4.517 1.918 5.025-1.261 1.319-1.561.403-2.762 6.769-3.68 17.705-.224 3.869-1.852 2.229-1.844 12.539-1.015 8.827 3.367 2.78 2.77-1.841 2.866 1.618 1.277 4.286 2.307-.812 3.725.663 2.165 4.033.224 6.255-2.434 5.39.725 6.977-1.904-1.535-2.389 4.756.298 3.414-3.068 1.752-5.397.761-3.987-2.684-7.16 6.157-8.301 5.085-2.315.126-3.158 7.351-.223.194-1.591-2.684-2.59 1.543-2.322-.216-2.075 2.863-2.113-2.9-3.74 1.528-4.614 4.093-2.471 12.479.276 5.107-2.941-.485-3.651 8.096-1.665 2.057-3.74 2.423-2.397-7.253-1.53-2.908-4.927.075-2.778 4.57-2.822-3.154-1.134-9.251 4.136-11.026 4.89 2.937 6.383-6.403.604-4.16-.567.037 4.897-3.243 4.196-2.229 5.106-10.302 2.098-4.682 1.732-7.924-.485-.589-4.449-6.904-1.538-7.536 1.874-3.28-.747-4.257 2.202-3.854-2.754-5.681 1.313-5.174-.373-4.376 1.389-4.592-1.381-6.389 2.381 2.028 4.629-4.257.358-4.45-2.687-2.833.186.41 3.628-11.935-.097-6.486-.216-.41 4.853ZM123.929 309.589l1.402-3.367 13.657-.014 2.751 4.233 4.301.963 2.751-2.569 11.742.904 4.644-4.114 8.141-2.448 1.013-1.576-2.489-1.329-4.28.396-1.058-2.165-3.541-2.456 5.121-3.121-4.137-2.075 3.086-1.127-2.81-1.24.999-2.351 6.306-4.39 12.882-2.621-1.423-1.896-6.687-2.986 1.751-2.493-.417-2.748-5.83-3.008 2.311-3.211-5.263-1.694-4.309 2.105-6.135-1.941 2.311-4.031-1.789-1.844-10.191 1.104-10.556-2.68-8.953 4.636-8.73-4.449-4.875-.971 1.088-2.583-4.428-2.165-5.584-.022-4.421-1.866-2.132-6.391-4.07-2.12-10.534-.605-4.1 4.845-9.244-1.209-1.334 5.823-27.501 11.781 1.446 4.636 7.075 3.255-1.491 11.213-13.866.747-8.462 5.046 3.623 1.882 16.528 3.202 2.602 6.137 22.968 1.277 14.865 5.77 19.427-.156-9.162 5.696 13.74 2.374 11.271.007ZM343.504 301.049l.634-3.278 8.17-.343 1.774-2.471-3.831-2.486-9.14-3.77-10.929-2.076-1.215-2.269-3.213-3.001-2.147-1.665-4.376-.665-.06-3.187-8.945.38-11.645-.455-6.791-5.435 2.132-2.12-6.046-3.8-7.515-2.516-.596 2.396-9.744-.134-15.148-.911-.969-3.859-8.946-2.121-1.953 1.307-2.825 2.03-1.208 3.644-4.167 1.687.783 6.413 1.52 6.189-.827 3.397-3.444 1.776 2.005 4.256-3.496 1.329 3.899.97 3.556 3.18 2.311 3.688 5.33 3.263 8.744 2.359 10.452 4.778.5 5.159 9.542 2.657 8.968 3.591 2.087 3.718 8.223 2.643 4.354 3.807 7.462 4.248 5.121 1.232 7.097 4.569 13.829 1.613 4.197-1.956 6.434 1.918.611-.769-6.061-3.494 2.915-1.358 3.221.455-2.796-2.837 4.436-1.903 5.665 1.306-.79-2.979 2.863-.896 2.646.829 2.639-1.538-.507-2.195 5.346-.261-1.208-3.053-3.273-5.883-15.745-8.071-2.005-4.942 2.095-2.09Z"/>
    <path fill="#fff" d="m207.155 219.577-4.63.097 5.852 3.091-.551 3.091 5.196 1.851 2.475 4.644 4.637 3.322-2.214 5.271 5.814 3.337 5.04.784 2.08 2.448 8.126 1.508 2.288 4.204 3.907 3.128 10.295 2.441.909 3.636 13.59.821 8.298.119.73-2.949 9.923 3.323 7.015 4.419-2.192 2.188 5.695 4.561 10.646.426 9.333-.396 2.408-2.755 6.553-3.27 3.936-3.77 5.658-.873-.052-3.785 7.925-1.628 3.899-2.546-.045-4.054 4.451-3.09 9.05 3.979 4.256 3.606 6.956 1.037 7.827-4.038 2.431-5.07 3.727-1.746-5.434-1.113-5.636-3.277 4.927-6.092-.343-4.606-5.643-.381-4.786-1.777-.947-3.516-7.805-3.703-5.979-1.202-6.336-2.531-7.634 2.24-4.659-6.174-6.799-2.046-.052-4.793-5.539-2.545-5.144.709-2.147-3.076-10.027-.993.127-3.464-5.852-3.143-11.794 1.538-5.762-2.979-.492-5.457-5.129-1.546-3.31 1.173-10.273-1.501-6.56-4.45-7.276-1.216-3.064 1.403 4.167 5.435-5.442 2.815 1.961 3.464 7.626 4.86-11.555-.851-8.238-4.032-8.58 2.105 1.289 4.256-14.231-2.374 2.065 5.48-5.226 4.023-9.326-1.866 6.732 5.726-1.2 3.18-4.063-.082 2.147 5.017ZM250.773 352.21l4.511-2.224 3.451.537 4.503-.582 6.463 1.411 6.456-3.651 11.704-.739 7.231 2.68 5.562-1.164 9.564-.284 1.782-3.755 5.159-.351 7.648 1.202 7.381-2.367.074-1.381-14.119-1.65-7.217-4.643-5.084-1.217-7.812-4.45-4.235-3.695-8.446-2.71-2.11-3.77-8.386-3.345-10.325-2.882-.515-5.293-9.699-4.427-8.878-2.389-5.823-3.561-2.37-3.77-3.146-2.822-6.128-1.523-4.309-2.523-6.881 2.829-2.564 2.755-.216 5.435-7.582 3.434-4.152 1.508.805 2.389 7.693 4.801 4.727 3.688-2.237 4.8-6.158 2.852.589 2.18 6.911 2.463-4.227 2.912 2.319 4.166-3.653 3.576 1.401 3.008 5.763-.074 7.559 2.799 8.618 2.494 2.385 2.613 2.796 1.62 4.525-2.337 3.556.873-.924 3.397 6.06 1.157Z"/>
    <path fill="#fff" d="m107.164 247.297 5.666.022 5.919 2.897-.954 2.269 3.578.717 7.671 3.912 8.588-4.442 11.13 2.822 11.041-1.194 2.832 2.941-2.094 3.658 3.6 1.142 4.302-2.105 7.88 2.523-2.438 3.39 5.464 2.822.5 3.307-1.454 2.061 6.053 2.702 2.192 2.942-13.896 2.829-5.859 4.076-.701 1.635 3.69 1.628-3.213 1.172 3.817 1.918-5.286 3.218 2.93 2.031.701 1.441 3.496-.322 4.026 2.143-1.342 2.061 1.908 2.18 1.588.156 1.133-2.493 4.839.709 1.52 2.105 5.562 3.076 7.82 1.165 5.859-2.524-3.772-2.351-1.073-3.151 4.883-1.769 7.022-3.188.209-5.263 2.855-3.083 8.387-3.435 5.196 3.046.559.142 3.422-1.299-1.968-4.165 3.697-1.912.731-3.016-1.506-6.107-.85-6.89 4.346-1.762 1.171-3.516 3.056-2.203 1.976-1.321-3.892-3.113-2.08-3.823-7.961-1.478-2.065-2.419-4.675-.724-6.91-3.957 2.236-5.345-4.331-3.098-2.378-4.442-5.584-1.994.582-3.225-8.014-4.233 6.478-.134-1.901-4.435-5.047-3.673-2.341 1.62-7.268-.545-.045 5.04-4.123 1.523-7.492-3.412-4.838 1.045-4.98-2.68-6.948 1.934 1.372 2.799-4.547 2.359-14.083.53-7.283 4.509-6.851-.851-7.253 3.994-11.049-1.343-7.507 4.606-4.256.149-1.148 5.458 4.487 2.344 2.103 6.316 3.183 1.351Z"/>
    <path fill="#fff" d="m166.489 388.463 7.589 1.628 7.425-2.554 11.16.934 5.941-2.009 8.133.015-4.711-3.68-7.984-3.942-.634-3.785-2.833-5.271 5.189-1.403 3.422-3.606 7.387-3.487 4.54-3.665 5.211-2.18-.782-1.448-5.234.769-5.218-2.083-4.033-3.77-5.412-3.569 2.937-3.143 6.65-2.486 3.503-.045-1.491-3.195 3.631-3.561-2.363-4.241 3.668-2.53-6.076-2.165-.82-3.017 6.418-2.963 1.954-4.211-4.242-3.307-3.049-1.896-6.456 2.784-9.214-1.373-6.188-3.42-1.312-1.806-2.229-.329-1.103 2.419-4.115-.411-2.05-2.321-7.164 2.165-4.98 4.397-11.712-.903-2.907 2.732-6.598-1.471-2.572-3.957-10.943.015-1.402 3.36h-10.526l7.976 3.524 2.207 6.024-10.504 6.324 3.772 6.107-1.587 12.997 2.624 9.145.156 13.267 3.459 7.137 5.979 2.038 10.981 1.053 5.71 6.427 10.974.217 9.848 3.725ZM561.059 258.794l10.057-.239 4.189 4.203 6.993-3.994 6.046.515.03-4.8 6.851-2.255 6.888-1.822 2.855-3.665-4.115-3.016-3.884-4.062 4.898-1 .626-5.293 4.95-1.232 1.551-10.743 1.856-6.196-15.275-6.51 4.846-11.34-9.043 1.261-6.031-.993 2.095-2.956 7.03-2.889.701-1.307-10.199.18-6.046 3.225-8.983 3.061-7.141-3.151-8.879 2.128-11.123 5.345.41.127 5.226 3.569-6.351 7.002-10.929-.821-6.247 2.934.082 3.703 5.315 4.42-6.978.694-.373 5.898-7-1.628-4.659 2.016-4.965 3.651 4.197 2.426 1.26 6.644-6.277 1.717-2.922 3.957-7.694 1.695-10.489 4.606.545 6.129 5.837 4.614-7.105.851.164 7.548-4.92-.157-1.752 4.046.604 4.308-5.666.306.008 2.777 10.541-.582 4.756 1.172 4.995 1.105 6.873-3.36 2.192.142.477-3.076 7.425-3.404 4.369-.582-.388-3.517 2.453-1.53 5.099 1.03 2.661-3.479.187-4.031 6.165-2.27 8.737 2.225 4.704-3.703 4.659-1.329 2.348 1.725.716-4.188 6.687-2.867 3.623 3.337-.343 1.695Z"/>
    <path fill="#fff" stroke="#D9DBE1" stroke-width="2" d="m713.227 135.16-.674-.051-.298.607-1.292 2.632-4.435-2.143-.362-.175-.383.124-2.311.754-1.369.447.896 1.127.896 1.126-2.784 1.27-4.648-.424-1.441-.131.386 1.394 1.529 5.518-2.205 1.588-4.784-2.773-.246-.143-.284.008-7.984.223-4.102-2.606-.343-.217-.396.082-6.867 1.422-5.637-3.348-.281-.166-.324.03-5.047.478-.684.065-.185.661-1.305 4.657-8.03 1.049-.168.022-.152.076-6.913 3.476-18.038-.633-.269-.009-.238.127-6.008 3.21-.003.001-4.794 2.584-.041.022-.039.026-3.504 2.337-.21.14-.119.223-2.152 4.056-3.002 3.428-.222.254-.023.336-.5 7.212-.024.354.204.29 2.408 3.427.219.311.371.087 4.793 1.123 2.742 3.049-6.056 2.943-7.57 1.901-.028.007-.026.008-2.326.724-.392.122-.193.362-.919 1.721-6.758 2.783-.266.109-.167.235-1.26 1.77-.93 1.306 1.582.26 3.943.65.15.025.151-.021 9.389-1.309-4.534 10.577-.395.921.921.393 14.371 6.13-1.756 5.847-.021.071-.011.073-1.565 10.795-.083.568.449.358 3.906 3.113.23.183.293.03 4.278.433 5.541 4.536-.443 3.146-.106.751.694.305 2.043.896.148.064.161.015 5.449.508.37.035.302-.215 2.773-1.969 7.338-1.907 3.64.889.942.23.259-.935 1.608-5.808 8.431.314.339.013.277-.196 6.97-4.942.015-.011.014-.01 5.574-4.256 7.341-1.794.358-.087.215-.299 2.632-3.645 3.844-4.796 5.942-2.196.108-.039.095-.063 7.336-4.831 1.065-.701-.935-.867-6.091-5.644-.335-.311-.454.05-4.22.464-2.771-2.695-.409-.398-.551.15-2.782.757-2.467-.809.078-2.951.028-1.072-1.072.047-4.178.183-3.731-3.506 2.315-.659.383-.109.204-.343 1.488-2.512 10.075-5.311.138-.072.11-.112 2.308-2.352 5.601-.533.597-.057.231-.553 2.181-5.223 7.933-.443.504-.028.277-.422 2.366-3.61 2.325 1.125.399.193.411-.166 3.165-1.276 2.507 2.095.228.19.296.035 5.585.659 1.395 2.352.277.467.542.022 1.796.075.514.021.316-.405 1.825-2.336 4.499-.102.784-.017.17-.766.361-1.635 4.416-2.293.77-.399-.287-.819-.598-1.706.623-3.405.21-1.144-1.163-.035-4.063-.123-3.942-3.726 4.026-2.432 2.451.701.372.107.346-.172 3.623-1.791 1.077-.533-.719-.962-1.998-2.673-.248-.332-.41-.059-2.08-.301.266-.64.289-.695-.588-.47-3.69-2.949-.321-.256-.408.043-5.697.602-7.466-5.36-1.023-3.592-.191-.672-.697-.051-2.102-.157Z"/>
    <path fill="#fff" d="m566.867 104.69-2.624 2.866 1.394 5.592-5.42 1.135-.798 6.607-.193.09 1.699 2.217 3.631.97-.388 4.622h2.714l4.159 1.881 6.367-2.277 3.548.873 3.929-3.247 5.711 4.098 7.648 1.038 2.445-1.456.187-2.381 4.771.843.686 1.807 5.308.202.67 2.717 4.749 1.381-6.008 3.001 3.995.986 2.602 3.494-.328 4.942-6.508 2.038-2.259-.202.269 1.927 2.795 3.113 4.585.955 6.143-3.284 18.331.649 6.985-3.509 8.089-1.052 1.498-5.331 6.769-.649 5.852 3.486 7.284-1.508 4.547 2.889 8.245-.224 4.704 2.725 1.894-1.366-1.946-6.98 6.262.574 2.773-1.261-1.558-1.971-8.528-6.137 5.136-.94.634-3.024 4.227-2.187 3.586-.023-.917-2.396.976-8.563-3.116-3.569-.641-5.905 8.417 1.344.544-2.837 3.638.216 2.683 2.001 5.517-1.598 3.265.881 3.936-2.911 1.663-4.091-3.116-2.733-4.704-3.516-7.097-1.24-9.207-1.642-8.111-3.419-1.558-5.054-5.42-2.598-1.513-3.964-6.985-3.061-2.55-4.196-2.78-2.568-13.687-1.71-4.936 1.89-13.97-1.77-5.248-4.823-5.069 2.837-7.396-3.501-5.054 3.367 3.466 3.157-2.206 4.316-9.937 4.479-1.327 7.428 3.6 3.24-3.198 2.471-14.492-2.224 1.387 3.919-4.168 1.62-13.478-2.979-8.968 5.062.32 9.795-3.205-.568-.298 3.173-5.323 1.531Z"/>
    <path fill="#fff" d="m518.612 125.115-7.656-3.143-1.931 5.786-9.61.948-2.102 6.346-7.872 2.128-7.805 4.031-6.359.194.044 2.113-5.166 2.912-.686 8.839-2.512 4.001-8.387 3.726-7.261.515-.559 2.299-.156 4.248-4.339.799 3.273 5.047 11.994-.344 6.009 2.807 12.256.284 5.434 5.136 8.745-1.314 5.047 2.337 14.596.052 10.743 10.594 16.952 5.323 11.779-5.667 9.87-2.359 7.038 3.099 8.028-2.725 6.315-3.375 11.659-.201 2.497-.769 7.537-1.904 6.27-3.039-2.975-3.307-5.181-1.209-2.81-4.002.514-7.615 3.168-3.628 2.267-4.27 3.757-2.501 3.884-2.098-4.309-.888-3.265-3.644-.455-3.225 3.578.314 5.375-1.68.284-4.203-2.17-2.912-5.897-1.455 6.143-3.061-3.265-.956-.611-2.434-5.204-.201-.745-1.964-2.058-.358-.127 1.62-3.399 2.023-8.968-1.217-4.786-3.426-3.489 2.874-3.906-.971-6.613 2.367-4.562-2.068h-3.951l.41-4.994-3.139-.837-1.826-2.389-2.885 1.262-3.034 5.009-8.566 5.577-5.107-5.263-9.087-.052-3.638-3.024-7.037.082Z"/>
    <path fill="#fff" d="m472.779 276.457 3.019-.03 1.931-4.471 4.585.141-.172-7.346 6.091-.724-4.786-3.777-.612-6.824 11.257-4.935 7.321-1.62 2.9-3.927 5.859-1.597-1.095-5.741-4.786-2.762 5.889-4.323 5.479-2.374 5.852 1.359.336-5.383 5.874-.59-4.242-3.524-.112-4.397 7.269-3.412 10.563.792 5.413-5.965-4.332-2.949-19.002-5.958-10.504-10.347-14.224-.045-4.845-2.247-9.147 1.381-5.614-5.3-11.898-.276-5.934-2.77-11.637.328-2.177 1.8 3.675 3.926-.73 3.405 5.062 2.755 2.706 6.42-1.484 4.696-11.495 1.456-4.689 3.897 2.095 4.158 10.228 5.756-1.268 1.851 4.779.642 1.17 5.906.313 4.807 2.871 2.875-6.456 2.299-.94 2.367-5.315-1.12.306 2.807-5.86 2.598 3.936 4.442-7.38 1.038-2.43 1.381-5.166-.754-.47 4.628-2.445 1.367 2.452 4.3-5.196 2.792 1.991 1.06-1.379 4.912 2.989 1.359 1.715-1.829 4.048 3.091 2.87-.769 6.351 2.702 5.092 1.822 3.571-1.74 5.666 2.703 4.338-1.919 4.913 3.031 5.047 2.695ZM386.638 76.276l.075 4.427 5.606 3.606-4.197 7.308 2.169 4.144 5.554 3.322 4.495-.284 14.984 8.884-.492 6.264 9.99 2.807 2.117 7.018 3.802 1.761 13.262-.731 8.745 4.755-.045 3.427 7.671 2.277-.082 5.107 6.255.992 3.041 3.995 4.093-2.307-.045-2.569 7.246-.216 7.597-3.927 7.395-2.001 2.162-6.495 9.609-.948 2.169-6.51 9.155 3.763 7.388-.09 3.66 3.039 9.199.059 4.473 4.622 6.978-4.547 3.079-5.091 4.16-1.815.805-6.778 5.188-1.083-1.297-5.166 3.094-3.382 4.972-1.433.261-2.77-6.113-1.067-2.4-2.18-6.747 2.404-10.891-5.555-4.928-6.166-18.943-4.547-.626-3.06-4.145-.538-3.437 4.471-10.533-5.51-6.337 3.495-3.653 4.912-6.001 3.62-4.674-2.776-7.224 3.524-2.147 4.06-6.135-.328-2.438-4.994-10.086.403-.388-3.994-4.48-3.083-13.18-1.322-.888-5.285 6.285-4.905-3.161-2.792-25.451-1.927-9.445-6.21-23.282-1.546-2.162 9.317-7.656-2.509-2.885 1.21 7.366 8.346 12.494 1.098Z"/>
    <path fill="#fff" d="m350.892 177.598 7.015 1.396 8.678.292 3.839 3.411 9.848-5.778 14.306.612 3.004 3.255 9.855-.321 6.844-4.218 3.75-9.787 13.568-.5 2.452 4.068 10.966.038 3.981-.739.142-3.681.715-3.001 7.985-.568 7.738-3.441 2.296-3.643.671-8.757-3.109-4.077-6.791-1.075.082-5.27-7.679-2.277.038-3.629-7.515-4.083-13.18.731-4.973-2.299-2.079-6.868-10.258-2.882.514-6.518-13.702-8.122-4.503.291-6.597-3.942-2.49-4.755 4.018-7.018-5.345-3.442-.06-3.844-11.786-1.03-7.716-8.728-7.611 3.18-.544 10.131-6.285.978-1.349 4.517-12.226-.336-7.03 3.86 12.897 9.944-3.72 6.891-6.933 2.284-5.129.224-21.321 9.832 1.447 6.376-7.276-1.419-6.501 3.36 4.175 3.859.328 9.586 8.237 8.25-2.363 2.187 3.616 3.845 4.875 2.74 4.533.045 6.269 3.799 4.563-.201 5.747 4.763-5.114 3.688 15.052 2.068 7.141 5.748ZM801.053 183.324l-2.05-2.732-7.105.732-8.73.321-3.966-4.039 4.615-2.777-2.214-2.912 2.743-2.702-3.205-3.569-6.255 1.642-8.066.015-6.456 3.136-6.277-1.896-9.564-.613-7.269-2.262-.119.613.82 2.336-5.062 2.621-.544 2.486-5.301.127-2.169 2.754-3.66-.149-1.685-2.837-5.822-.694-2.498-2.083-3.451 1.389-2.438-1.18-2.475 3.77-8.417.471-2.408 5.755-6.217.59-2.356 2.397-10.205 5.375-1.7 2.874-3.071.881 3.951 3.718 5.322-.239-.104 4.136 2.05.672 3.564-.971 3.265 3.166 4.659-.508 7.216 6.682-8.215 5.405-6.009 2.225-3.846 4.792-2.408 3.338 5.293.724 4.749 3.314 5.412-.5-.656-3.613 6.664 1.082 5.674 4.002 8.319 1.538 2.587 2.366 6.851-1.597 7.708 1.896-.044 6.54 5.904-1.419 2.095 3.771 10.354-2.009 6.002-2.015 8.998 3.994.991-3.031-1.536-3.367 5.577 1.679 2.84-.895 1.483-10.96 1.178-10.205 8.939-5.719 2.87-1.486 4.89.71-.082-7.429 3.541-3.665 2.416-3.188 5.732-.418-1.491-4.054 1.35-2.702-3.974-2.71 2.498-2.89Z"/>
    <path fill="#fff" d="m749.347 242.429-11.742 2.27-2.065-3.703-6.433 1.545.052-7.189-6.366-1.56-7.373 1.717-2.923-2.673-8.23-1.515-5.65-3.987-4.287-.694.581 3.187-7.499.695-4.958-3.464-5.449-.739-7.261 1.769-5.524 4.225-7.44 5.279-8.663-.329-1.893 6.854-4.973-1.21-6.895 1.792-1.857 1.321 3.363-.201 6.083 3.688-2.952 1.881 2.408.485 2.758-.059 7.283 4.397.216 1.836-3.392 3.293 1.305 3.113 7.254-.919 4.331 1.643-2.102 1.5 3.146 2.091-3.795 2.829 3.235 2.143-5.218 3.792-4.838-1.082-3.459 1.784.544 2.158-4.383 2.919 1.908 1.986-5.613.433-.09 1.552 1.014 2.039-6.232 3.859 3.175.933 9.2-.373 4.391-3.008 1.856.559 7.76-3.053 1.037 6.249-9.148.634-7.335 3.278-9.274 4.613-4.458.433-3.265 3.621 8.2.672 2.639-4.099 6.918-1.254 4.496-3.255 4.905 1.889-4.279 4.905-4.153.97-.29 2.651 2.229.672 5.651-2.277 4.897-3.255 7.015.545 3.027-1.919 7.634 1.762 4.942-3.039 3.81-4.748 6.485-2.822 6.628-3.762-.529-2.934 4.107.694-.32-5.121 6.91 2.829 4.421-1.799 3.787-.463.872-3.621h.015l.388-4.688-.813-3.823 6.039.299.745-2.994 9.729.523-2.848-6.824 11.846 1.77-.761-2.897 6.538-.194 3.78.373-.515 2.225 5.532 1.247 2.207-1.979-2.505-3.128-4.428-2.008 2.616-2.874 4.048.515 1.625 2.284 2.08 1.486 3.847-.463-.022-2.292-2.945-2.71-4.63-1.829-2.691-3.747 4.108.059 1.334-4.076-8.826-3.912-5.36 1.799Z"/>
    <path fill="#fff" stroke="#2560F4" stroke-width="2" d="m818.718 112.069-4.801 3.074-.946.606.712.869 5.934 7.253-1.901 4.163-4.024 2.8-.163.114-.107.166-3.333 5.181-.483.752.692.564 8.251 6.73 1.088 4.997.224 1.027 1.015-.275 4.31-1.169-.606 3.348-.152.84.806.282 5.382 1.883 1.108 1.982-2.462-.729-.394-.116-.362.194-10.168 5.45-.592.317.07.667.173 1.663-2.828 1.716-3.091-.297-.479-.046-.335.345-2.527 2.606-.398.41.152.551 2.384 8.689-2.583.02-.419.003-.291.3-2.386 2.457-.108.111-.069.139-2.395 4.804-.924-.632 1.63-1.885.528-.609-.484-.645-2.773-3.695-.34-.453-.563.058-7.995.825-7.391.26-1.75-1.784 3.442-2.079.952-.574-.672-.886-1.778-2.344 2.159-2.116.684-.671-.641-.712-4.227-4.696-.408-.453-.59.155-6.995 1.841-8.131.015h-.229l-.206.1-5.806 2.816-5.366-1.626-.11-.034-.116-.007-9.43-.605-6.515-2.029.382-2.054.213-1.147-1.166-.035-4.875-.145-2.877-2.724 2.497-1.508 2.362.679.372.107.347-.172 5.166-2.553 1.077-.532-.718-.963-2.781-3.725-.248-.332-.41-.06-1.301-.188.067-.16.292-.696-.589-.471-4.682-3.748-.321-.257-.409.044-5.742.609-6.645-4.77-1.142-4.039-.191-.673-.698-.052-4.369-.321-.673-.049-.298.606-1.039 2.118-3.541-1.705-.36-.173-.381.122-2.665.86-4.599-3.308 1.566-.29.658-.122.138-.655.588-2.783 2.78-1.435 4.615-.035 1.441-.011-.515-1.346-1.195-3.124.979-8.446.05-.44-.291-.333-2.968-3.398-.304-2.835 6.782 1.085.959.153.181-.954.403-2.116.495.029 2.78 2.061.397.295.475-.137 5.674-1.632 3.369.905.467.126.388-.288 4.809-3.561.225-.167.105-.259 1.608-3.945 5.536-2.229 6.643 1.174 5.321 3.706 4.381 4.586.155.162.208.08 8.67 3.345.261.1.275-.049 6.09-1.087 3.942 1.1.724 2.696.187.695.717.044 3.974.246.349.022.286-.201 4.055-2.84 8.083 2.658.373.123.358-.165 5.081-2.342 5.119 2.811.448.246.462-.219 7.188-3.409 2.222.26 2.325 1.584Z"/>
    <path fill="#fff" d="m831.633 77.216-4.511 4.144-2.631-5.428-7.045-1.09-4.152-3.815-8.052 2.95-7.35-5.712.455-6.226 6.784-2.464 1.08-3.03-2.05-1.106-2.281 3.285-6.165-.239-4.577 2.165-5.919.47-2.677-3.792 5.875-5.54-2.542-3.919-.142-7.831-5.599-3.86-11.815-1.582-1.163-7.093-4.16 3.487-.761 6.457-5.844.038-5.219 2.926-8.118-3.95-5.941 1.315-2.818 4.404-13.673-2.762-.745 7.182-9.751.508-4.13 2.135-7.336-1.172-5.732 4.233-7.5 2.217-4.406-2.53-3.526 1.164 6.642 6.293-2.803 4.062 2.826 2.613 2.43 4.001 7.09 3.106 1.52 3.994 5.45 2.62 1.543 5.017 7.336 3.09 8.968 1.606 7.552 1.329 5.054 3.785 2.945 2.59 6.381-2.575 8.17 1.456 5.979 4.165 4.324 4.532 7.828 3.024 6.209-1.105 5.897 1.65.82 3.038 2.192.142 4.719-3.307 8.752 2.881 5.733-2.65 5.546 3.053 7.052-3.344 3.78.448 4.272 2.919 4.83-.09 2.237-4.666 1.886-1.679 5.695.694 3.303-4.323 6.784-2.351L848.316 96l-10.123-6.047-2.043-3.561-4.018-4.517 2.609-4.136-3.108-.523ZM277.693 387.104l-6.769-3.464-12.554-.074-.76 2.762-5.874.403-9.118-4.173-2.475 3.404-9.728.366-8.864-1.784-8.513.56-4.451 2.187-9.386-.015-6.06 2.046-11.145-.926-7.642 2.62-9.191-1.963-10.124.082-4.861 2.083-3.809-.664-1.655 1 5.964 3.919-.828 6.988 10.049 5.92 1.201 2.352-3.758 2.546 2.408 3.165 6.985 2.71 4.63-2.098 14.828 3.972 7.164-3.113 12.777 3.188 3.251-4.301 12.859 2.613 5.062-2.62-2.087-5.95 20.471.052.82-3.285 17.69-1.59 1.349-4.502 16.52-.171 1.424-6.951 8.693-3.098-3.444-2.598-3.109-1.68-7.94.082ZM367.002 320.489l-2.952 1.613 1.476 3.725-5.479.276.41 1.755-3.936 2.277-2.938-.918-1.23.388 1.029 3.859-7.283-1.679-2.766 1.187 3.787 3.859-5.725-.806-1.156.538 5.673 3.255-1.647 2.075-6.978-2.068-3.422 1.59-.119 1.994-8.64 2.769-7.999-1.254-3.795.261-1.804 3.8-10.414.306-5.316 1.113-.566 3.091 5.681 1.201 4.979 2.725.485 4.338-3.347-.03-2.893 2.628.283 6.107.179 6.189 1.245 6.114 6.374 3.77 5.077.418 4.592 5.525 4.786-2.471.067-9.497 17.765-9.182-.686-3.136 12.398-5.263-5.286-9.399 13.754-8.571-6.232-6.801 11.376-1.329-.089-3.143 8.506-1.754-.38-4.24 5.285-.941.403-3.845-6.576-1.926-5.956-.493Z"/>
    <path fill="#fff" d="m307.408 387.269-7.104-4.196-1.312-6.405-.187-6.227-.298-6.323 3.534-3.21 2.631.022-.358-3.195-4.316-2.359-6.501-1.374.679-3.71-6.665-2.464-10.489.665-6.814 3.852-7.015-1.531-4.398.575-2.989-.463-4.555 2.24-8.365-1.59.94-3.457-1.305-.321-4.957 2.561-4.197-2.434-2.252-2.463-8.193-2.375-7.156-2.635-9.848.12-5.942 2.224-2.355 2.516 4.838 3.188 3.929 3.673 4.189 1.68 6.091-.903 1.535 2.851-5.785 2.412-4.51 3.643-7.313 3.456-3.504 3.703-4.57 1.232 2.528 4.741.611 3.539 7.656 3.777 5.025 3.934 3.869-1.911 9.475-.619 8.908 1.799 8.35-.306 2.93-4.054 10.332 4.733 3.966-.269.783-2.859 14.604.09 6.746 3.464 7.977-.09 3.69 2.001 3.743 2.829 22.573 1.553-4.108-4.942-4.771-.388ZM639.089 287.387l.142-2.367 4.748-.366-1.386-1.44 4.607-3.061-.552-2.232 4.652-2.404 4.674 1.045 3.854-2.8-3.235-2.135 3.802-2.822-3.176-2.105 1.871-1.329-2.542-.963-8.006 1.008-1.782-4.211 3.467-3.359-.15-1.277-6.493-3.912-2.385.052-4.727-.948 3.512-2.239-4.652-2.822-4.51.261-6.307-.582-2.96-1.307.544-3.86-5.553-4.539-4.57-.463-4.078-3.247-4.011.993-.633 5.33-4.175.851 2.989 3.128 4.585 3.367-3.437 4.412-7.313 1.927-6.083 2.008-.037 5.263-6.956-.59-7.827 4.472-4.689-4.703-10.914.254.477-2.397-2.475-2.284-4.905 2.105-1.007 5.89-3.854-2.829-3.25.933-5.204 4.076-9.072-2.307-4.868 1.785-.179 3.762-3.31 4.323-5.457-1.105-1.394.874.417 3.859-5.218.695-6.702 3.075-.417 2.725 2.139.135-1.677 3.105 5.844 1.449 4.794-.247 5.293 3.92 6.955-.374 5.875 4.577 6.083-1.807 4.1-3.262 3.205.403-.492-2.404 10.638 1.06 3.43 3.867 4.376 3.083 6.597.926 4.615-1.605.529-2.12 5.942-.56.119 2.956 5.844-1.134 6.218.5 3.839 4.733-6.21 3.113-.566 1.613 2.437 1.075 9.446-.374 4.599 2.852 1.32 3.307 3.563-1.844 4.607-.238.88-6.07-2.661-2.598 4.92-.537 2.542 2.038 2.788 2.09 1.096-.888-.284-2.539 8.902-1.381.484-3.322-5.576-2.105 2.11-2.135 2.355.686 5.957-3.68-.865-1.732Z"/>
    <path fill="#fff" d="m601.762 306.305-9.303.373-3.541-1.568.812-2.359 5.793-2.897-3.079-3.8-5.107-.41-7.38 1.441-.127-3.128-3.272.313-.478 1.904-5.695 1.978-7.664-1.067-4.778-3.367-3.168-3.576-8.014-.792.499 2.449-4.227-.53-3.75 2.979-7.507 2.232-6.135-4.771-6.933.381-5.293-3.927-4.339.224-7.462-1.836 1.543-2.845-3.34-.216-7.067 3.449-5.211-1.15-2.766 3.084-5.419.843-2.535 2.561 4.249 3.135-6.933 4.039-3.981-.515-.328 2.956-5.993 2.442-7-.12-2.431 1.583 4.153 2.576-2.08 4.247 8.744 1.053-.164-4.427 8.275.351 5.584 3.21 6.426 1.613 3.399 4.688 3.005 4.696 10.041-1.448 13.665 2.769-1.275-4.001 6.173-.411 2.154 2.217 6.017 4.644 5.941.821 2.505 3.793 9.535-.948 4.719-2.815 8.938 1.956 5.382 4.539 3.728 1.015.939 2.18 10.579-.194 1.55 3.337-9.788 2.71-7.552-.433 1.238 5.361-9.334.903-2.9-1.389-1.2 8.519-5.636-1.62-5.084-3.263-3.787 3.322-.209 3.755 7.425 5.286 8.469-.59.574 4.621 5.822 2.546-5.986 5.174 5.733 4.143-3.467 4.062.634 4.24 6.053 1.448 3.452 3.166-8.514 3.359-2.296 2.419 5.822.53 6.128 2.001 10.825-2.098 8.834-3.038-6.643-5.234 5.331-.567 4.987 1.538 3.973-10.504 8.663-4.48 9.363-1.343 7.522 3.15-1.424-3.106-6.001-2.829-6.814.522-.283-2.209-5.464.298-5.904-3.822-4.153-4.509 6.523-.612 5.711 3.531 3.757.089-1.551-1.567-4.107-1.8 3.638-2.725-3.556-1.747 1.856-3.762 4.525.455-1.484-3.344 5.219.612-1.774-6.876.641-3.673-9.162-1.135-8.894 2.337-5.293-1.068-1.841-1.284-1.722-4.143 7.462-2.016 11.056 2.135 7.037 1.232-.664-5.3-5.3-2.822 2.825-3.927-6.441-4.323 4.831-3.8 2.102-5.024.94-.485-1.417-3.532-3.899-2.418Z"/>
    <path fill="#fff" d="m452.404 305.789 3.705-2.411 7.202.112 5.047-2.046.387-3.538 4.854.627 5.509-3.203-4.078-3.001 3.28-3.33 5.39-.836 2.43-2.71-3.66-.896-11.868.657-.008-4.479 5.562-.306-.448-3.158-3.489.037-5.568-2.964-3.959-2.441-4.19 1.852-5.62-2.673-3.437 1.672-6.143-2.195-5.613-2.389-3.191.859-3.347-2.546-1.432 1.523-5.233-2.374 1.387-4.957-5.547-2.964-15.968.112-.134-3.426-2.08-1.3-2.714-.156-1.424-2.255-5.524-.328.5-3.158-2.632.037-4.234 1.978-2.415 5.04-8.745 4.524-8.469-1.269-4.48-3.785-7.5-3.3-3.16 2.202.044 4.061-4.495 2.927-7.328 1.508.052 3.845-6.15.948-3.742 3.583-6.516 3.255-2.4 2.74.059 2.882 3.69.56 2.565 1.993 3.354 3.136 1.014 1.911 10.333 1.963 9.497 3.927 4.592 2.979-2.437 3.397-7.865.336-.537 2.769-1.968 1.964 1.767 4.375 15.677 8.048 3.005 5.412 2.818-1.545 7.037.582 7.06 2.075 7.164-.41 4.42-2.889 12.711.836 5.196-2.374 4.123 2.277 8.975-3.793 12.301 1.516 1.297-3.666 10.355-3.501 7.514 2.135.447.052 1.909-3.874-4.481-2.778Z"/>
    <path fill="#fff" d="m456.102 228.513-.32-4.994-1.036-5.226-5.517-.746 1.573-2.292-9.773-5.473-2.438-4.822 5.405-4.48 11.13-1.403 1.245-3.972-2.513-5.935-5.322-2.897.745-3.591-3.906-4.173 2.691-2.24-3.422-5.27H432.91l-2.422-4.017-11.108.411-3.608 9.407-7.47 4.613-11.6.381-3.086-3.367-12.562-.538-10.794 6.331-4.525-4.024-7.969-.276-7.865-1.568-7.075-5.681-15.26-2.098-6.926.232-11.428-4.196-5.576.097-10.884 5.174 1.066 3.971-5.524 2.016-4.533-2.023-2.601 1.493 2.981 7.951-3.056 1.082 5.218 1.583.507 5.629 4.399 2.285 11.808-1.538 7.239 3.874-.12 2.986 9.468.934 1.931 2.777 4.473-.612 6.955 3.202.052 4.666 6.397 1.919 4.137 5.495 6.866-2.016 7.015 2.807 6.061 1.224 8.58 4.077.925 3.449 3.727 1.388 6.747.456.41 5.651-4.63 5.726 4.54 2.651 6.262 1.276 4.69-.067-.522 3.3 4.92.283 1.431 2.24 2.281.134 2.945 1.844.112 2.83 14.969-.097 3.511 1.874 4.578-2.456-2.453-4.286 2.684-1.493.544-5.323 6.083.896 2.117-1.202 6.009-.851-3.66-4.121 6.21-2.755-.411-3.643 5.867 1.232.701-1.769 5.778-2.053-2.334-2.263Z"/>
  </g>
  <defs>
    <clipPath id="a">
      <path fill="#fff" d="M0 0h894v484H0z"/>
    </clipPath>
    <filter id="b" width="939.379" height="529.63" x="-22.678" y="-12.664" color-interpolation-filters="sRGB" filterUnits="userSpaceOnUse">
      <feFlood flood-opacity="0" result="BackgroundImageFix"/>
      <feColorMatrix in="SourceAlpha" result="hardAlpha" values="0 0 0 0 0 0 0 0 0 0 0 0 0 0 0 0 0 0 127 0"/>
      <feOffset dy="-1.067"/>
      <feGaussianBlur stdDeviation="3.502"/>
      <feColorMatrix values="0 0 0 0 0 0 0 0 0 0 0 0 0 0 0 0 0 0 0.01 0"/>
      <feBlend in2="BackgroundImageFix" result="effect1_dropShadow_726_212"/>
      <feColorMatrix in="SourceAlpha" result="hardAlpha" values="0 0 0 0 0 0 0 0 0 0 0 0 0 0 0 0 0 0 127 0"/>
      <feOffset dy="-1.572"/>
      <feGaussianBlur stdDeviation="6.725"/>
      <feColorMatrix values="0 0 0 0 0 0 0 0 0 0 0 0 0 0 0 0 0 0 0.01 0"/>
      <feBlend in2="effect1_dropShadow_726_212" result="effect2_dropShadow_726_212"/>
      <feColorMatrix in="SourceAlpha" result="hardAlpha" values="0 0 0 0 0 0 0 0 0 0 0 0 0 0 0 0 0 0 127 0"/>
      <feOffset dy="-1.198"/>
      <feGaussianBlur stdDeviation="9.978"/>
      <feColorMatrix values="0 0 0 0 0 0 0 0 0 0 0 0 0 0 0 0 0 0 0.01 0"/>
      <feBlend in2="effect2_dropShadow_726_212" result="effect3_dropShadow_726_212"/>
      <feColorMatrix in="SourceAlpha" result="hardAlpha" values="0 0 0 0 0 0 0 0 0 0 0 0 0 0 0 0 0 0 127 0"/>
      <feOffset dy=".76"/>
      <feGaussianBlur stdDeviation="13.941"/>
      <feColorMatrix values="0 0 0 0 0 0 0 0 0 0 0 0 0 0 0 0 0 0 0.0152884 0"/>
      <feBlend in2="effect3_dropShadow_726_212" result="effect4_dropShadow_726_212"/>
      <feColorMatrix in="SourceAlpha" result="hardAlpha" values="0 0 0 0 0 0 0 0 0 0 0 0 0 0 0 0 0 0 127 0"/>
      <feOffset dy="6.484"/>
      <feGaussianBlur stdDeviation="20.491"/>
      <feColorMatrix values="0 0 0 0 0 0 0 0 0 0 0 0 0 0 0 0 0 0 0.0278278 0"/>
      <feBlend in2="effect4_dropShadow_726_212" result="effect5_dropShadow_726_212"/>
      <feColorMatrix in="SourceAlpha" result="hardAlpha" values="0 0 0 0 0 0 0 0 0 0 0 0 0 0 0 0 0 0 127 0"/>
      <feOffset dy="10"/>
      <feGaussianBlur stdDeviation="25"/>
      <feColorMatrix values="0 0 0 0 0 0 0 0 0 0 0 0 0 0 0 0 0 0 0.05 0"/>
      <feBlend in2="effect5_dropShadow_726_212" result="effect6_dropShadow_726_212"/>
      <feBlend in="SourceGraphic" in2="effect6_dropShadow_726_212" result="shape"/>
    </filter>
  </defs>
</svg>
