<svg id="map" xmlns="http://www.w3.org/2000/svg" fill="none">
  <g clip-path="url(#a)">
    <g filter="url(#b)">
      <path fill="#D9DBE1" d="M866.656 253.262a.753.753 0 0 0-.293-.799.738.738 0 0 0-.274-.119l-4.928-1.038a.614.614 0 0 0 0-.105 3.357 3.357 0 0 1 0-.634.614.614 0 0 0 0-.105.71.71 0 0 0 0-.268.614.614 0 0 0 0-.105 3.368 3.368 0 0 1 0-.635.602.602 0 0 0 0-.104 3.368 3.368 0 0 1 0-.635.602.602 0 0 0 0-.104 3.368 3.368 0 0 1 0-.635.602.602 0 0 0 0-.104 3.368 3.368 0 0 1 0-.635.602.602 0 0 0 0-.104.716.716 0 0 0 0-.269.614.614 0 0 0 0-.105 3.357 3.357 0 0 1 0-.634.614.614 0 0 0 0-.105 3.357 3.357 0 0 1 0-.634.614.614 0 0 0 0-.105 3.357 3.357 0 0 1 0-.634.614.614 0 0 0 0-.105 3.357 3.357 0 0 1 0-.634.614.614 0 0 0 0-.105.716.716 0 0 0 0-.269.602.602 0 0 0 0-.104 3.368 3.368 0 0 1 0-.635.602.602 0 0 0 0-.104 3.368 3.368 0 0 1 0-.635.602.602 0 0 0 0-.104 3.368 3.368 0 0 1 0-.635.614.614 0 0 0 0-.105.71.71 0 0 0 0-.268.742.742 0 0 0-.492-.627l-3.153-1.135a.74.74 0 0 0-.559 0l-9.252 4.136-11.025 4.89a.736.736 0 0 0-.395.418 235.5 235.5 0 0 0 0 2.658.728.728 0 0 0 0 .365.732.732 0 0 0 0 .366.732.732 0 0 0 0 .366.732.732 0 0 0 0 .366.732.732 0 0 0 0 .366.728.728 0 0 0 0 .365.732.732 0 0 0 0 .366.732.732 0 0 0 0 .366c.02.211.02.424 0 .635l-2.714.253-4.07-.552h-.097a.747.747 0 0 0-.746.747v4.673l-3.056 3.957a.78.78 0 0 0-.09.156l-2.072 4.749-9.922 2.015h-.112l-4.533 1.68-7.157-.433-.514-3.837a.747.747 0 0 0-.574-.627l-6.903-1.538H793.382l-7.366 1.829-3.101-.709h-.164a.732.732 0 0 0-.343.082l-3.854 1.993-3.481-2.486a.747.747 0 0 0-.433-.142h-.164l-1.148.269.641-4.771 1.141-9.854 8.573-5.495 2.654-1.374 4.659.672h.105a.746.746 0 0 0 .745-.746v-7.204l3.243-3.36.06-.067 2.236-2.919 5.39-.396a.747.747 0 0 0 .656-.94v-6.301a.755.755 0 0 0 0-.366.732.732 0 0 0 0-.247.698.698 0 0 0 .268-.276l2.863-5.726 2.087-2.143h3.571a.733.733 0 0 0 .61-.282.745.745 0 0 0 .136-.658.755.755 0 0 0 0-.366.755.755 0 0 0 0-.366.755.755 0 0 0 0-.366.751.751 0 0 0 0-.365.755.755 0 0 0 0-.366.755.755 0 0 0 0-.366.755.755 0 0 0 0-.366.755.755 0 0 0 0-.366.751.751 0 0 0 0-.365.755.755 0 0 0 0-.366.755.755 0 0 0 0-.366.755.755 0 0 0 0-.366.755.755 0 0 0 0-.366.755.755 0 0 0 0-.366.751.751 0 0 0 0-.365.755.755 0 0 0 0-.366.755.755 0 0 0 0-.366.755.755 0 0 0 0-.366.755.755 0 0 0 0-.366.751.751 0 0 0 0-.365.755.755 0 0 0 0-.366.755.755 0 0 0 0-.366.755.755 0 0 0 0-.366.755.755 0 0 0 0-.366.751.751 0 0 0 0-.365.755.755 0 0 0 0-.366.755.755 0 0 0 0-.366.755.755 0 0 0 0-.366.755.755 0 0 0 0-.366.755.755 0 0 0 0-.366.751.751 0 0 0 0-.365v-.068l2.423.232h.074a.747.747 0 0 0 .388-.105l3.653-2.239a.747.747 0 0 0 .357-.747v-.142a.746.746 0 0 0 0-.231v-.142a.746.746 0 0 0 0-.231v-.142a.752.752 0 0 0 0-.232v-.142a.746.746 0 0 0 0-.231v-.142a.746.746 0 0 0 0-.231v-.045l9.274-4.972 4.525 1.336a.743.743 0 0 0 .791-.246c.096-.83.141-1.665.134-2.501a.755.755 0 0 0 0-.366.755.755 0 0 0 0-.366.755.755 0 0 0 0-.366.751.751 0 0 0 0-.365.755.755 0 0 0 0-.366.755.755 0 0 0 0-.366.755.755 0 0 0 0-.366.755.755 0 0 0 0-.366.751.751 0 0 0 0-.365.755.755 0 0 0 0-.366.755.755 0 0 0 0-.366.755.755 0 0 0 0-.366.755.755 0 0 0 0-.366.755.755 0 0 0 0-.366.751.751 0 0 0 0-.365.755.755 0 0 0 0-.366.755.755 0 0 0 0-.366.755.755 0 0 0 0-.366.755.755 0 0 0 0-.366.751.751 0 0 0 0-.365.755.755 0 0 0 0-.366.755.755 0 0 0 0-.366.755.755 0 0 0 0-.366.755.755 0 0 0 0-.366.751.751 0 0 0 0-.365.755.755 0 0 0 0-.366.755.755 0 0 0 0-.366.755.755 0 0 0 0-.366.755.755 0 0 0 0-.366.751.751 0 0 0 0-.365.755.755 0 0 0 0-.366.755.755 0 0 0 0-.366.755.755 0 0 0 0-.366.755.755 0 0 0 0-.366.755.755 0 0 0 0-.366.751.751 0 0 0 0-.365.755.755 0 0 0 0-.366.755.755 0 0 0 0-.366.755.755 0 0 0 0-.366.755.755 0 0 0 0-.366.751.751 0 0 0 0-.365.755.755 0 0 0 0-.366.755.755 0 0 0 0-.366.755.755 0 0 0 0-.366.755.755 0 0 0 0-.366.751.751 0 0 0 0-.365.755.755 0 0 0 0-.366.755.755 0 0 0 0-.366.755.755 0 0 0 0-.366.755.755 0 0 0 0-.366.755.755 0 0 0 0-.366.751.751 0 0 0 0-.365.755.755 0 0 0 0-.366.755.755 0 0 0 0-.366.755.755 0 0 0 0-.366.755.755 0 0 0 0-.366.751.751 0 0 0 0-.365.755.755 0 0 0 0-.366.755.755 0 0 0 0-.366.755.755 0 0 0 0-.366.755.755 0 0 0 0-.366.755.755 0 0 0 0-.366.751.751 0 0 0 0-.365.755.755 0 0 0 0-.366.755.755 0 0 0 0-.366.755.755 0 0 0 0-.366.755.755 0 0 0 0-.366.751.751 0 0 0 0-.365.755.755 0 0 0 0-.366.755.755 0 0 0 0-.366.755.755 0 0 0 0-.366.755.755 0 0 0 0-.366.751.751 0 0 0 0-.365.755.755 0 0 0 0-.366.755.755 0 0 0 0-.366.755.755 0 0 0 0-.366.755.755 0 0 0 0-.366.755.755 0 0 0 0-.366.751.751 0 0 0 0-.365.755.755 0 0 0 0-.366.755.755 0 0 0 0-.366.755.755 0 0 0 0-.366.755.755 0 0 0 0-.366.751.751 0 0 0 0-.365.755.755 0 0 0 0-.366.755.755 0 0 0 0-.366.755.755 0 0 0 0-.366 3.867 3.867 0 0 0-.067-.911l-2.483-4.479a.745.745 0 0 0-.402-.343l-4.376-1.493v-.112a.753.753 0 0 0 0-.299v-.067c.02-.099.02-.2 0-.299v-.067c.02-.099.02-.2 0-.299v-.067c.02-.098.02-.2 0-.299v-.067c.02-.098.02-.2 0-.298v-.068c.02-.098.02-.2 0-.298v-.067c.02-.099.02-.2 0-.299v-.067c.02-.099.02-.2 0-.299v-.067c.02-.099.02-.2 0-.299v-.067c.02-.098.02-.2 0-.298v-.068c.02-.098.02-.2 0-.298v-.067a.753.753 0 0 0 0-.299v-.067a.753.753 0 0 0-.231-.68.751.751 0 0 0-.15-.089.75.75 0 0 0 .396-.366l2.169-4.532 1.491-1.358 5.36.657h.089a.741.741 0 0 0 .589-.292l3.169-4.143 6.575-2.24a.746.746 0 0 0 .395-.328l1.879-3.173c.056-.561.081-1.124.074-1.687a.755.755 0 0 0 0-.366.755.755 0 0 0 0-.366.755.755 0 0 0 0-.366.751.751 0 0 0 0-.365.755.755 0 0 0 0-.366.755.755 0 0 0 0-.366.755.755 0 0 0 0-.366.755.755 0 0 0 0-.366.751.751 0 0 0 0-.365.755.755 0 0 0 0-.366.755.755 0 0 0 0-.366.755.755 0 0 0 0-.366.755.755 0 0 0 0-.366.755.755 0 0 0 0-.366.751.751 0 0 0 0-.365.755.755 0 0 0 0-.366.755.755 0 0 0 0-.366.755.755 0 0 0 0-.366.755.755 0 0 0 0-.366.751.751 0 0 0 0-.365.755.755 0 0 0 0-.366.755.755 0 0 0 0-.366.755.755 0 0 0 0-.366.755.755 0 0 0 0-.366.751.751 0 0 0 0-.365.755.755 0 0 0 0-.366.755.755 0 0 0 0-.366.755.755 0 0 0 0-.366.755.755 0 0 0 0-.366.755.755 0 0 0 0-.366.751.751 0 0 0 0-.365.755.755 0 0 0 0-.366.755.755 0 0 0 0-.366.755.755 0 0 0 0-.366.755.755 0 0 0 0-.366.751.751 0 0 0 0-.365.755.755 0 0 0 0-.366.755.755 0 0 0 0-.366.755.755 0 0 0 0-.366.755.755 0 0 0 0-.366.751.751 0 0 0 0-.365.755.755 0 0 0 0-.366.755.755 0 0 0 0-.366.755.755 0 0 0 0-.366.755.755 0 0 0 0-.366.755.755 0 0 0 0-.366.751.751 0 0 0 0-.365.755.755 0 0 0 0-.366.755.755 0 0 0 0-.366.755.755 0 0 0 0-.366.755.755 0 0 0 0-.366.751.751 0 0 0 0-.365.755.755 0 0 0 0-.366.755.755 0 0 0 0-.366.755.755 0 0 0 0-.366.755.755 0 0 0 0-.366.751.751 0 0 0 0-.365.755.755 0 0 0 0-.366.755.755 0 0 0 0-.366.755.755 0 0 0 0-.366.755.755 0 0 0 0-.366.755.755 0 0 0 0-.366.751.751 0 0 0 0-.365.755.755 0 0 0 0-.366.755.755 0 0 0 0-.366.755.755 0 0 0 0-.366.755.755 0 0 0 0-.366.751.751 0 0 0 0-.365.755.755 0 0 0 0-.366.755.755 0 0 0 0-.366.755.755 0 0 0 0-.366.755.755 0 0 0 0-.366.751.751 0 0 0 0-.365.755.755 0 0 0 0-.366.755.755 0 0 0 0-.366.755.755 0 0 0 0-.366.755.755 0 0 0 0-.366.755.755 0 0 0 0-.366.751.751 0 0 0 0-.365.755.755 0 0 0 0-.366.755.755 0 0 0 0-.366.755.755 0 0 0 0-.366.754.754 0 0 0 0-.366.755.755 0 0 0 0-.365.755.755 0 0 0 0-.366.755.755 0 0 0 0-.366.755.755 0 0 0 0-.366.755.755 0 0 0 0-.366.755.755 0 0 0 0-.366 1.606 1.606 0 0 0-.335-1.179l-9.96-5.973-1.946-3.389a.661.661 0 0 0-.089-.127l-1.238-1.388a8.364 8.364 0 0 1 0-.672.731.731 0 0 0 0-.366.731.731 0 0 0 0-.366.731.731 0 0 0 0-.366.731.731 0 0 0 0-.365.731.731 0 0 0 0-.366.731.731 0 0 0 0-.366.731.731 0 0 0 0-.366.731.731 0 0 0 0-.366.731.731 0 0 0 0-.366.731.731 0 0 0 0-.365.731.731 0 0 0 0-.366.731.731 0 0 0 0-.366.731.731 0 0 0 0-.366.731.731 0 0 0 0-.366.731.731 0 0 0 0-.365.931.931 0 0 0-.596-1.292l-3.109-.523h-.127a.742.742 0 0 0-.506.194l-3.773 3.465-2.199-4.525a.74.74 0 0 0-.559-.41l-6.828-1.784-3.981-3.659a.75.75 0 0 0-.746-.149l-6.098 2.24a16.07 16.07 0 0 1 0-.695.755.755 0 0 0 0-.365.755.755 0 0 0 0-.366.755.755 0 0 0 0-.366.755.755 0 0 0 0-.366.755.755 0 0 0 0-.366.755.755 0 0 0 0-.365.755.755 0 0 0 0-.366.755.755 0 0 0 0-.366.755.755 0 0 0 0-.366.755.755 0 0 0 0-.366.755.755 0 0 0 0-.365.755.755 0 0 0 0-.366.755.755 0 0 0 0-.366.755.755 0 0 0 0-.366.755.755 0 0 0 0-.366.755.755 0 0 0 0-.365.755.755 0 0 0 0-.366.755.755 0 0 0 0-.366.755.755 0 0 0 0-.366.755.755 0 0 0 0-.366.755.755 0 0 0 0-.366.755.755 0 0 0 0-.365.755.755 0 0 0 0-.366.755.755 0 0 0 0-.366.755.755 0 0 0 0-.366.755.755 0 0 0 0-.366.755.755 0 0 0 0-.366.755.755 0 0 0 0-.365.755.755 0 0 0 0-.366.755.755 0 0 0 0-.366.755.755 0 0 0 0-.366.755.755 0 0 0 0-.366.755.755 0 0 0 0-.365.755.755 0 0 0 0-.366.755.755 0 0 0 0-.366.755.755 0 0 0 0-.366.755.755 0 0 0 0-.366.755.755 0 0 0 0-.365.755.755 0 0 0 0-.366.755.755 0 0 0 0-.366.755.755 0 0 0 0-.366.75.75 0 0 0-.358-.843l-2.057-1.105a.746.746 0 0 0-.962.231l-2.043 2.986-5.792-.224a.747.747 0 0 0-.321.075l-4.472 2.105-1.805.142a15.482 15.482 0 0 1 0-.746.731.731 0 0 0 0-.366.731.731 0 0 0 0-.366.731.731 0 0 0 0-.366.731.731 0 0 0 0-.366.731.731 0 0 0 0-.365.731.731 0 0 0 0-.366.731.731 0 0 0 0-.366.731.731 0 0 0 0-.366.731.731 0 0 0 0-.366.731.731 0 0 0 0-.366.731.731 0 0 0 0-.365.731.731 0 0 0 0-.366.731.731 0 0 0 0-.366.731.731 0 0 0 0-.366.731.731 0 0 0 0-.366.731.731 0 0 0 0-.365.731.731 0 0 0 0-.366.731.731 0 0 0 0-.366.731.731 0 0 0 0-.366 3.121 3.121 0 0 0-.089-.948l-2.423-3.733-.141-7.615a.75.75 0 0 0-.321-.597l-5.591-3.86a.746.746 0 0 0-.328-.127l-11.272-1.493-1.066-6.547a.745.745 0 0 0-1.215-.455l-4.16 3.486a.75.75 0 0 0-.261.485l-.678 5.801h-5.219a.743.743 0 0 0-.357.097l-4.876 2.732-7.79-3.979a.746.746 0 0 0-.328-.074h-.164l-5.964 1.314a.75.75 0 0 0-.47.328l-2.542 3.98-13.173-2.658h-.149a.745.745 0 0 0-.745.671l-.679 6.54-9.117.478a.751.751 0 0 0-.306.082l-3.913 2.023-7.09-1.142h-.119a.745.745 0 0 0-.44.15l-5.621 4.143-7.067 2.09-4.115-2.374a.745.745 0 0 0-.373-.097.746.746 0 0 0-.231 0l-3.526 1.165a.747.747 0 0 0-.485.896.766.766 0 0 0 0 .343.766.766 0 0 0 0 .343.766.766 0 0 0 0 .344.766.766 0 0 0 0 .343.766.766 0 0 0 0 .344.766.766 0 0 0 0 .343.766.766 0 0 0 0 .343.766.766 0 0 0 0 .344.766.766 0 0 0 0 .343.766.766 0 0 0 0 .344.766.766 0 0 0 0 .343.766.766 0 0 0 0 .344.766.766 0 0 0 0 .343.766.766 0 0 0 0 .343.766.766 0 0 0 0 .344.766.766 0 0 0 0 .343.766.766 0 0 0 0 .344.766.766 0 0 0 0 .343.766.766 0 0 0 0 .343.766.766 0 0 0 0 .344.766.766 0 0 0 0 .343.766.766 0 0 0 0 .344.766.766 0 0 0 0 .343.766.766 0 0 0 0 .344.766.766 0 0 0 0 .343.764.764 0 0 0 0 .224l-10.295-.582h-.089a.75.75 0 0 0-.269.052l-4.756 1.822-13.523-1.733-5.077-4.658a.741.741 0 0 0-.887-.097l-4.734 2.643-7.052-3.345a.744.744 0 0 0-.321-.075.748.748 0 0 0-.41.127l-5.046 3.375a.74.74 0 0 0-.329.567.763.763 0 0 0 .038.247.719.719 0 0 0-.038.12.763.763 0 0 0 .038.245.719.719 0 0 0-.038.12.763.763 0 0 0 .038.246.722.722 0 0 0-.038.12.764.764 0 0 0 .038.246.718.718 0 0 0-.038.12.764.764 0 0 0 .038.246.718.718 0 0 0-.038.12.763.763 0 0 0 .038.246.718.718 0 0 0-.038.12.763.763 0 0 0 .038.245.72.72 0 0 0-.038.12.763.763 0 0 0 .038.246.719.719 0 0 0-.038.12.763.763 0 0 0 .038.246.719.719 0 0 0-.038.12.763.763 0 0 0 .038.246.719.719 0 0 0-.038.12.763.763 0 0 0 .038.246.719.719 0 0 0-.038.12.764.764 0 0 0 .038.246.718.718 0 0 0-.038.119.764.764 0 0 0 .038.246.718.718 0 0 0-.038.12.763.763 0 0 0 .038.246.77.77 0 0 0-.038.142.763.763 0 0 0 .038.246.72.72 0 0 0-.038.12.763.763 0 0 0 .038.246.78.78 0 0 0-.038.135.764.764 0 0 0 .038.246.718.718 0 0 0-.038.12.764.764 0 0 0 .038.246.782.782 0 0 0-.038.134.763.763 0 0 0 .038.246.719.719 0 0 0-.038.12.763.763 0 0 0 .038.246.783.783 0 0 0-.038.135.812.812 0 0 0 0 .209l-8.274 3.733a.74.74 0 0 0-.425.552l-1.312 7.45a.75.75 0 0 0 0 .3v.074a.75.75 0 0 0 0 .299v.074a.75.75 0 0 0 0 .299V81c-.02.099-.02.2 0 .3v.074a.75.75 0 0 0 0 .298v.075a.75.75 0 0 0 0 .299v.074a.75.75 0 0 0 0 .299v.075a.75.75 0 0 0 0 .298v.075c-.02.098-.02.2 0 .299v.074a.75.75 0 0 0 0 .299v.074a.75.75 0 0 0 0 .299v.075a.75.75 0 0 0 0 .298v.075c-.02.099-.02.2 0 .299v.074a.698.698 0 0 0 0 .112l-13.24-2.03h-.112a1.888 1.888 0 0 0-.746 1.672.755.755 0 0 0 0 .366.755.755 0 0 0 0 .365.755.755 0 0 0 0 .366.755.755 0 0 0 0 .366.755.755 0 0 0 0 .366.755.755 0 0 0 0 .366.755.755 0 0 0 0 .365.755.755 0 0 0 0 .366v.068l-2.109.82-13.255-2.926h-.164a.743.743 0 0 0-.365.097l-8.946 5.062a.743.743 0 0 0-.38.672v.284a.668.668 0 0 0 0 .09v.283a.67.67 0 0 0 0 .09v.283a.67.67 0 0 0 0 .09v.283a.67.67 0 0 0 0 .09v.284a.67.67 0 0 0 0 .09v.283a.668.668 0 0 0 0 .09v.283a.67.67 0 0 0 0 .09v.284a.67.67 0 0 0 0 .09v.283a.67.67 0 0 0 0 .09v.283a.668.668 0 0 0 0 .09v.283a.67.67 0 0 0 0 .09v.284a.67.67 0 0 0 0 .09v.283a.67.67 0 0 0 0 .09v.283a.67.67 0 0 0 0 .09v.283a.668.668 0 0 0 0 .09v.284a.67.67 0 0 0 0 .09v.283a.67.67 0 0 0 0 .09v.283a.67.67 0 0 0 0 .09v.284a.67.67 0 0 0 0 .09v.283a.67.67 0 0 0 0 .09v.283a.67.67 0 0 0 0 .09v.283a.67.67 0 0 0 0 .09v.284a.67.67 0 0 0 0 .09V100.127l-2.013-.358h-.127a.746.746 0 0 0-.745.679l-.082.889a.92.92 0 0 0 0-.105v-.187a.826.826 0 0 0 0-.186v-.187a.826.826 0 0 0 0-.186v-.187a.752.752 0 0 0-.31-.902.741.741 0 0 0-.324-.106l-5.904-1.038-2.237-2.03a.742.742 0 0 0-.745-.15l-6.449 2.292-10.436-5.33-4.831-6.047a.747.747 0 0 0-.41-.261l-18.481-4.435-.529-2.598a.744.744 0 0 0-.671-.56l-4.152-.53h-.097a.743.743 0 0 0-.589.291l-3.057 3.972-9.974-5.226a.747.747 0 0 0-.708 0l-6.337 3.494a.747.747 0 0 0-.239.209l-3.57 4.793-5.487 3.314-4.294-2.545a.747.747 0 0 0-.708 0l-7.224 3.523a.748.748 0 0 0-.336.321l-1.93 3.644-5.219-.284-2.236-4.599a.748.748 0 0 0-.671-.418l-9.416.38-.32-3.291a.742.742 0 0 0-.321-.545l-4.473-3.084a.741.741 0 0 0-.35-.127l-7.127-.746v-.06a.428.428 0 0 1 0-.366.428.428 0 0 1 0-.365.428.428 0 0 1 0-.366.428.428 0 0 1 0-.366.428.428 0 0 1 0-.366.428.428 0 0 1 0-.366.428.428 0 0 1 0-.366.428.428 0 0 1 0-.365.428.428 0 0 1 0-.366.428.428 0 0 1 0-.366.428.428 0 0 1 0-.366.428.428 0 0 1 0-.366.428.428 0 0 1 0-.365.428.428 0 0 1 0-.366.428.428 0 0 1 0-.366.428.428 0 0 1 0-.366.428.428 0 0 1 0-.366.428.428 0 0 1 0-.365.428.428 0 0 1 0-.366.428.428 0 0 1 0-.366.428.428 0 0 1 0-.366.428.428 0 0 1 0-.366.428.428 0 0 1 0-.366.428.428 0 0 1 0-.365.428.428 0 0 1 0-.366.428.428 0 0 1 0-.366.428.428 0 0 1 0-.366.747.747 0 0 0-.253-.582l-3.161-2.8a.745.745 0 0 0-.44-.186l-25.257-1.904-9.281-6.107a.747.747 0 0 0-.358-.12l-23.312-1.634a.744.744 0 0 0-.745.575l-1.976 8.525-6.88-2.24a.744.744 0 0 0-.522 0l-2.893 1.21a.749.749 0 0 0-.402.859l-.082-.09a.749.749 0 0 0-.843-.194l-7.611 3.18a.75.75 0 0 0-.455.65l-.507 9.526-5.695.888a.75.75 0 0 0-.597.523l-1.177 3.964-11.675-.321a.744.744 0 0 0-.358.09l-7.029 3.86a.744.744 0 0 0-.388.596.601.601 0 0 1 0 .366.601.601 0 0 1 0 .366.601.601 0 0 1 0 .366.601.601 0 0 1 0 .366.601.601 0 0 1 0 .365.601.601 0 0 1 0 .366.601.601 0 0 1 0 .366.601.601 0 0 1 0 .366.601.601 0 0 1 0 .366.601.601 0 0 1 0 .365.601.601 0 0 1 0 .366.601.601 0 0 1 0 .366.601.601 0 0 1 0 .366.601.601 0 0 1 0 .366.601.601 0 0 1 0 .366.601.601 0 0 1 0 .365.601.601 0 0 1 0 .366.601.601 0 0 1 0 .366.601.601 0 0 1 0 .366.601.601 0 0 1 0 .366.601.601 0 0 1 0 .365.601.601 0 0 1 0 .366.601.601 0 0 1 0 .366.601.601 0 0 1 0 .366.601.601 0 0 1 0 .366.601.601 0 0 1 0 .365.601.601 0 0 1 0 .366.6.6 0 0 1 0 .366.602.602 0 0 1 0 .366.602.602 0 0 1 0 .366.602.602 0 0 1 0 .366.599.599 0 0 1 0 .365.602.602 0 0 1 0 .366.602.602 0 0 1 0 .366.602.602 0 0 1 0 .366.602.602 0 0 1 0 .366.599.599 0 0 1 0 .365.602.602 0 0 1 0 .366.602.602 0 0 1 0 .366.602.602 0 0 1 0 .366.602.602 0 0 1 0 .366.602.602 0 0 1 0 .366.599.599 0 0 1 0 .365.602.602 0 0 1 0 .366.602.602 0 0 1 0 .366.602.602 0 0 1 0 .366.602.602 0 0 1 0 .366.599.599 0 0 1 0 .365.602.602 0 0 1 0 .366.602.602 0 0 1 0 .366.785.785 0 0 0 0 .097l-2.177.097a.756.756 0 0 0-.276.067l-21.328 9.832a.747.747 0 0 0-.418.844v.209a.76.76 0 0 0 0 .329v.037a.756.756 0 0 0 0 .328v.053a.756.756 0 0 0 0 .328v.037a.76.76 0 0 0 0 .329v.052a.76.76 0 0 0 0 .329v.037a.76.76 0 0 0 0 .329v.052a.756.756 0 0 0 0 .328v.038a.756.756 0 0 0 0 .328v.052a.76.76 0 0 0 0 .329v.037a.76.76 0 0 0 0 .329v.037a.756.756 0 0 0 0 .328v.038a.756.756 0 0 0 0 .328v.038a.756.756 0 0 0 0 .328v.037a.835.835 0 0 0 0 .187l-4.95-.963h-.141a.744.744 0 0 0-.343.082l-6.486 3.345a.731.731 0 0 0-.265.232.734.734 0 0 0-.13.328.57.57 0 0 1 0 .365c.04.119.04.248 0 .366.04.119.04.247 0 .366.04.119.04.247 0 .366.04.118.04.247 0 .366a.57.57 0 0 1 0 .365c.04.119.04.248 0 .366.04.119.04.248 0 .366.04.119.04.247 0 .366.04.119.04.247 0 .366.04.118.04.247 0 .366a.57.57 0 0 1 0 .365c.04.119.04.248 0 .366.04.119.04.247 0 .366.04.119.04.247 0 .366.04.118.04.247 0 .366a.57.57 0 0 1 0 .365c.04.119.04.248 0 .366.04.119.04.247 0 .366.04.119.04.247 0 .366.04.118.04.247 0 .366a.57.57 0 0 1 0 .365c.04.119.04.248 0 .366.04.119.04.247 0 .366.04.119.04.247 0 .366.04.118.04.247 0 .366.04.118.04.247 0 .366a.57.57 0 0 1 0 .365c.04.119.04.248 0 .366.04.119.04.247 0 .366.04.119.04.247 0 .366.04.118.04.247 0 .366a.57.57 0 0 1 0 .365c.04.119.04.248 0 .366.04.119.04.247 0 .366.04.119.04.247 0 .366.04.118.04.247 0 .366a.57.57 0 0 1 0 .365c.04.119.04.248 0 .366.04.119.04.248 0 .366.04.119.04.247 0 .366.04.118.04.247 0 .366.04.118.04.247 0 .366a.57.57 0 0 1 0 .365c.04.119.04.248 0 .366.04.119.04.247 0 .366.04.119.04.247 0 .366.04.118.04.247 0 .366a.57.57 0 0 1 0 .365c.04.119.04.248 0 .366.04.119.04.247 0 .366.04.119.04.247 0 .366.04.118.04.247 0 .366a.57.57 0 0 1 0 .365c.04.119.04.248 0 .366.04.119.04.248 0 .366.04.119.04.247 0 .366.04.119.04.247 0 .366.04.118.04.247 0 .366a.57.57 0 0 1 0 .365c.04.119.04.248 0 .366.04.119.04.247 0 .366.04.119.04.247 0 .366.04.118.04.247 0 .366a.57.57 0 0 1 0 .365c.04.119.04.248 0 .366.04.119.04.247 0 .366.04.119.04.247 0 .366.04.118.04.247 0 .366a.57.57 0 0 1 0 .365c.04.119.04.248 0 .366.04.119.04.248 0 .366.04.119.04.247 0 .366.04.119.04.247 0 .366.04.118.04.247 0 .366a.57.57 0 0 1 0 .365c.04.119.04.248 0 .366.04.119.04.247 0 .366.04.119.04.247 0 .366.04.118.04.247 0 .366a.57.57 0 0 1 0 .365c.04.119.04.248 0 .366.04.119.04.247 0 .366.04.119.04.247 0 .366.04.118.04.247 0 .366a.57.57 0 0 1 0 .365c.04.119.04.248 0 .366.04.119.04.248 0 .366.04.119.04.247 0 .366.04.119.04.247 0 .366.04.118.04.247 0 .366a.57.57 0 0 1 0 .365c.04.119.04.248 0 .366.04.119.04.247 0 .366a.756.756 0 0 0 .231.649l3.936 3.644.097 2.769-4.95 2.352a.748.748 0 0 0-.402.866.747.747 0 0 0 0 .358.752.752 0 0 0 0 .359.747.747 0 0 0 0 .358.747.747 0 0 0 0 .358.752.752 0 0 0 0 .359.747.747 0 0 0 0 .358.747.747 0 0 0 0 .358.752.752 0 0 0 0 .359.747.747 0 0 0 0 .358.717.717 0 0 0 0 .299l-3.728 1.351-4.257-1.471a.737.737 0 0 0-.685.038l-2.602 1.493a6.793 6.793 0 0 0-.336 2.299.755.755 0 0 0 0 .366.755.755 0 0 0 0 .366.755.755 0 0 0 0 .366.751.751 0 0 0 0 .365.755.755 0 0 0 0 .366.755.755 0 0 0 0 .366.755.755 0 0 0 0 .366.755.755 0 0 0 0 .366.755.755 0 0 0 0 .366.751.751 0 0 0 0 .365.755.755 0 0 0 0 .366.755.755 0 0 0 0 .366.755.755 0 0 0 0 .366.755.755 0 0 0 0 .366.751.751 0 0 0 0 .365.755.755 0 0 0 0 .366.755.755 0 0 0 0 .366.755.755 0 0 0 0 .366.755.755 0 0 0 0 .366v.059a.758.758 0 0 0-.074.321l-.626-.186a.748.748 0 0 0-.463 0l-3.138 1.112-9.922-1.456-6.419-4.352a.753.753 0 0 0-.298-.12l-7.276-1.216h-.119a.733.733 0 0 0-.306.067l-3.064 1.396a.747.747 0 0 0-.41.858.752.752 0 0 0 0 .359.747.747 0 0 0 0 .358.747.747 0 0 0 0 .358.752.752 0 0 0 0 .359.747.747 0 0 0 0 .358.747.747 0 0 0 0 .358.752.752 0 0 0 0 .359.747.747 0 0 0 0 .358.747.747 0 0 0 0 .358.752.752 0 0 0 0 .359.747.747 0 0 0 0 .358.752.752 0 0 0 0 .359.747.747 0 0 0 0 .358.747.747 0 0 0 0 .358.752.752 0 0 0 0 .359.747.747 0 0 0 0 .358.747.747 0 0 0 0 .358.752.752 0 0 0 0 .359.75.75 0 0 0 0 .291l-.887.463a.733.733 0 0 0-.373.448v2.239a.755.755 0 0 0 0 .366.755.755 0 0 0 0 .366.755.755 0 0 0 0 .366.751.751 0 0 0 0 .365.755.755 0 0 0 0 .366.755.755 0 0 0 0 .366.755.755 0 0 0 0 .366.755.755 0 0 0 0 .366.755.755 0 0 0 0 .366.751.751 0 0 0 0 .365.755.755 0 0 0 0 .366.755.755 0 0 0 0 .366.755.755 0 0 0 0 .366l-1.051-.075-8.104-3.972a.743.743 0 0 0-.328-.074h-.178l-8.581 2.105a.75.75 0 0 0-.561.636.745.745 0 0 0 .024.297.755.755 0 0 0 0 .366.755.755 0 0 0 0 .366.755.755 0 0 0 0 .366.755.755 0 0 0 0 .366.751.751 0 0 0 0 .365.755.755 0 0 0 0 .366.755.755 0 0 0 0 .366.755.755 0 0 0 0 .366l-12.106-2.023h-.12a.74.74 0 0 0-.606.279.75.75 0 0 0-.139.654.755.755 0 0 0 0 .366.751.751 0 0 0 0 .365.755.755 0 0 0 0 .366.755.755 0 0 0 0 .366.755.755 0 0 0 0 .366.755.755 0 0 0 0 .366.751.751 0 0 0 0 .365.755.755 0 0 0 0 .366.755.755 0 0 0 0 .366.755.755 0 0 0 0 .366.755.755 0 0 0 0 .366.755.755 0 0 0 0 .366.751.751 0 0 0 0 .365.755.755 0 0 0 0 .366.755.755 0 0 0 0 .366.755.755 0 0 0 0 .366 2.98 2.98 0 0 1 0 .612l-2.609 2.008-8.991-1.806h-.149a.742.742 0 0 0-.756.595.746.746 0 0 0 .011.345.732.732 0 0 0 0 .366.732.732 0 0 0 0 .366.732.732 0 0 0 0 .366.728.728 0 0 0 0 .365.732.732 0 0 0 0 .366.732.732 0 0 0 0 .366.732.732 0 0 0 0 .366.732.732 0 0 0 0 .366.732.732 0 0 0 0 .366.728.728 0 0 0 0 .365.732.732 0 0 0 0 .366.732.732 0 0 0 0 .366.732.732 0 0 0 0 .366.732.732 0 0 0 0 .366.728.728 0 0 0 0 .365.732.732 0 0 0 0 .366.732.732 0 0 0 0 .366.732.732 0 0 0 0 .366c.025.176.025.354 0 .53l-4.339-3.151a.746.746 0 0 0-.865 0l-2.125 1.494-7.052-.523a.745.745 0 0 0-.745.747l-.045 4.516-3.347 1.239-7.217-3.284a.75.75 0 0 0-.305-.068h-.157l-4.57.986-4.733-2.546a.751.751 0 0 0-.552-.06l-6.956 1.934a.746.746 0 0 0-.484.411.746.746 0 0 0 0 .485.755.755 0 0 0 0 .366.751.751 0 0 0 0 .365.755.755 0 0 0 0 .366.755.755 0 0 0 0 .366.755.755 0 0 0 0 .366.755.755 0 0 0 0 .366c.016.216.016.433 0 .649l-2.647 1.366-13.91.53a.751.751 0 0 0-.366.112l-7.059 4.368-6.59-.814h-.09a.735.735 0 0 0-.358.09l-7.045 3.874-10.802-1.314h-.096a.745.745 0 0 0-.388.112l-7.343 4.48-4.063.142a.742.742 0 0 0-.7.589l-1.141 5.458a.75.75 0 0 0 0 .194l-.231-.12a.74.74 0 0 0-.299-.082l-10.578-.605a.747.747 0 0 0-.567.262l-3.846 4.539-8.864-.642h-.097a.746.746 0 0 0-.746.582l-1.252 5.457-27.143 11.624a.75.75 0 0 0-.418.889.748.748 0 0 0 0 .366.744.744 0 0 0 0 .365.748.748 0 0 0 0 .366.748.748 0 0 0 0 .366.748.748 0 0 0 0 .366.748.748 0 0 0 0 .366.744.744 0 0 0 0 .365.748.748 0 0 0 0 .366.748.748 0 0 0 0 .366.748.748 0 0 0 0 .366.748.748 0 0 0 0 .366.744.744 0 0 0 0 .365.748.748 0 0 0 0 .366.748.748 0 0 0 0 .366.748.748 0 0 0 0 .366.748.748 0 0 0 0 .366.748.748 0 0 0 0 .366.744.744 0 0 0 0 .365.748.748 0 0 0 0 .366.748.748 0 0 0 0 .366.748.748 0 0 0 0 .366.748.748 0 0 0 0 .366.744.744 0 0 0 0 .365.748.748 0 0 0 0 .366.748.748 0 0 0 0 .366.748.748 0 0 0 0 .366.748.748 0 0 0 0 .366.744.744 0 0 0 0 .365.748.748 0 0 0 0 .366.748.748 0 0 0 0 .366.748.748 0 0 0 0 .366.748.748 0 0 0 0 .366.748.748 0 0 0 0 .366.744.744 0 0 0 0 .365.748.748 0 0 0 0 .366.748.748 0 0 0 0 .366.748.748 0 0 0 0 .366.748.748 0 0 0 0 .366.744.744 0 0 0 0 .365.748.748 0 0 0 0 .366.748.748 0 0 0 0 .366.748.748 0 0 0 0 .366.748.748 0 0 0 0 .366.744.744 0 0 0 0 .365.748.748 0 0 0 0 .366.748.748 0 0 0 0 .366.748.748 0 0 0 0 .366.748.748 0 0 0 0 .366.748.748 0 0 0 0 .366.744.744 0 0 0 0 .365.767.767 0 0 0 0 .105l-6.135.328a.756.756 0 0 0-.343.105l-8.49 5.218a2.06 2.06 0 0 0-.366 1.031.655.655 0 0 1 0 .365.658.658 0 0 1 0 .366.658.658 0 0 1 0 .366.658.658 0 0 1 0 .366.658.658 0 0 1 0 .366.655.655 0 0 1 0 .365.658.658 0 0 1 0 .366.658.658 0 0 1 0 .366.658.658 0 0 1 0 .366.658.658 0 0 1 0 .366.655.655 0 0 1 0 .365.658.658 0 0 1 0 .366.658.658 0 0 1 0 .366.658.658 0 0 1 0 .366.658.658 0 0 1 0 .366.658.658 0 0 1 0 .366.655.655 0 0 1 0 .365.658.658 0 0 1 0 .366.658.658 0 0 1 0 .366.658.658 0 0 1 0 .366.658.658 0 0 1 0 .366.655.655 0 0 1 0 .365.658.658 0 0 1 0 .366.658.658 0 0 1 0 .366.658.658 0 0 1 0 .366.658.658 0 0 1 0 .366.655.655 0 0 1 0 .365.658.658 0 0 1 0 .366.658.658 0 0 1 0 .366.658.658 0 0 1 0 .366.658.658 0 0 1 0 .366.658.658 0 0 1 0 .366.655.655 0 0 1 0 .365.658.658 0 0 1 0 .366.658.658 0 0 1 0 .366.658.658 0 0 1 0 .366.658.658 0 0 1 0 .366.655.655 0 0 1 0 .365.658.658 0 0 1 0 .366.658.658 0 0 1 0 .366.658.658 0 0 1 0 .366.658.658 0 0 1 0 .366.655.655 0 0 1 0 .365.658.658 0 0 1 0 .366.658.658 0 0 1 0 .366.658.658 0 0 1 0 .366.658.658 0 0 1 0 .366.658.658 0 0 1 0 .366.655.655 0 0 1 0 .365.658.658 0 0 1 0 .366.658.658 0 0 1 0 .366.658.658 0 0 1 0 .366.658.658 0 0 1 0 .366.655.655 0 0 1 0 .365.658.658 0 0 1 0 .366.658.658 0 0 1 0 .366.658.658 0 0 1 0 .366.658.658 0 0 1 0 .366.655.655 0 0 1 0 .365.658.658 0 0 1 0 .366.658.658 0 0 1 0 .366.658.658 0 0 1 0 .366.658.658 0 0 1 0 .366.658.658 0 0 1 0 .366.655.655 0 0 1 0 .365.658.658 0 0 1 0 .366.658.658 0 0 1 0 .366.658.658 0 0 1 0 .366.658.658 0 0 1 0 .366.655.655 0 0 1 0 .365.658.658 0 0 1 0 .366.658.658 0 0 1 0 .366.658.658 0 0 1 0 .366.658.658 0 0 1 0 .366.655.655 0 0 1 0 .365.658.658 0 0 1 0 .366.658.658 0 0 1 0 .366.658.658 0 0 1 0 .366.658.658 0 0 1 0 .366.658.658 0 0 1 0 .366.655.655 0 0 1 0 .365.658.658 0 0 1 0 .366.658.658 0 0 1 0 .366.658.658 0 0 1 0 .366.658.658 0 0 1 0 .366.655.655 0 0 1 0 .365.658.658 0 0 1 0 .366.658.658 0 0 1 0 .366.658.658 0 0 1 0 .366.658.658 0 0 1 0 .366.658.658 0 0 1 0 .366.655.655 0 0 1 0 .365.658.658 0 0 1 0 .366.748.748 0 0 0 .402.642l3.586 2.232a.756.756 0 0 0 .201.068l16.2 3.105 2.423 5.786a.745.745 0 0 0 .648.455l22.85 1.27 14.752 5.741a.77.77 0 0 0 .269.052l9.527-.075a.751.751 0 0 0 0 .217v.044a.75.75 0 0 0 0 .322v.044a.746.746 0 0 0 0 .321v.045a.746.746 0 0 0 0 .321v.045a.746.746 0 0 0 0 .321v.045a.746.746 0 0 0 0 .321v.045a.746.746 0 0 0 0 .321v.044a.746.746 0 0 0 0 .321v.045a.746.746 0 0 0 0 .321v.045a.746.746 0 0 0 0 .321v.045a.746.746 0 0 0 0 .321v.045a.746.746 0 0 0 0 .321v.044a.746.746 0 0 0 0 .321v.045a.746.746 0 0 0 0 .321.746.746 0 0 0 .604.59l13.732 2.374h1.319a.755.755 0 0 0 0 .314.744.744 0 0 0 0 .351.74.74 0 0 0 0 .35.744.744 0 0 0 0 .351.744.744 0 0 0 0 .351.744.744 0 0 0 0 .351.744.744 0 0 0 0 .351.744.744 0 0 0 0 .351.744.744 0 0 0 0 .351.744.744 0 0 0 0 .351.74.74 0 0 0 0 .35.744.744 0 0 0 0 .351.744.744 0 0 0 0 .351.744.744 0 0 0 0 .351.744.744 0 0 0 0 .351.744.744 0 0 0 0 .351.744.744 0 0 0 0 .351.744.744 0 0 0 0 .351.744.744 0 0 0 0 .351.74.74 0 0 0 0 .35.744.744 0 0 0 0 .351.744.744 0 0 0 0 .351.744.744 0 0 0 0 .351.744.744 0 0 0 0 .351.744.744 0 0 0 0 .351.744.744 0 0 0 0 .351.744.744 0 0 0 0 .351.74.74 0 0 0 0 .35.744.744 0 0 0 0 .351.744.744 0 0 0 0 .351.744.744 0 0 0 0 .351.744.744 0 0 0 0 .351.744.744 0 0 0 0 .351.744.744 0 0 0 0 .351.744.744 0 0 0 0 .351.744.744 0 0 0 0 .351.74.74 0 0 0 0 .35.744.744 0 0 0 0 .351.744.744 0 0 0 0 .351.744.744 0 0 0 0 .351.744.744 0 0 0 0 .351.744.744 0 0 0 0 .351.744.744 0 0 0 0 .351.756.756 0 0 0 .09.567l2.095 3.389v.09a.701.701 0 0 0 0 .224v.142a.701.701 0 0 0 0 .224v.142a.701.701 0 0 0 0 .224v.141a.701.701 0 0 0 0 .224v.142a.701.701 0 0 0 0 .224v.142a.701.701 0 0 0 0 .224v.142a.701.701 0 0 0 0 .224v.142a.701.701 0 0 0 0 .224v.142a.695.695 0 0 0 0 .223v.142a.701.701 0 0 0 0 .224v.142a.701.701 0 0 0 0 .224v.142a.701.701 0 0 0 0 .224v.142a.701.701 0 0 0 0 .224v.142a.701.701 0 0 0 0 .224v.141a.701.701 0 0 0 0 .224v.142a.701.701 0 0 0 0 .224v.142a.701.701 0 0 0 0 .224v.142a.701.701 0 0 0 0 .224v.142a.701.701 0 0 0 0 .224v.141a.701.701 0 0 0 0 .224v.142a.701.701 0 0 0 0 .224v.142a.701.701 0 0 0 0 .224v.142a.701.701 0 0 0 0 .224v.142a.701.701 0 0 0 0 .224v.142a.695.695 0 0 0 0 .223v.142a.701.701 0 0 0 0 .224v.142a.701.701 0 0 0 0 .224v.142a.701.701 0 0 0 0 .224v.142a.701.701 0 0 0 0 .224v.142a.701.701 0 0 0 0 .224v.141a.701.701 0 0 0 0 .224v.142a.701.701 0 0 0 0 .224v.142a.701.701 0 0 0 0 .224v.142a.701.701 0 0 0 0 .224v.142a.701.701 0 0 0 0 .224v.141a.701.701 0 0 0 0 .224v.142a.701.701 0 0 0 0 .224v.142a.701.701 0 0 0 0 .224v.142a.701.701 0 0 0 0 .224v.142a.701.701 0 0 0 0 .224v.142a.695.695 0 0 0 0 .223v.142a.717.717 0 0 0 0 .299l2.594 9.056.156 13.161a.756.756 0 0 0 .075.321l3.466 7.138a.753.753 0 0 0 .433.38l5.964 2.038h.171l10.69 1.023 4.384 4.927v.045a.689.689 0 0 1 0 .366.689.689 0 0 1 0 .366.689.689 0 0 1 0 .366.689.689 0 0 1 0 .366.685.685 0 0 1 0 .365.689.689 0 0 1 0 .366.689.689 0 0 1 0 .366.689.689 0 0 1 0 .366.689.689 0 0 1 0 .366.685.685 0 0 1 0 .365.689.689 0 0 1 0 .366.689.689 0 0 1 0 .366.689.689 0 0 1 0 .366.689.689 0 0 1 0 .366.685.685 0 0 1 0 .365.689.689 0 0 1 0 .366.689.689 0 0 1 0 .366.689.689 0 0 1 0 .366.689.689 0 0 1 0 .366.689.689 0 0 1 0 .366.685.685 0 0 1 0 .365.754.754 0 0 0 .086.361.754.754 0 0 0 .249.274l4.809 4.233a.726.726 0 0 0 0 .246v.127a.732.732 0 0 0 0 .247v.126a.732.732 0 0 0 0 .247v.127a.726.726 0 0 0 0 .246v.127a.726.726 0 0 0 0 .246v.127a.732.732 0 0 0 0 .247v.127a.726.726 0 0 0 0 .246v.127a.726.726 0 0 0 0 .246v.127a.726.726 0 0 0 0 .246v.127a.732.732 0 0 0 0 .247v.127a.726.726 0 0 0 0 .246v.127a.726.726 0 0 0 0 .246v.127a.732.732 0 0 0 0 .247v.126a.732.732 0 0 0 0 .247v.127a.726.726 0 0 0 0 .246v.127a.726.726 0 0 0 0 .246v.127a.732.732 0 0 0 0 .247v.127a.726.726 0 0 0 0 .246v.127a.726.726 0 0 0 0 .246v.127a.747.747 0 0 0 .365.747l7.134 4.203a.763.763 0 0 0 0 .261v.052a.755.755 0 0 0 0 .321v.053a.755.755 0 0 0 0 .321v.052a.755.755 0 0 0 0 .321v.052a.755.755 0 0 0 0 .321v.053a.755.755 0 0 0 0 .321v.052a.755.755 0 0 0 0 .321v.052a.755.755 0 0 0 0 .321v.052a.755.755 0 0 0 0 .321v.053a.755.755 0 0 0 0 .321v.052a.755.755 0 0 0 0 .321v.052a.755.755 0 0 0 0 .321v.052a.755.755 0 0 0 0 .321v.053a.755.755 0 0 0 0 .321v.052a.755.755 0 0 0 0 .321v.052a.755.755 0 0 0 0 .321v.053a.733.733 0 0 0 .012.302.728.728 0 0 0 .13.272l2.408 3.166a.748.748 0 0 0 .328.246l6.985 2.71a.747.747 0 0 0 .574 0l4.384-1.986 14.574 3.905a.787.787 0 0 0 .194 0 .745.745 0 0 0 .298-.06l6.933-2.986 12.539 2.979h.179a.742.742 0 0 0 .596-.299l2.982-3.927 12.405 2.523h.149a.732.732 0 0 0 .343-.082l5.062-2.62a.75.75 0 0 0 .373-.851v-2.21a92.753 92.753 0 0 1 0-.746 93.002 93.002 0 0 1 0-.747 93.002 93.002 0 0 1 0-.747 2.361 2.361 0 0 1 0-.582l17.645.045a.748.748 0 0 0 .746-.567l.693-2.77 17.146-1.546a.74.74 0 0 0 .649-.53l1.192-3.979 15.976-.164a.747.747 0 0 0 .746-.597l1.342-6.533 8.297-2.986a.739.739 0 0 0 .484-.59l.343.262a.749.749 0 0 0 .395.149l22.626 1.553a.748.748 0 0 0 .663-.403.742.742 0 0 0 .075-.306l.276.328a.743.743 0 0 0 .917.187l4.786-2.471a.751.751 0 0 0 .402-.657l.067-9.049 17.363-8.958a.747.747 0 0 0 .387-.822v-.044a.725.725 0 0 0 0-.321v-.045a.725.725 0 0 0 0-.321v-.045a.725.725 0 0 0 0-.321v-.045a.725.725 0 0 0 0-.321v-.045a.725.725 0 0 0 0-.321v-.044a.725.725 0 0 0 0-.321v-.045a.725.725 0 0 0 0-.321v-.045a.75.75 0 0 0 0-.134l11.227-4.801a.745.745 0 0 0 .418-.448c.002-1.368.002-2.737 0-4.106a.755.755 0 0 0 0-.366.751.751 0 0 0 0-.365.755.755 0 0 0 0-.366.755.755 0 0 0 0-.366.755.755 0 0 0 0-.366.755.755 0 0 0 0-.366.751.751 0 0 0 0-.365.755.755 0 0 0 0-.366.755.755 0 0 0 0-.366.755.755 0 0 0 0-.366.755.755 0 0 0 0-.366.755.755 0 0 0 0-.366.751.751 0 0 0 0-.365.755.755 0 0 0 0-.366.755.755 0 0 0 0-.366.755.755 0 0 0 0-.366.755.755 0 0 0 0-.366.751.751 0 0 0 0-.365.755.755 0 0 0 0-.366.755.755 0 0 0 0-.366.755.755 0 0 0 0-.366.755.755 0 0 0 0-.366.748.748 0 0 0 0-.283l8.126-5.062a.75.75 0 0 0 .32-.836.748.748 0 0 0 0-.067c.02-.099.02-.2 0-.299a.749.749 0 0 0 0-.067c.02-.099.02-.2 0-.299a.749.749 0 0 0 0-.067c.02-.098.02-.2 0-.299a.748.748 0 0 0 0-.067c.02-.098.02-.2 0-.298a.771.771 0 0 0 0-.068c.02-.098.02-.2 0-.298a.748.748 0 0 0 0-.067.753.753 0 0 0 0-.299.749.749 0 0 0 0-.067c.02-.099.02-.2 0-.299a.749.749 0 0 0 0-.067c.02-.099.02-.2 0-.299a.748.748 0 0 0 0-.067c.02-.098.02-.2 0-.298a.771.771 0 0 0 0-.068c.02-.098.02-.2 0-.298a.748.748 0 0 0 0-.067.753.753 0 0 0 0-.299.749.749 0 0 0 0-.067c.02-.099.02-.2 0-.299a.749.749 0 0 0 0-.067c.02-.099.02-.2 0-.299a.748.748 0 0 0 0-.067c.02-.098.02-.2 0-.298a.771.771 0 0 0 0-.068c.02-.098.02-.2 0-.298a.771.771 0 0 0 0-.068c.02-.098.02-.2 0-.298a.748.748 0 0 0 0-.067c.02-.099.02-.2 0-.299a.749.749 0 0 0 0-.067c.02-.099.02-.2 0-.299l4.518-.53a.743.743 0 0 0 .656-.746V369.463l7.827-1.612a.75.75 0 0 0 .447-.287.75.75 0 0 0 .142-.512v-.187a.67.67 0 0 0 0-.179v-.186a.678.678 0 0 0 0-.18v-.186a.67.67 0 0 0 0-.179v-.187a.67.67 0 0 0 0-.179v-.187a.67.67 0 0 0 0-.179v-.187a.67.67 0 0 0 0-.179v-.186a.678.678 0 0 0 0-.18v-.186a.67.67 0 0 0 0-.179v-.187a.67.67 0 0 0 0-.179v-.187a.602.602 0 0 0 0-.104l4.294-.747a.748.748 0 0 0 .612-.657l.402-3.845a.752.752 0 0 0 .201 0l7.209-.41a.76.76 0 0 0 .366-.12l4.219-2.755 12.517.822a.754.754 0 0 0 .313-.068l4.853-2.239 3.794 2.098a.747.747 0 0 0 .649 0l8.789-3.733 12.114 1.493h.09a.747.747 0 0 0 .701-.5l1.17-3.322 9.788-3.315 7.298 2.068h.112l.448.052h.089a.743.743 0 0 0 .671-.418l.089-.187a.755.755 0 0 0 .082.396.748.748 0 0 0 .567.388l8.752 1.053h.089a.747.747 0 0 0 .746-.747V345.126l7.157.306 5.427 3.12a.75.75 0 0 0 .194.075l6.165 1.545 3.22 4.427 2.982 4.696a.75.75 0 0 0 .626.344h.105l9.915-1.434 13.538 2.748h.149c.391-1.349.641-2.735.745-4.136l3.862-.262 1.916 1.971.082.068 6.016 4.643a.74.74 0 0 0 .35.149l5.606.747 2.326 3.516a.734.734 0 0 0 .619.336h.373a.601.601 0 0 0 0 .12v.201a.75.75 0 0 0 0 .164v.202a.75.75 0 0 0 0 .164v.202a.75.75 0 0 0 0 .164v.202a.75.75 0 0 0 0 .164v.202a.75.75 0 0 0 0 .164v.201a.759.759 0 0 0 0 .165v.201a.75.75 0 0 0 0 .164v.202a.75.75 0 0 0 0 .164v.202a.75.75 0 0 0 0 .164v.202a.75.75 0 0 0 0 .164v.201a.759.759 0 0 0 0 .165v.201a.75.75 0 0 0 0 .164v.202a.75.75 0 0 0 0 .164v.202a.75.75 0 0 0 0 .164v.202a.75.75 0 0 0 0 .164v.201a.759.759 0 0 0 0 .165v.201a.75.75 0 0 0 0 .164v.202a.75.75 0 0 0 0 .164v.202a.75.75 0 0 0 0 .164v.202a.75.75 0 0 0 0 .164v.202a.75.75 0 0 0 0 .164v.201a.759.759 0 0 0 0 .165v.201a.75.75 0 0 0 0 .164v.202a.75.75 0 0 0 0 .164v.202a.75.75 0 0 0 0 .164v.202a.75.75 0 0 0 0 .164v.201a.759.759 0 0 0 0 .165v.201a.75.75 0 0 0 0 .164v.202a.75.75 0 0 0 0 .164v.202a.75.75 0 0 0 0 .164v.202a.75.75 0 0 0 0 .164v.201a.759.759 0 0 0 0 .165v.201a.75.75 0 0 0 0 .164v.202a.75.75 0 0 0 0 .164v.202a.75.75 0 0 0 0 .164v.202a.75.75 0 0 0 0 .164v.202a.75.75 0 0 0 0 .164v.201a.759.759 0 0 0 0 .165v.201a.75.75 0 0 0 0 .164v.202a.75.75 0 0 0 0 .164v.202a.75.75 0 0 0 0 .164v.202a.75.75 0 0 0 0 .164v.201a.759.759 0 0 0 0 .165v.201a.75.75 0 0 0 0 .164v.202a.75.75 0 0 0 0 .164v.202a.75.75 0 0 0 0 .164v.202a.75.75 0 0 0 0 .164v.201a.759.759 0 0 0 0 .165v.201a.759.759 0 0 0 0 .165v.201a.75.75 0 0 0 0 .164v.202a.75.75 0 0 0 0 .164v.202a.75.75 0 0 0 0 .164v.202a.75.75 0 0 0 0 .164v.201a.759.759 0 0 0 0 .165v.201a.75.75 0 0 0 0 .164v.202a.75.75 0 0 0 0 .164v.202a.75.75 0 0 0 0 .164v.202a.75.75 0 0 0 0 .164v.201a.759.759 0 0 0 0 .165v.201a.75.75 0 0 0 0 .164v.202a.75.75 0 0 0 0 .164v.202a.75.75 0 0 0 0 .164v.202a.75.75 0 0 0 0 .164v.201a.759.759 0 0 0 0 .165v.201a.759.759 0 0 0 0 .165v.201a.75.75 0 0 0 0 .164v.202a.75.75 0 0 0 0 .164v.202a.75.75 0 0 0 0 .164v.201a.759.759 0 0 0 0 .165v.201a.759.759 0 0 0 0 .165v.201a.741.741 0 0 0 .313.65l7.455 5.285a.74.74 0 0 0 .432.135l7.813-.538.328 2.65v.068a.75.75 0 0 0 0 .134c.023.195.011.392-.038.582a.416.416 0 0 1 0 .366.416.416 0 0 1 0 .366.416.416 0 0 1 0 .366.413.413 0 0 1 0 .365.419.419 0 0 1 0 .366.416.416 0 0 1 0 .366.416.416 0 0 1 0 .366.416.416 0 0 1 0 .366.413.413 0 0 1 0 .366.412.412 0 0 1 0 .365.419.419 0 0 1 0 .366.416.416 0 0 1 0 .366.416.416 0 0 1 0 .366.413.413 0 0 1 0 .366.413.413 0 0 1 0 .365.419.419 0 0 1 0 .366.416.416 0 0 1 0 .366.416.416 0 0 1 0 .366.416.416 0 0 1 0 .366.413.413 0 0 1 0 .366.412.412 0 0 1 0 .365.416.416 0 0 1 0 .366.748.748 0 0 0 .306.575l1.305.941v.403a.732.732 0 0 0 0 .366.728.728 0 0 0 0 .365.732.732 0 0 0 0 .366.732.732 0 0 0 0 .366.732.732 0 0 0 0 .366.732.732 0 0 0 0 .366.728.728 0 0 0 0 .365.732.732 0 0 0 0 .366.732.732 0 0 0 0 .366.732.732 0 0 0 0 .366.732.732 0 0 0 0 .366.732.732 0 0 0 0 .366.728.728 0 0 0 0 .365.732.732 0 0 0 0 .366.732.732 0 0 0 0 .366.732.732 0 0 0 0 .366.732.732 0 0 0 0 .366.728.728 0 0 0 0 .365.732.732 0 0 0 0 .366.732.732 0 0 0 0 .366.732.732 0 0 0 0 .366.732.732 0 0 0 0 .366.732.732 0 0 0 0 .366.728.728 0 0 0 0 .365.732.732 0 0 0 0 .366.732.732 0 0 0 0 .366.732.732 0 0 0 0 .366.732.732 0 0 0 0 .366.728.728 0 0 0 0 .365.732.732 0 0 0 0 .366.732.732 0 0 0 0 .366.732.732 0 0 0 0 .366.732.732 0 0 0 0 .366.728.728 0 0 0 0 .365.732.732 0 0 0 0 .366.732.732 0 0 0 0 .366.732.732 0 0 0 0 .366.732.732 0 0 0 0 .366.728.728 0 0 0 0 .365.732.732 0 0 0 0 .366.732.732 0 0 0 0 .366.732.732 0 0 0 0 .366.732.732 0 0 0 0 .366.732.732 0 0 0 0 .366.728.728 0 0 0 0 .365.732.732 0 0 0 0 .366.732.732 0 0 0 0 .366.732.732 0 0 0 0 .366.732.732 0 0 0 0 .366.728.728 0 0 0 0 .365.732.732 0 0 0 0 .366.732.732 0 0 0 0 .366.732.732 0 0 0 0 .366.732.732 0 0 0 0 .366.732.732 0 0 0 0 .366.728.728 0 0 0 0 .365 9.389 9.389 0 0 0 0 .822.738.738 0 0 0 .626.477l5.74.523 6.046 1.971a.746.746 0 0 0 .231 0h.142l10.824-2.091h.105l8.833-3.038a.746.746 0 0 0 .478-.888v-.06a.751.751 0 0 0 0-.306v-.06a.751.751 0 0 0 0-.306v-.06a.751.751 0 0 0 0-.306v-.06a.751.751 0 0 0 0-.306v-.059a.756.756 0 0 0 0-.307v-.059a.751.751 0 0 0 0-.306v-.06a.751.751 0 0 0 0-.306v-.06a.751.751 0 0 0 0-.306v-.06a.751.751 0 0 0 0-.306v-.059a.756.756 0 0 0 0-.307v-.059a.751.751 0 0 0 0-.306v-.06a1.121 1.121 0 0 0 0-.082l2.713.836c.072.01.145.01.216 0a.747.747 0 0 0 .701-.485l3.877-10.236 8.297-4.285 9.035-1.291 7.328 3.06a.743.743 0 0 0 .82-.171 2.19 2.19 0 0 0 .179-1.068.732.732 0 0 0 0-.366.728.728 0 0 0 0-.365.732.732 0 0 0 0-.366.732.732 0 0 0 0-.366.732.732 0 0 0 0-.366.732.732 0 0 0 0-.366.728.728 0 0 0 0-.365.732.732 0 0 0 0-.366.732.732 0 0 0 0-.366.732.732 0 0 0 0-.366.732.732 0 0 0 0-.366.732.732 0 0 0 0-.366.728.728 0 0 0 0-.365.732.732 0 0 0 0-.366.732.732 0 0 0 0-.366.732.732 0 0 0 0-.366.732.732 0 0 0 0-.366.728.728 0 0 0 0-.365.732.732 0 0 0 0-.366.732.732 0 0 0 0-.366.732.732 0 0 0 0-.366.732.732 0 0 0 0-.366.728.728 0 0 0 0-.365.732.732 0 0 0 0-.366.732.732 0 0 0 0-.366.732.732 0 0 0 0-.366.732.732 0 0 0 0-.366.732.732 0 0 0 0-.366.728.728 0 0 0 0-.365.732.732 0 0 0 0-.366.732.732 0 0 0 0-.366.732.732 0 0 0 0-.366.732.732 0 0 0 0-.366.728.728 0 0 0 0-.365.732.732 0 0 0 0-.366.732.732 0 0 0 0-.366.732.732 0 0 0 0-.366.732.732 0 0 0 0-.366.728.728 0 0 0 0-.365.732.732 0 0 0 0-.366.732.732 0 0 0 0-.366.732.732 0 0 0 0-.366.732.732 0 0 0 0-.366.732.732 0 0 0 0-.366.728.728 0 0 0 0-.365.732.732 0 0 0 0-.366.732.732 0 0 0 0-.366.732.732 0 0 0 0-.366.732.732 0 0 0 0-.366.728.728 0 0 0 0-.365.732.732 0 0 0 0-.366.732.732 0 0 0 0-.366.732.732 0 0 0 0-.366.732.732 0 0 0 0-.366.732.732 0 0 0 0-.366.728.728 0 0 0 0-.365.732.732 0 0 0 0-.366.732.732 0 0 0 0-.366.732.732 0 0 0 0-.366.732.732 0 0 0 0-.366.728.728 0 0 0 0-.365.732.732 0 0 0 0-.366.732.732 0 0 0 0-.366.732.732 0 0 0 0-.366.732.732 0 0 0 0-.366.728.728 0 0 0 0-.365.732.732 0 0 0 0-.366.732.732 0 0 0 0-.366.732.732 0 0 0 0-.366.732.732 0 0 0 0-.366.728.728 0 0 0 0-.365.732.732 0 0 0 0-.366.732.732 0 0 0 0-.366.732.732 0 0 0 0-.366.732.732 0 0 0 0-.366.732.732 0 0 0 0-.366.728.728 0 0 0 0-.365.732.732 0 0 0 0-.366.732.732 0 0 0 0-.366.732.732 0 0 0 0-.366.732.732 0 0 0 0-.366.728.728 0 0 0 0-.365.732.732 0 0 0 0-.366.732.732 0 0 0 0-.366.732.732 0 0 0 0-.366.732.732 0 0 0 0-.366.728.728 0 0 0 0-.365.732.732 0 0 0 0-.366.732.732 0 0 0 0-.366.732.732 0 0 0 0-.366.732.732 0 0 0 0-.366 5.69 5.69 0 0 0 0-.866l-1.424-3.105a.743.743 0 0 0-.357-.366l-5.964-2.83a.74.74 0 0 0-.321-.067l-1.349.105a.787.787 0 0 0 0-.194.755.755 0 0 0 0-.366.755.755 0 0 0 0-.366.755.755 0 0 0 0-.366.755.755 0 0 0 0-.366.755.755 0 0 0 0-.366.751.751 0 0 0 0-.365.755.755 0 0 0 0-.366.755.755 0 0 0 0-.366.755.755 0 0 0 0-.366.755.755 0 0 0 0-.366.751.751 0 0 0 0-.365.755.755 0 0 0 0-.366.755.755 0 0 0 0-.366.755.755 0 0 0 0-.366.755.755 0 0 0 0-.366.751.751 0 0 0 0-.365.755.755 0 0 0 0-.366.755.755 0 0 0 0-.366.755.755 0 0 0 0-.366.755.755 0 0 0 0-.366.755.755 0 0 0 0-.366.751.751 0 0 0 0-.365.755.755 0 0 0 0-.366.755.755 0 0 0 0-.366.755.755 0 0 0 0-.366.755.755 0 0 0 0-.366.751.751 0 0 0 0-.365.755.755 0 0 0 0-.366.755.755 0 0 0 0-.366.755.755 0 0 0 0-.366.755.755 0 0 0 0-.366.751.751 0 0 0 0-.365.755.755 0 0 0 0-.366.755.755 0 0 0 0-.366.755.755 0 0 0 0-.366.755.755 0 0 0 0-.366.755.755 0 0 0 0-.366.751.751 0 0 0 0-.365.755.755 0 0 0 0-.366.755.755 0 0 0 0-.366.755.755 0 0 0 0-.366.755.755 0 0 0 0-.366.751.751 0 0 0 0-.365.755.755 0 0 0 0-.366.755.755 0 0 0 0-.366.755.755 0 0 0 0-.366.755.755 0 0 0 0-.366.751.751 0 0 0 0-.365.755.755 0 0 0 0-.366.755.755 0 0 0 0-.366.755.755 0 0 0 0-.366.755.755 0 0 0 0-.366.755.755 0 0 0 0-.366.751.751 0 0 0 0-.365l-1.118-4.345a.75.75 0 0 0 0-.291v-.404a.751.751 0 0 0 0-.306v-.067a.751.751 0 0 0 0-.306v-.067a.751.751 0 0 0 0-.306v-.067a.756.756 0 0 0 0-.307v-.067a.781.781 0 0 0 0-.216l1.163-.605 4.472-.231a.747.747 0 0 0 .701-.642l.872-6.07a.716.716 0 0 0 0-.269v-.104a.716.716 0 0 0 0-.269v-.104a.716.716 0 0 0 0-.269v-.105a.716.716 0 0 0 0-.269v-.104a.716.716 0 0 0 0-.269v-.104a.716.716 0 0 0 0-.269v-.105a.698.698 0 0 0 0-.112l1.298-.141 2.318 1.866 2.796 2.09a.74.74 0 0 0 .916 0l1.089-.888a.747.747 0 0 0 .268-.657v-.134a.752.752 0 0 0 0-.232v-.134a.752.752 0 0 0 0-.232v-.134a.746.746 0 0 0 0-.231v-.135a.746.746 0 0 0 0-.231v-.135a.746.746 0 0 0 0-.231l1.737-.269c.01.231.01.463 0 .694a.755.755 0 0 0 0 .366.755.755 0 0 0 0 .366.755.755 0 0 0 0 .366.755.755 0 0 0 0 .366.751.751 0 0 0 0 .365.755.755 0 0 0 0 .366.755.755 0 0 0 0 .366.755.755 0 0 0 0 .366.755.755 0 0 0 0 .366.755.755 0 0 0 0 .366.751.751 0 0 0 0 .365.755.755 0 0 0 0 .366 8.816 8.816 0 0 0 0 .829.745.745 0 0 0 .634.47l8.2.665h.015a.753.753 0 0 0 .626-.344l2.461-3.83 6.403-1.157a.752.752 0 0 0 0 .232v.142a.746.746 0 0 0 0 .231v.142a.746.746 0 0 0 0 .231v.142a.746.746 0 0 0 0 .231v.142a.752.752 0 0 0 0 .232v.142a.746.746 0 0 0 0 .231v.142a.746.746 0 0 0 0 .231v.142a.752.752 0 0 0 0 .232v.141a.752.752 0 0 0 0 .232v.142a.746.746 0 0 0 0 .231v.142a.746.746 0 0 0 0 .231v.142a.752.752 0 0 0 0 .232v.142a.746.746 0 0 0 0 .231v.142a.746.746 0 0 0 0 .231v.142a.752.752 0 0 0 0 .232v.141a.752.752 0 0 0 0 .232v.142a.746.746 0 0 0 0 .231v.142a.75.75 0 0 0 .53.799l2.236.672c.072.01.144.01.216 0a.744.744 0 0 0 .276-.053l5.658-2.239.134-.067 4.682-3.114 6.821.53a.739.739 0 0 0 .403-.119l2.766-1.754 7.328 1.694h.164a.735.735 0 0 0 .387-.112l4.95-3.038a.76.76 0 0 0 .194-.172l3.713-4.584 6.314-2.747h.067l6.627-3.733a.748.748 0 0 0 .366-.746v-.075c.02-.099.02-.2 0-.299v-.074c.02-.099.02-.2 0-.299v-.075c.02-.098.02-.2 0-.298v-.075c.02-.098.02-.2 0-.299v-.074a.753.753 0 0 0 0-.276l2.728.455h.127a.754.754 0 0 0 .543-.234.748.748 0 0 0 .202-.557v-.269a.614.614 0 0 0 0-.105v-.268a.614.614 0 0 0 0-.105v-.269a.602.602 0 0 0 0-.104v-.269a.602.602 0 0 0 0-.104v-.269a.614.614 0 0 0 0-.105v-.268a.614.614 0 0 0 0-.105v-.269a.602.602 0 0 0 0-.104v-.269a.614.614 0 0 0 0-.105v-.268a.614.614 0 0 0 0-.105v-.269a.602.602 0 0 0 0-.104v-.142l5.569 2.284a.743.743 0 0 0 .567 0l3.146-1.276-.187.791a.762.762 0 0 0 0 .336.762.762 0 0 0 0 .336.762.762 0 0 0 0 .336.762.762 0 0 0 0 .336.762.762 0 0 0 0 .336.762.762 0 0 0 0 .336.762.762 0 0 0 0 .336.762.762 0 0 0 0 .336.762.762 0 0 0 0 .336.762.762 0 0 0 0 .336.762.762 0 0 0 0 .336.762.762 0 0 0 0 .336.762.762 0 0 0 0 .336.762.762 0 0 0 0 .336.758.758 0 0 0 0 .335.762.762 0 0 0 0 .336.762.762 0 0 0 0 .336.762.762 0 0 0 0 .336.762.762 0 0 0 0 .336.762.762 0 0 0 0 .336.762.762 0 0 0 0 .336.762.762 0 0 0 0 .336.762.762 0 0 0 0 .336.762.762 0 0 0 0 .336.762.762 0 0 0 0 .336.762.762 0 0 0 0 .336.762.762 0 0 0 0 .336.762.762 0 0 0 0 .336.762.762 0 0 0 0 .336.762.762 0 0 0 0 .336.762.762 0 0 0 0 .336.762.762 0 0 0 0 .336.762.762 0 0 0 0 .336.762.762 0 0 0 0 .336.758.758 0 0 0 0 .335.762.762 0 0 0 0 .336.762.762 0 0 0 0 .336.762.762 0 0 0 0 .336.762.762 0 0 0 0 .336.762.762 0 0 0 0 .336.762.762 0 0 0 0 .336.762.762 0 0 0 0 .336.762.762 0 0 0 0 .336.762.762 0 0 0 0 .336.762.762 0 0 0 0 .336.762.762 0 0 0 0 .336.762.762 0 0 0 0 .336.762.762 0 0 0 0 .336.762.762 0 0 0 0 .336.762.762 0 0 0 0 .336.762.762 0 0 0 0 .336.762.762 0 0 0 0 .336.762.762 0 0 0 0 .336.762.762 0 0 0 0 .336.762.762 0 0 0 0 .336.758.758 0 0 0 0 .335.762.762 0 0 0 0 .336.762.762 0 0 0 0 .336.762.762 0 0 0 0 .336.762.762 0 0 0 0 .336.762.762 0 0 0 0 .336.762.762 0 0 0 0 .336.762.762 0 0 0 0 .336.762.762 0 0 0 0 .336.762.762 0 0 0 0 .336.762.762 0 0 0 0 .336.762.762 0 0 0 0 .336.762.762 0 0 0 0 .336.762.762 0 0 0 0 .336.762.762 0 0 0 0 .336.762.762 0 0 0 0 .336.762.762 0 0 0 0 .336.762.762 0 0 0 0 .336.762.762 0 0 0 0 .336.758.758 0 0 0 0 .335.762.762 0 0 0 0 .336.762.762 0 0 0 0 .336.762.762 0 0 0 0 .336.762.762 0 0 0 0 .336.762.762 0 0 0 0 .336.762.762 0 0 0 0 .336.762.762 0 0 0 0 .336.762.762 0 0 0 0 .336.762.762 0 0 0 0 .336.762.762 0 0 0 0 .336.762.762 0 0 0 0 .336.762.762 0 0 0 0 .336.762.762 0 0 0 0 .336.762.762 0 0 0 0 .336.762.762 0 0 0 0 .336.762.762 0 0 0 0 .336.762.762 0 0 0 0 .336.762.762 0 0 0 0 .336.762.762 0 0 0 0 .336.75.75 0 0 0 .433.858l4.517 1.919a.746.746 0 0 0 .291.059.67.67 0 0 0 .179 0l5.024-1.261a.745.745 0 0 0 .388-.239l1.32-1.56a.747.747 0 0 0 .171-.374l.351-2.396 6.277-3.412 17.518-.224a.735.735 0 0 0 .313-.075l3.87-1.851a.74.74 0 0 0 .156-.097l2.05-1.695 12.137-.978 8.513 3.248.626.619a.897.897 0 0 0 0 .127v3.703a.755.755 0 0 0 0 .366.752.752 0 0 0 .254.747l1.61 1.276.112.075 3.086 1.665a.787.787 0 0 0 0 .194v3.098a.76.76 0 0 0 0 .329v.037a.756.756 0 0 0 0 .328v.053a.756.756 0 0 0 0 .328v.037a.76.76 0 0 0 0 .329v.052a.76.76 0 0 0 0 .329v.037a.756.756 0 0 0 0 .328v.053a.756.756 0 0 0 0 .328v.038a.756.756 0 0 0 0 .328v.052a.76.76 0 0 0 0 .329v.037a.746.746 0 0 0 0 .381l.664 2.165a.75.75 0 0 0 .671.53l4.077.224a.775.775 0 0 0 .269-.052l6.075-2.367 5.219.702h.097a.787.787 0 0 0 .194 0l6.977-1.904a.744.744 0 0 0 .5-.455c.004-.518.004-1.036 0-1.553a.732.732 0 0 0 0-.209l2.49.157a.744.744 0 0 0 .499-.195l3.414-3.068a.737.737 0 0 0 .209-.328l1.752-5.398a.676.676 0 0 0 0-.09l.746-3.986a.751.751 0 0 0 0-.306v-.067a.751.751 0 0 0 0-.306v-.068a.751.751 0 0 0 0-.306v-.067a.751.751 0 0 0 0-.306v-.067a.751.751 0 0 0 0-.306v-.068a.751.751 0 0 0 0-.306v-.067a.751.751 0 0 0 0-.306v-.067a.751.751 0 0 0 0-.306v-.067a.751.751 0 0 0 0-.306v-.068a.751.751 0 0 0 0-.306v-.067a.751.751 0 0 0 0-.306v-.067a.751.751 0 0 0 0-.306v-.068a.751.751 0 0 0 0-.306v-.067a.751.751 0 0 0 0-.306v-.067a.751.751 0 0 0 0-.306v-.067a.751.751 0 0 0 0-.306v-.068a.751.751 0 0 0 0-.306v-.067a.751.751 0 0 0 0-.306v-.067a.751.751 0 0 0 0-.306v-.067a.751.751 0 0 0 0-.306v-.068a.751.751 0 0 0 0-.306v-.067a.751.751 0 0 0 0-.306v-.067a.751.751 0 0 0 0-.306v-.068a.751.751 0 0 0 0-.306v-.067a.751.751 0 0 0 0-.306v-.067a.751.751 0 0 0 0-.306v-.067a.751.751 0 0 0 0-.306v-.068a.751.751 0 0 0 0-.306v-.067a.75.75 0 0 0 0-.291l3.235-4.367 4.905-2.24a.744.744 0 0 0 .433-.65l.104-2.463 6.657-.202a.747.747 0 0 0 .746-.657l.194-1.59a.787.787 0 0 0 0-.194v-.172a.787.787 0 0 0 0-.194v-.172a.787.787 0 0 0 0-.194v-.171a.795.795 0 0 0 0-.195v-.171a.787.787 0 0 0 0-.194v-.172a.787.787 0 0 0 0-.194v-.172a.787.787 0 0 0 0-.194v-.172a.787.787 0 0 0 0-.194v-.171a.795.795 0 0 0 0-.195v-.171a.787.787 0 0 0 0-.194v-.172a.787.787 0 0 0 0-.194v-.172a.787.787 0 0 0 0-.194v-.172a.787.787 0 0 0 0-.194v-.172a.787.787 0 0 0 0-.194v-.171a.787.787 0 0 0 0-.194v-.172a.787.787 0 0 0 0-.194v-.172a.787.787 0 0 0 0-.194v-.172a.787.787 0 0 0 0-.194v-.172a.787.787 0 0 0 0-.194v-.171a.795.795 0 0 0 0-.195v-.171a.787.787 0 0 0 0-.194v-.105l1.215-.896a.744.744 0 0 0 .276-.806v-.067a.751.751 0 0 0 0-.306v-.067a.756.756 0 0 0 0-.307v-.067a.751.751 0 0 0 0-.306v-.067a.751.751 0 0 0 0-.306v-.067a.751.751 0 0 0 0-.306v-.068a.751.751 0 0 0 0-.306v-.067a.751.751 0 0 0 0-.306v-.067a.751.751 0 0 0 0-.306v-.067a.751.751 0 0 0 0-.306v-.068a.751.751 0 0 0 0-.306v-.067a.751.751 0 0 0 0-.306v-.067a.751.751 0 0 0 0-.306v-.068a.751.751 0 0 0 0-.306v-.067a.751.751 0 0 0 0-.306v-.067a.751.751 0 0 0 0-.306v-.067a.751.751 0 0 0 0-.306v-.068a.751.751 0 0 0 0-.306v-.067a.751.751 0 0 0 0-.306v-.067a.751.751 0 0 0 0-.306v-.067a.756.756 0 0 0 0-.307v-.067a.751.751 0 0 0 0-.306v-.067a.751.751 0 0 0 0-.306v-.067a.751.751 0 0 0 0-.306v-.06l2.184-1.322 12.278.277a.75.75 0 0 0 .373-.097l5.106-2.942a.748.748 0 0 0 .366-.746v-.112a.773.773 0 0 0 0-.254v-.112a.773.773 0 0 0 0-.254v-.112a.773.773 0 0 0 0-.254v-.112a.773.773 0 0 0 0-.254v-.112a.767.767 0 0 0 0-.253v-.112a.773.773 0 0 0 0-.254v-.112a.773.773 0 0 0 0-.254v-.112a.773.773 0 0 0 0-.254v-.082l7.029-1.448a.755.755 0 0 0 .5-.374l2.005-3.65 2.349-2.315c.14-1.091.208-2.191.201-3.292a.755.755 0 0 0 0-.366.751.751 0 0 0 0-.365.755.755 0 0 0 0-.366.755.755 0 0 0 0-.366.755.755 0 0 0 0-.366.755.755 0 0 0 0-.366.755.755 0 0 0 0-.366.751.751 0 0 0 0-.365.755.755 0 0 0 0-.366.755.755 0 0 0 0-.366.755.755 0 0 0 0-.366.755.755 0 0 0 0-.366.751.751 0 0 0 0-.365.755.755 0 0 0 0-.366.755.755 0 0 0 0-.366.755.755 0 0 0 0-.366.755.755 0 0 0 0-.366.751.751 0 0 0 0-.365.755.755 0 0 0 0-.366.755.755 0 0 0 0-.366.755.755 0 0 0 0-.366.755.755 0 0 0 0-.366.755.755 0 0 0 0-.366.751.751 0 0 0 0-.365.755.755 0 0 0 0-.366.755.755 0 0 0 0-.366.755.755 0 0 0 0-.366.755.755 0 0 0 0-.366.751.751 0 0 0 0-.365.755.755 0 0 0 0-.366.755.755 0 0 0 0-.366.755.755 0 0 0 0-.366.755.755 0 0 0 0-.366.751.751 0 0 0 0-.365.755.755 0 0 0 0-.366.755.755 0 0 0 0-.366.755.755 0 0 0 0-.366.755.755 0 0 0 0-.366.755.755 0 0 0 0-.366.751.751 0 0 0 0-.365.755.755 0 0 0 0-.366.755.755 0 0 0 0-.366.755.755 0 0 0 0-.366.755.755 0 0 0 0-.366.751.751 0 0 0 0-.365.755.755 0 0 0 0-.366.755.755 0 0 0 0-.366.755.755 0 0 0 0-.366.755.755 0 0 0 0-.366.755.755 0 0 0 0-.366.751.751 0 0 0 0-.365.755.755 0 0 0 0-.366.755.755 0 0 0 0-.366.755.755 0 0 0 0-.366.755.755 0 0 0 0-.366.751.751 0 0 0 0-.365.755.755 0 0 0 0-.366.755.755 0 0 0 0-.366.755.755 0 0 0 0-.366.755.755 0 0 0 0-.366.751.751 0 0 0 0-.365.755.755 0 0 0 0-.366.755.755 0 0 0 0-.366.755.755 0 0 0 0-.366.755.755 0 0 0 0-.366.755.755 0 0 0 0-.366.751.751 0 0 0 0-.365.755.755 0 0 0 0-.366.755.755 0 0 0 0-.366.755.755 0 0 0 0-.366.755.755 0 0 0 0-.366.751.751 0 0 0 0-.365.755.755 0 0 0 0-.366.755.755 0 0 0 0-.366.755.755 0 0 0 0-.366.755.755 0 0 0 0-.366.751.751 0 0 0 0-.365.755.755 0 0 0 0-.366.755.755 0 0 0 0-.366.755.755 0 0 0 0-.366.755.755 0 0 0 0-.366.755.755 0 0 0 0-.366.751.751 0 0 0 0-.365.755.755 0 0 0 0-.366.755.755 0 0 0 0-.366.759.759 0 0 0 .045-.612Zm-45.132-104.809a2.513 2.513 0 0 1 0-.575 1.71 1.71 0 0 1 0-.515.765.765 0 0 0 .179 0l3.988-.067-4.167 1.157Z"/>
    </g>
    <path fill="#fff" d="m720.451 281.094 6.59 1.709 2.401 1.083 5.65-1.628 1.178 3.86-3.981 1.403 1.864 2.076-6.195 2.493-.156 5.308-4.503 2.33-5.651 7.532.321 1.62 2.877 2.121-5.255 3.934-1.491 6.316 4.517 1.918 5.025-1.261 1.319-1.561.403-2.762 6.769-3.68 17.705-.224 3.869-1.852 2.229-1.844 12.539-1.015 8.827 3.367 2.78 2.77-1.841 2.866 1.618 1.277 4.286 2.307-.812 3.725.663 2.165 4.033.224 6.255-2.434 5.39.725 6.977-1.904-1.535-2.389 4.756.298 3.414-3.068 1.752-5.397.761-3.987-2.684-7.16 6.157-8.301 5.085-2.315.126-3.158 7.351-.223.194-1.591-2.684-2.59 1.543-2.322-.216-2.075 2.863-2.113-2.9-3.74 1.528-4.614 4.093-2.471 12.479.276 5.107-2.941-.485-3.651 8.096-1.665 2.057-3.74 2.423-2.397-7.253-1.53-2.908-4.927.075-2.778 4.57-2.822-3.154-1.134-9.251 4.136-11.026 4.89 2.937 6.383-6.403.604-4.16-.567.037 4.897-3.243 4.196-2.229 5.106-10.302 2.098-4.682 1.732-7.924-.485-.589-4.449-6.904-1.538-7.536 1.874-3.28-.747-4.257 2.202-3.854-2.754-5.681 1.313-5.174-.373-4.376 1.389-4.592-1.381-6.389 2.381 2.028 4.629-4.257.358-4.45-2.687-2.833.186.41 3.628-11.935-.097-6.486-.216-.41 4.853ZM123.929 309.589l1.402-3.367 13.657-.014 2.751 4.233 4.301.963 2.751-2.569 11.742.904 4.644-4.114 8.141-2.448 1.013-1.576-2.489-1.329-4.28.396-1.058-2.165-3.541-2.456 5.121-3.121-4.137-2.075 3.086-1.127-2.81-1.24.999-2.351 6.306-4.39 12.882-2.621-1.423-1.896-6.687-2.986 1.751-2.493-.417-2.748-5.83-3.008 2.311-3.211-5.263-1.694-4.309 2.105-6.135-1.941 2.311-4.031-1.789-1.844-10.191 1.104-10.556-2.68-8.953 4.636-8.73-4.449-4.875-.971 1.088-2.583-4.428-2.165-5.584-.022-4.421-1.866-2.132-6.391-4.07-2.12-10.534-.605-4.1 4.845-9.244-1.209-1.334 5.823-27.501 11.781 1.446 4.636 7.075 3.255-1.491 11.213-13.866.747-8.462 5.046 3.623 1.882 16.528 3.202 2.602 6.137 22.968 1.277 14.865 5.77 19.427-.156-9.162 5.696 13.74 2.374 11.271.007ZM343.504 301.049l.634-3.278 8.171-.343 1.774-2.471-3.832-2.486-9.14-3.77-10.928-2.076-1.216-2.269-3.213-3.001-2.147-1.665-4.376-.665-.059-3.187-8.946.38-11.645-.455-6.791-5.435 2.132-2.12-6.046-3.8-7.514-2.516-.597 2.396-9.743-.134-15.148-.911-.969-3.859-8.946-2.121-1.953 1.307-2.826 2.03-1.207 3.644-4.168 1.687.783 6.413 1.521 6.189-.828 3.397-3.444 1.776 2.006 4.256-3.497 1.329 3.899.97 3.556 3.18 2.311 3.688 5.33 3.263 8.745 2.359 10.452 4.778.499 5.159 9.542 2.657 8.968 3.591 2.088 3.718 8.222 2.643 4.354 3.807 7.462 4.248 5.122 1.232 7.097 4.569 13.829 1.613 4.197-1.956 6.433 1.918.612-.769-6.061-3.494 2.915-1.358 3.22.455-2.795-2.837 4.435-1.903 5.666 1.306-.79-2.979 2.862-.896 2.647.829 2.639-1.538-.507-2.195 5.345-.261-1.208-3.053-3.272-5.883-15.745-8.071-2.005-4.942 2.094-2.09Z"/>
    <path fill="#fff" d="m207.155 219.577-4.629.097 5.852 3.091-.552 3.091 5.196 1.851 2.475 4.644 4.637 3.322-2.214 5.271 5.815 3.337 5.039.784 2.08 2.448 8.126 1.508 2.289 4.204 3.906 3.128 10.295 2.441.91 3.636 13.59.821 8.297.119.731-2.949 9.922 3.323 7.015 4.419-2.192 2.188 5.696 4.561 10.645.426 9.334-.396 2.408-2.755 6.553-3.27 3.936-3.77 5.658-.873-.052-3.785 7.924-1.628 3.899-2.546-.045-4.054 4.451-3.09 9.05 3.979 4.257 3.606 6.955 1.037 7.828-4.038 2.43-5.07 3.728-1.746-5.435-1.113-5.636-3.277 4.928-6.092-.343-4.606-5.643-.381-4.786-1.777-.947-3.516-7.805-3.703-5.979-1.202-6.337-2.531-7.634 2.24-4.659-6.174-6.799-2.046-.052-4.793-5.539-2.545-5.144.709-2.147-3.076-10.026-.993.126-3.464-5.852-3.143-11.793 1.538-5.763-2.979-.492-5.457-5.129-1.546-3.31 1.173-10.273-1.501-6.56-4.45-7.276-1.216-3.064 1.403 4.167 5.435-5.442 2.815 1.961 3.464 7.626 4.86-11.555-.851-8.237-4.032-8.581 2.105 1.29 4.256-14.231-2.374 2.065 5.48-5.226 4.023-9.326-1.866 6.731 5.726-1.2 3.18-4.063-.082 2.147 5.017ZM250.773 352.21l4.511-2.224 3.451.537 4.503-.582 6.463 1.411 6.456-3.651 11.704-.739 7.231 2.68 5.562-1.164 9.564-.284 1.782-3.755 5.159-.351 7.648 1.202 7.381-2.367.074-1.381-14.119-1.65-7.217-4.643-5.084-1.217-7.812-4.45-4.235-3.695-8.446-2.71-2.11-3.77-8.386-3.345-10.325-2.882-.515-5.293-9.699-4.427-8.878-2.389-5.823-3.561-2.37-3.77-3.146-2.822-6.128-1.523-4.309-2.523-6.881 2.829-2.564 2.755-.216 5.435-7.582 3.434-4.152 1.508.805 2.389 7.693 4.801 4.727 3.688-2.237 4.8-6.158 2.852.589 2.18 6.911 2.463-4.227 2.912 2.319 4.166-3.653 3.576 1.401 3.008 5.763-.074 7.559 2.799 8.618 2.494 2.385 2.613 2.796 1.62 4.525-2.337 3.556.873-.924 3.397 6.06 1.157Z"/>
    <path fill="#fff" d="m107.163 247.297 5.666.022 5.919 2.897-.954 2.269 3.578.717 7.671 3.912 8.588-4.442 11.13 2.822 11.041-1.194 2.833 2.941-2.095 3.658 3.601 1.142 4.301-2.105 7.88 2.523-2.438 3.39 5.465 2.822.499 3.307-1.454 2.061 6.054 2.702 2.192 2.942-13.896 2.829-5.86 4.076-.701 1.635 3.691 1.628-3.213 1.172 3.816 1.918-5.285 3.218 2.93 2.031.7 1.441 3.497-.322 4.025 2.143-1.341 2.061 1.908 2.18 1.588.156 1.133-2.493 4.838.709 1.521 2.105 5.561 3.076 7.82 1.165 5.86-2.524-3.772-2.351-1.074-3.151 4.883-1.769 7.023-3.188.208-5.263 2.856-3.083 8.386-3.435 5.196 3.046.559.142 3.422-1.299-1.968-4.165 3.698-1.912.73-3.016-1.506-6.107-.849-6.89 4.346-1.762 1.17-3.516 3.057-2.203 1.975-1.321-3.891-3.113-2.08-3.823-7.962-1.478-2.065-2.419-4.674-.724-6.911-3.957 2.237-5.345-4.332-3.098-2.378-4.442-5.583-1.994.581-3.225-8.014-4.233 6.478-.134-1.901-4.435-5.046-3.673-2.341 1.62-7.269-.545-.044 5.04-4.123 1.523-7.492-3.412-4.838 1.045-4.98-2.68-6.948 1.934 1.372 2.799-4.548 2.359-14.082.53-7.283 4.509-6.851-.851-7.254 3.994-11.048-1.343-7.507 4.606-4.257.149-1.148 5.458 4.488 2.344 2.102 6.316 3.183 1.351Z"/>
    <path fill="#fff" stroke="#2560F4" stroke-width="2" d="m115.956 326.685 9.637-5.802.707-.426-.283-.775-2.207-6.024-.146-.399-.389-.172-3.642-1.609H126.087l.256-.615 1.146-2.746 9.735-.013 2.275 3.501.223.342.398.089 6.598 1.471.516.115.386-.362 2.586-2.43 11.271.869.422.032.317-.28 4.816-4.252 6.341-1.916 1.626 1.84.259.295.391.038 4.115.411.712.071.297-.651.791-1.735 1.07.158 1.064 1.466.131.18.195.108 6.187 3.419.158.087.179.027 9.214 1.373.282.042.261-.113 5.976-2.577 2.56 1.592 3.574 2.786-1.465 3.157-6.085 2.81-.768.354.222.816.82 3.016.137.504.493.176 4.235 1.509-2.06 1.421-.748.516.443.794 1.991 3.574-3.085 3.027-.506.496.3.641.836 1.792-1.956.025-.174.002-.163.061-6.65 2.486-.22.083-.16.171-2.937 3.143-.809.866.989.652 5.341 3.522 3.972 3.712.137.129.175.069 5.218 2.083.25.1.266-.039 3.913-.575-3.639 1.522-.131.055-.111.09-4.447 3.59-7.28 3.436-.169.08-.129.136-3.229 3.402-4.917 1.33-1.216.329.596 1.11 2.755 5.125.606 3.622.085.505.459.227 7.892 3.896 2.335 1.824-5.22-.01h-.166l-.156.053-5.745 1.942-10.953-.916-.21-.018-.199.069-7.162 2.463-7.243-1.554-9.778-3.698-.161-.062-.173-.003-10.536-.208-5.42-6.101-.261-.293-.391-.038-10.865-1.041-5.472-1.866-3.18-6.56-.154-13.043-.002-.135-.037-.129-2.568-8.95 1.563-12.796.043-.348-.184-.299-3.241-5.246Z"/>
    <path fill="#fff" d="m561.059 258.794 10.057-.239 4.189 4.203 6.993-3.994 6.046.515.03-4.8 6.851-2.255 6.888-1.822 2.855-3.665-4.115-3.016-3.884-4.062 4.898-1 .626-5.293 4.95-1.232 1.551-10.743 1.856-6.196-15.275-6.51 4.846-11.34-9.043 1.261-6.031-.993 2.095-2.956 7.03-2.889.701-1.307-10.199.18-6.046 3.225-8.983 3.061-7.141-3.151-8.879 2.128-11.123 5.345.41.127 5.226 3.569-6.351 7.002-10.929-.821-6.247 2.934.082 3.703 5.315 4.42-6.978.694-.373 5.898-7-1.628-4.659 2.016-4.965 3.651 4.197 2.426 1.26 6.644-6.277 1.717-2.922 3.957-7.694 1.695-10.489 4.606.545 6.129 5.837 4.614-7.105.851.164 7.548-4.92-.157-1.752 4.046.604 4.308-5.666.306.008 2.777 10.541-.582 4.756 1.172 4.995 1.105 6.873-3.36 2.192.142.477-3.076 7.425-3.404 4.369-.582-.388-3.517 2.453-1.53 5.099 1.03 2.661-3.479.187-4.031 6.165-2.27 8.737 2.225 4.704-3.703 4.659-1.329 2.348 1.725.716-4.188 6.687-2.867 3.623 3.337-.343 1.695Z"/>
    <path fill="#fff" stroke="#D9DBE1" stroke-width="2" d="m713.227 135.16-.674-.051-.298.607-1.292 2.632-4.435-2.143-.362-.175-.383.124-2.311.754-1.369.447.896 1.127.896 1.126-2.784 1.27-4.648-.424-1.441-.131.386 1.394 1.529 5.518-2.205 1.588-4.784-2.773-.246-.143-.284.008-7.984.223-4.102-2.606-.343-.217-.396.082-6.867 1.422-5.637-3.348-.281-.166-.324.03-5.047.478-.684.065-.185.661-1.305 4.657-8.03 1.049-.168.022-.152.076-6.913 3.476-18.038-.633-.269-.009-.238.127-6.008 3.21-.003.001-4.794 2.584-.041.022-.039.026-3.504 2.337-.21.14-.119.223-2.152 4.056-3.002 3.428-.222.254-.023.336-.5 7.212-.024.354.204.29 2.408 3.427.219.311.371.087 4.793 1.123 2.742 3.049-6.056 2.943-7.57 1.901-.028.007-.026.008-2.326.724-.392.122-.193.362-.919 1.721-6.758 2.783-.266.109-.167.235-1.26 1.77-.93 1.306 1.582.26 3.943.65.15.025.151-.021 9.389-1.309-4.534 10.577-.395.921.921.393 14.371 6.13-1.756 5.847-.021.071-.011.073-1.565 10.795-.083.568.449.358 3.906 3.113.23.183.293.03 4.278.433 5.541 4.536-.443 3.146-.106.751.694.305 2.043.896.148.064.161.015 5.449.508.37.035.302-.215 2.773-1.969 7.338-1.907 3.64.889.942.23.259-.935 1.608-5.808 8.431.314.339.013.277-.196 6.97-4.942.015-.011.014-.01 5.574-4.256 7.341-1.794.358-.087.215-.299 2.632-3.645 3.844-4.796 5.942-2.196.108-.039.095-.063 7.336-4.831 1.065-.701-.935-.867-6.091-5.644-.335-.311-.454.05-4.22.464-2.771-2.695-.409-.398-.551.15-2.782.757-2.467-.809.078-2.951.028-1.072-1.072.047-4.178.183-3.731-3.506 2.315-.659.383-.109.204-.343 1.488-2.512 10.075-5.311.138-.072.11-.112 2.308-2.352 5.601-.533.597-.057.231-.553 2.181-5.223 7.933-.443.504-.028.277-.422 2.366-3.61 2.325 1.125.399.193.411-.166 3.165-1.276 2.507 2.095.228.19.296.035 5.585.659 1.395 2.352.277.467.542.022 1.796.075.514.021.316-.405 1.825-2.336 4.499-.102.784-.017.17-.766.361-1.635 4.416-2.293.77-.399-.287-.819-.598-1.706.623-3.405.21-1.144-1.163-.035-4.063-.123-3.942-3.726 4.026-2.432 2.451.701.372.107.346-.172 3.623-1.791 1.077-.533-.719-.962-1.998-2.673-.248-.332-.41-.059-2.08-.301.266-.64.289-.695-.588-.47-3.69-2.949-.321-.256-.408.043-5.697.602-7.466-5.36-1.023-3.592-.191-.672-.697-.051-2.102-.157Z"/>
    <path fill="#fff" d="m566.867 104.69-2.624 2.866 1.394 5.592-5.42 1.135-.798 6.607-.193.09 1.699 2.217 3.631.97-.388 4.622h2.714l4.159 1.881 6.367-2.277 3.548.873 3.929-3.247 5.711 4.098 7.648 1.038 2.445-1.456.187-2.381 4.771.843.686 1.807 5.308.202.67 2.717 4.749 1.381-6.008 3.001 3.995.986 2.602 3.494-.328 4.942-6.508 2.038-2.259-.202.269 1.927 2.795 3.113 4.585.955 6.143-3.284 18.331.649 6.985-3.509 8.089-1.052 1.498-5.331 6.769-.649 5.852 3.486 7.284-1.508 4.547 2.889 8.245-.224 4.704 2.725 1.894-1.366-1.946-6.98 6.262.574 2.773-1.261-1.558-1.971-8.528-6.137 5.136-.94.634-3.024 4.227-2.187 3.586-.023-.917-2.396.976-8.563-3.116-3.569-.641-5.905 8.417 1.344.544-2.837 3.638.216 2.683 2.001 5.517-1.598 3.265.881 3.936-2.911 1.663-4.091-3.116-2.733-4.704-3.516-7.097-1.24-9.207-1.642-8.111-3.419-1.558-5.054-5.42-2.598-1.513-3.964-6.985-3.061-2.55-4.196-2.78-2.568-13.687-1.71-4.936 1.89-13.97-1.77-5.248-4.823-5.069 2.837-7.396-3.501-5.054 3.367 3.466 3.157-2.206 4.316-9.937 4.479-1.327 7.428 3.6 3.24-3.198 2.471-14.492-2.224 1.387 3.919-4.168 1.62-13.478-2.979-8.968 5.062.32 9.795-3.205-.568-.298 3.173-5.323 1.531Z"/>
    <path fill="#fff" d="m518.611 125.115-7.656-3.143-1.931 5.786-9.609.948-2.102 6.346-7.873 2.128-7.805 4.031-6.359.194.045 2.113-5.166 2.912-.686 8.839-2.512 4.001-8.387 3.726-7.261.515-.559 2.299-.157 4.248-4.339.799 3.273 5.047 11.995-.344 6.009 2.807 12.255.284 5.435 5.136 8.744-1.314 5.047 2.337 14.597.052 10.742 10.594 16.953 5.323 11.778-5.667 9.871-2.359 7.037 3.099 8.029-2.725 6.314-3.375 11.66-.201 2.497-.769 7.537-1.904 6.269-3.039-2.974-3.307-5.181-1.209-2.811-4.002.515-7.615 3.168-3.628 2.266-4.27 3.757-2.501 3.884-2.098-4.308-.888-3.266-3.644-.454-3.225 3.578.314 5.375-1.68.283-4.203-2.169-2.912-5.897-1.455 6.143-3.061-3.265-.956-.612-2.434-5.203-.201-.746-1.964-2.057-.358-.127 1.62-3.399 2.023-8.969-1.217-4.786-3.426-3.489 2.874-3.906-.971-6.612 2.367-4.563-2.068h-3.951l.41-4.994-3.138-.837-1.827-2.389-2.885 1.262-3.034 5.009-8.565 5.577-5.107-5.263-9.087-.052-3.638-3.024-7.038.082Z"/>
    <path fill="#fff" d="m472.779 276.457 3.019-.03 1.931-4.471 4.585.141-.172-7.346 6.091-.724-4.786-3.777-.612-6.824 11.257-4.935 7.321-1.62 2.9-3.927 5.859-1.597-1.095-5.741-4.786-2.762 5.889-4.323 5.479-2.374 5.852 1.359.336-5.383 5.874-.59-4.242-3.524-.112-4.397 7.269-3.412 10.563.792 5.413-5.965-4.332-2.949-19.002-5.958-10.504-10.347-14.224-.045-4.845-2.247-9.147 1.381-5.614-5.3-11.898-.276-5.934-2.77-11.637.328-2.177 1.8 3.675 3.926-.73 3.405 5.062 2.755 2.706 6.42-1.484 4.696-11.495 1.456-4.689 3.897 2.095 4.158 10.228 5.756-1.268 1.851 4.779.642 1.17 5.906.313 4.807 2.871 2.875-6.456 2.299-.94 2.367-5.315-1.12.306 2.807-5.86 2.598 3.936 4.442-7.38 1.038-2.43 1.381-5.166-.754-.47 4.628-2.445 1.367 2.452 4.3-5.196 2.792 1.991 1.06-1.379 4.912 2.989 1.359 1.715-1.829 4.048 3.091 2.87-.769 6.351 2.702 5.092 1.822 3.571-1.74 5.666 2.703 4.338-1.919 4.913 3.031 5.047 2.695ZM386.638 76.276l.075 4.427 5.606 3.606-4.197 7.308 2.169 4.144 5.554 3.322 4.495-.284 14.984 8.884-.492 6.264 9.99 2.807 2.117 7.018 3.802 1.761 13.262-.731 8.745 4.755-.045 3.427 7.671 2.277-.082 5.107 6.255.992 3.041 3.995 4.093-2.307-.045-2.569 7.246-.216 7.597-3.927 7.395-2.001 2.162-6.495 9.609-.948 2.169-6.51 9.155 3.763 7.388-.09 3.66 3.039 9.199.059 4.473 4.622 6.978-4.547 3.079-5.091 4.16-1.815.805-6.778 5.188-1.083-1.297-5.166 3.094-3.382 4.972-1.433.261-2.77-6.113-1.067-2.4-2.18-6.747 2.404-10.891-5.555-4.928-6.166-18.943-4.547-.626-3.06-4.145-.538-3.437 4.471-10.533-5.51-6.337 3.495-3.653 4.912-6.001 3.62-4.674-2.776-7.224 3.524-2.147 4.06-6.135-.328-2.438-4.994-10.086.403-.388-3.994-4.48-3.083-13.18-1.322-.888-5.285 6.285-4.905-3.161-2.792-25.451-1.927-9.445-6.21-23.282-1.546-2.162 9.317-7.656-2.509-2.885 1.21 7.366 8.346 12.494 1.098Z"/>
    <path fill="#fff" d="m350.892 177.598 7.015 1.396 8.677.292 3.84 3.411 9.847-5.778 14.306.612 3.005 3.255 9.855-.321 6.843-4.218 3.75-9.787 13.568-.5 2.453 4.068 10.966.038 3.981-.739.141-3.681.716-3.001 7.984-.568 7.738-3.441 2.296-3.643.671-8.757-3.108-4.077-6.792-1.075.082-5.27-7.678-2.277.037-3.629-7.514-4.083-13.181.731-4.972-2.299-2.08-6.868-10.258-2.882.515-6.518-13.702-8.122-4.503.291-6.598-3.942-2.49-4.755 4.019-7.018-5.346-3.442-.059-3.844-11.786-1.03-7.716-8.728-7.611 3.18-.545 10.131-6.284.978-1.349 4.517-12.226-.336-7.03 3.86 12.897 9.944-3.72 6.891-6.933 2.284-5.129.224-21.321 9.832 1.446 6.376-7.276-1.419-6.5 3.36 4.174 3.859.328 9.586 8.238 8.25-2.363 2.187 3.615 3.845 4.876 2.74 4.532.045 6.27 3.799 4.562-.201 5.748 4.763-5.114 3.688 15.051 2.068 7.142 5.748ZM801.053 183.324l-2.05-2.732-7.104.732-8.73.321-3.966-4.039 4.615-2.777-2.215-2.912 2.744-2.702-3.206-3.569-6.254 1.642-8.067.015-6.455 3.136-6.277-1.896-9.565-.613-7.268-2.262-.12.613.82 2.336-5.062 2.621-.544 2.486-5.3.127-2.17 2.754-3.66-.149-1.685-2.837-5.822-.694-2.497-2.083-3.452 1.389-2.438-1.18-2.475 3.77-8.416.471-2.408 5.755-6.217.59-2.356 2.397-10.206 5.375-1.7 2.874-3.071.881 3.951 3.718 5.323-.239-.104 4.136 2.05.672 3.563-.971 3.265 3.166 4.66-.508 7.216 6.682-8.215 5.405-6.009 2.225-3.847 4.792-2.408 3.338 5.293.724 4.749 3.314 5.412-.5-.656-3.613 6.665 1.082 5.673 4.002 8.32 1.538 2.586 2.366 6.851-1.597 7.709 1.896-.045 6.54 5.904-1.419 2.095 3.771 10.355-2.009 6.001-2.015 8.998 3.994.991-3.031-1.535-3.367 5.576 1.679 2.84-.895 1.484-10.96 1.178-10.205 8.938-5.719 2.87-1.486 4.891.71-.082-7.429 3.541-3.665 2.415-3.188 5.733-.418-1.491-4.054 1.349-2.702-3.973-2.71 2.497-2.89Z"/>
    <path fill="#fff" d="m749.346 242.429-11.741 2.27-2.065-3.703-6.434 1.545.052-7.189-6.366-1.56-7.373 1.717-2.922-2.673-8.23-1.515-5.651-3.987-4.287-.694.582 3.187-7.5.695-4.957-3.464-5.45-.739-7.261 1.769-5.524 4.225-7.44 5.279-8.662-.329-1.894 6.854-4.972-1.21-6.896 1.792-1.856 1.321 3.362-.201 6.083 3.688-2.952 1.881 2.408.485 2.758-.059 7.284 4.397.216 1.836-3.392 3.293 1.305 3.113 7.253-.919 4.331 1.643-2.102 1.5 3.146 2.091-3.794 2.829 3.235 2.143-5.218 3.792-4.839-1.082-3.459 1.784.545 2.158-4.384 2.919 1.909 1.986-5.614.433-.089 1.552 1.013 2.039-6.232 3.859 3.176.933 9.199-.373 4.391-3.008 1.856.559 7.761-3.053 1.036 6.249-9.147.634-7.336 3.278-9.273 4.613-4.458.433-3.266 3.621 8.201.672 2.639-4.099 6.918-1.254 4.495-3.255 4.905 1.889-4.279 4.905-4.152.97-.291 2.651 2.229.672 5.651-2.277 4.898-3.255 7.015.545 3.027-1.919 7.633 1.762 4.943-3.039 3.809-4.748 6.486-2.822 6.627-3.762-.529-2.934 4.108.694-.321-5.121 6.911 2.829 4.42-1.799 3.788-.463.872-3.621h.015l.387-4.688-.812-3.823 6.038.299.746-2.994 9.728.523-2.848-6.824 11.846 1.77-.76-2.897 6.538-.194 3.779.373-.514 2.225 5.531 1.247 2.207-1.979-2.505-3.128-4.428-2.008 2.617-2.874 4.048.515 1.625 2.284 2.08 1.486 3.846-.463-.022-2.292-2.945-2.71-4.629-1.829-2.691-3.747 4.107.059 1.335-4.076-8.827-3.912-5.36 1.799ZM814.002 109.199l-7.447 3.531-5.561-3.053-5.539 2.553-8.559-2.815-4.465 3.128-3.973-.246-.873-3.248-4.711-1.313-6.314 1.127-8.67-3.345-4.451-4.658-5.584-3.89-7.141-1.261-6.195 2.493-1.767 4.337-4.809 3.562-3.637-.978-5.942 1.709-3.019-2.239-1.67-.098-.567 2.979-8.073-1.291.477 4.449 3.176 3.636-1.007 8.69 1.282 3.352-4.853.037-3.414 1.762-.686 3.248-3.869.716 6.911 4.972 3.146-1.015 4.435 2.135 1.476-3.008 4.369.321 1.237 4.374 7.239 5.196 6.121-.649 4.681 3.748-.566 1.351 2.579.373 2.781 3.726-5.167 2.553-2.78-.799-3.996 2.411 4.108 3.89 5.255.157-.544 2.926 7.477 2.329 9.55.613 5.74 1.739 6.158-2.986 8.26-.015 7.119-1.874 4.227 4.696-2.788 2.732 2.311 3.046-4.525 2.733 2.945 3.001 7.864-.276 8.029-.829 2.773 3.695-2.363 2.733 2.796 1.911 2.907-5.831 2.386-2.456 3.884-.03-2.729-9.944 2.528-2.605 3.421.328 3.653-2.217-.238-2.292 10.168-5.45 4.816 1.426-2.49-4.457-5.74-2.008.887-4.905-5.837 1.583-1.163-5.338-8.521-6.951 3.332-5.181 4.249-2.956 2.274-4.98-6.329-7.734 6.076-3.89-3.78-2.575-2.751-.321Z"/>
    <path fill="#fff" d="m831.633 77.216-4.51 4.144-2.632-5.428-7.045-1.09-4.152-3.815-8.051 2.95-7.351-5.712.455-6.226 6.784-2.464 1.081-3.03-2.05-1.106-2.281 3.285-6.165-.239-4.578 2.165-5.919.47-2.676-3.792 5.874-5.54-2.542-3.919-.142-7.831-5.598-3.86-11.816-1.582-1.163-7.093-4.16 3.487-.76 6.457-5.845.038-5.218 2.926-8.118-3.95-5.942 1.315-2.818 4.404-13.672-2.762-.746 7.182-9.751.508-4.13 2.135-7.335-1.172-5.733 4.233-7.499 2.217-4.406-2.53-3.526 1.164 6.642 6.293-2.803 4.062 2.825 2.613 2.431 4.001 7.089 3.106 1.521 3.994 5.449 2.62 1.543 5.017 7.336 3.09 8.968 1.606 7.552 1.329 5.054 3.785 2.945 2.59 6.381-2.575 8.171 1.456 5.979 4.165 4.324 4.532 7.827 3.024 6.21-1.105 5.897 1.65.82 3.038 2.192.142 4.718-3.307 8.752 2.881 5.733-2.65 5.547 3.053 7.052-3.344 3.78.448 4.271 2.919 4.831-.09 2.236-4.666 1.886-1.679 5.696.694 3.302-4.323 6.784-2.351L848.317 96l-10.124-6.047-2.042-3.561-4.019-4.517 2.61-4.136-3.109-.523ZM277.693 387.104l-6.769-3.464-12.554-.074-.76 2.762-5.875.403-9.117-4.173-2.475 3.404-9.729.366-8.863-1.784-8.514.56-4.45 2.187-9.386-.015-6.061 2.046-11.145-.926-7.641 2.62-9.192-1.963-10.124.082-4.86 2.083-3.81-.664-1.655 1 5.964 3.919-.827 6.988 10.049 5.92 1.2 2.352-3.757 2.546 2.408 3.165 6.985 2.71 4.629-2.098 14.828 3.972 7.164-3.113 12.778 3.188 3.25-4.301 12.86 2.613 5.062-2.62-2.088-5.95 20.471.052.82-3.285 17.691-1.59 1.349-4.502 16.52-.171 1.424-6.951 8.692-3.098-3.444-2.598-3.109-1.68-7.939.082ZM367.002 320.489l-2.952 1.613 1.476 3.725-5.479.276.41 1.755-3.936 2.277-2.938-.918-1.23.388 1.029 3.859-7.283-1.679-2.766 1.187 3.787 3.859-5.725-.806-1.156.538 5.673 3.255-1.647 2.075-6.978-2.068-3.422 1.59-.119 1.994-8.64 2.769-7.999-1.254-3.795.261-1.804 3.8-10.414.306-5.316 1.113-.566 3.091 5.681 1.201 4.979 2.725.485 4.338-3.347-.03-2.893 2.628.283 6.107.179 6.189 1.245 6.114 6.374 3.77 5.077.418 4.592 5.525 4.786-2.471.067-9.497 17.765-9.182-.686-3.136 12.398-5.263-5.286-9.399 13.754-8.571-6.232-6.801 11.376-1.329-.089-3.143 8.506-1.754-.38-4.24 5.285-.941.403-3.845-6.576-1.926-5.956-.493Z"/>
    <path fill="#fff" d="m307.408 387.269-7.104-4.196-1.312-6.405-.187-6.227-.298-6.323 3.534-3.21 2.631.022-.358-3.195-4.316-2.359-6.501-1.374.679-3.71-6.665-2.464-10.489.665-6.814 3.852-7.015-1.531-4.398.575-2.989-.463-4.555 2.24-8.365-1.59.94-3.457-1.305-.321-4.957 2.561-4.197-2.434-2.252-2.463-8.193-2.375-7.156-2.635-9.848.12-5.942 2.224-2.355 2.516 4.838 3.188 3.929 3.673 4.189 1.68 6.091-.903 1.535 2.851-5.785 2.412-4.51 3.643-7.313 3.456-3.504 3.703-4.57 1.232 2.528 4.741.611 3.539 7.656 3.777 5.025 3.934 3.869-1.911 9.475-.619 8.908 1.799 8.35-.306 2.93-4.054 10.332 4.733 3.966-.269.783-2.859 14.604.09 6.746 3.464 7.977-.09 3.69 2.001 3.743 2.829 22.573 1.553-4.108-4.942-4.771-.388ZM639.089 287.387l.142-2.367 4.748-.366-1.386-1.44 4.607-3.061-.552-2.232 4.652-2.404 4.674 1.045 3.854-2.8-3.235-2.135 3.802-2.822-3.176-2.105 1.871-1.329-2.542-.963-8.006 1.008-1.782-4.211 3.467-3.359-.15-1.277-6.493-3.912-2.385.052-4.727-.948 3.512-2.239-4.652-2.822-4.51.261-6.307-.582-2.96-1.307.544-3.86-5.553-4.539-4.57-.463-4.078-3.247-4.011.993-.633 5.33-4.175.851 2.989 3.128 4.585 3.367-3.437 4.412-7.313 1.927-6.083 2.008-.037 5.263-6.956-.59-7.827 4.472-4.689-4.703-10.914.254.477-2.397-2.475-2.284-4.905 2.105-1.007 5.89-3.854-2.829-3.25.933-5.204 4.076-9.072-2.307-4.868 1.785-.179 3.762-3.31 4.323-5.457-1.105-1.394.874.417 3.859-5.218.695-6.702 3.075-.417 2.725 2.139.135-1.677 3.105 5.844 1.449 4.794-.247 5.293 3.92 6.955-.374 5.875 4.577 6.083-1.807 4.1-3.262 3.205.403-.492-2.404 10.638 1.06 3.43 3.867 4.376 3.083 6.597.926 4.615-1.605.529-2.12 5.942-.56.119 2.956 5.844-1.134 6.218.5 3.839 4.733-6.21 3.113-.566 1.613 2.437 1.075 9.446-.374 4.599 2.852 1.32 3.307 3.563-1.844 4.607-.238.88-6.07-2.661-2.598 4.92-.537 2.542 2.038 2.788 2.09 1.096-.888-.284-2.539 8.902-1.381.484-3.322-5.576-2.105 2.11-2.135 2.355.686 5.957-3.68-.865-1.732Z"/>
    <path fill="#fff" d="m601.762 306.305-9.303.373-3.541-1.568.812-2.359 5.793-2.897-3.079-3.8-5.107-.41-7.38 1.441-.127-3.128-3.272.313-.478 1.904-5.695 1.978-7.664-1.067-4.778-3.367-3.168-3.576-8.014-.792.499 2.449-4.227-.53-3.75 2.979-7.507 2.232-6.135-4.771-6.933.381-5.293-3.927-4.339.224-7.462-1.836 1.543-2.845-3.34-.216-7.067 3.449-5.211-1.15-2.766 3.084-5.419.843-2.535 2.561 4.249 3.135-6.933 4.039-3.981-.515-.328 2.956-5.993 2.442-7-.12-2.431 1.583 4.153 2.576-2.08 4.247 8.744 1.053-.164-4.427 8.275.351 5.584 3.21 6.426 1.613 3.399 4.688 3.005 4.696 10.041-1.448 13.665 2.769-1.275-4.001 6.173-.411 2.154 2.217 6.017 4.644 5.941.821 2.505 3.793 9.535-.948 4.719-2.815 8.938 1.956 5.382 4.539 3.728 1.015.939 2.18 10.579-.194 1.55 3.337-9.788 2.71-7.552-.433 1.238 5.361-9.334.903-2.9-1.389-1.2 8.519-5.636-1.62-5.084-3.263-3.787 3.322-.209 3.755 7.425 5.286 8.469-.59.574 4.621 5.822 2.546-5.986 5.174 5.733 4.143-3.467 4.062.634 4.24 6.053 1.448 3.452 3.166-8.514 3.359-2.296 2.419 5.822.53 6.128 2.001 10.825-2.098 8.834-3.038-6.643-5.234 5.331-.567 4.987 1.538 3.973-10.504 8.663-4.48 9.363-1.343 7.522 3.15-1.424-3.106-6.001-2.829-6.814.522-.283-2.209-5.464.298-5.904-3.822-4.153-4.509 6.523-.612 5.711 3.531 3.757.089-1.551-1.567-4.107-1.8 3.638-2.725-3.556-1.747 1.856-3.762 4.525.455-1.484-3.344 5.219.612-1.774-6.876.641-3.673-9.162-1.135-8.894 2.337-5.293-1.068-1.841-1.284-1.722-4.143 7.462-2.016 11.056 2.135 7.037 1.232-.664-5.3-5.3-2.822 2.825-3.927-6.441-4.323 4.831-3.8 2.102-5.024.94-.485-1.417-3.532-3.899-2.418Z"/>
    <path fill="#fff" d="m452.404 305.789 3.705-2.411 7.202.112 5.047-2.046.387-3.538 4.854.627 5.509-3.203-4.078-3.001 3.28-3.33 5.39-.836 2.43-2.71-3.66-.896-11.868.657-.008-4.479 5.562-.306-.448-3.158-3.489.037-5.568-2.964-3.959-2.441-4.19 1.852-5.62-2.673-3.437 1.672-6.143-2.195-5.613-2.389-3.191.859-3.347-2.546-1.432 1.523-5.233-2.374 1.387-4.957-5.547-2.964-15.968.112-.134-3.426-2.08-1.3-2.714-.156-1.424-2.255-5.524-.328.5-3.158-2.632.037-4.234 1.978-2.415 5.04-8.745 4.524-8.469-1.269-4.48-3.785-7.5-3.3-3.16 2.202.044 4.061-4.495 2.927-7.328 1.508.052 3.845-6.15.948-3.742 3.583-6.516 3.255-2.4 2.74.059 2.882 3.69.56 2.565 1.993 3.354 3.136 1.014 1.911 10.333 1.963 9.497 3.927 4.592 2.979-2.437 3.397-7.865.336-.537 2.769-1.968 1.964 1.767 4.375 15.677 8.048 3.005 5.412 2.818-1.545 7.037.582 7.06 2.075 7.164-.41 4.42-2.889 12.711.836 5.196-2.374 4.123 2.277 8.975-3.793 12.301 1.516 1.297-3.666 10.355-3.501 7.514 2.135.447.052 1.909-3.874-4.481-2.778Z"/>
    <path fill="#fff" d="m456.102 228.513-.32-4.994-1.036-5.226-5.517-.746 1.573-2.292-9.773-5.473-2.438-4.822 5.405-4.48 11.13-1.403 1.245-3.972-2.513-5.935-5.322-2.897.745-3.591-3.906-4.173 2.691-2.24-3.422-5.27H432.91l-2.422-4.017-11.108.411-3.608 9.407-7.47 4.613-11.6.381-3.086-3.367-12.562-.538-10.794 6.331-4.525-4.024-7.969-.276-7.865-1.568-7.075-5.681-15.26-2.098-6.926.232-11.428-4.196-5.576.097-10.884 5.174 1.066 3.971-5.524 2.016-4.533-2.023-2.601 1.493 2.981 7.951-3.056 1.082 5.218 1.583.507 5.629 4.399 2.285 11.808-1.538 7.239 3.874-.12 2.986 9.468.934 1.931 2.777 4.473-.612 6.955 3.202.052 4.666 6.397 1.919 4.137 5.495 6.866-2.016 7.015 2.807 6.061 1.224 8.58 4.077.925 3.449 3.727 1.388 6.747.456.41 5.651-4.63 5.726 4.54 2.651 6.262 1.276 4.69-.067-.522 3.3 4.92.283 1.431 2.24 2.281.134 2.945 1.844.112 2.83 14.969-.097 3.511 1.874 4.578-2.456-2.453-4.286 2.684-1.493.544-5.323 6.083.896 2.117-1.202 6.009-.851-3.66-4.121 6.21-2.755-.411-3.643 5.867 1.232.701-1.769 5.778-2.053-2.334-2.263Z"/>
  </g>
  <defs>
    <clipPath id="a">
      <path fill="#fff" d="M0 0h894v484H0z"/>
    </clipPath>
    <filter id="b" width="939.379" height="529.63" x="-22.678" y="-12.664" color-interpolation-filters="sRGB" filterUnits="userSpaceOnUse">
      <feFlood flood-opacity="0" result="BackgroundImageFix"/>
      <feColorMatrix in="SourceAlpha" result="hardAlpha" values="0 0 0 0 0 0 0 0 0 0 0 0 0 0 0 0 0 0 127 0"/>
      <feOffset dy="-1.067"/>
      <feGaussianBlur stdDeviation="3.502"/>
      <feColorMatrix values="0 0 0 0 0 0 0 0 0 0 0 0 0 0 0 0 0 0 0.01 0"/>
      <feBlend in2="BackgroundImageFix" result="effect1_dropShadow_726_77"/>
      <feColorMatrix in="SourceAlpha" result="hardAlpha" values="0 0 0 0 0 0 0 0 0 0 0 0 0 0 0 0 0 0 127 0"/>
      <feOffset dy="-1.572"/>
      <feGaussianBlur stdDeviation="6.725"/>
      <feColorMatrix values="0 0 0 0 0 0 0 0 0 0 0 0 0 0 0 0 0 0 0.01 0"/>
      <feBlend in2="effect1_dropShadow_726_77" result="effect2_dropShadow_726_77"/>
      <feColorMatrix in="SourceAlpha" result="hardAlpha" values="0 0 0 0 0 0 0 0 0 0 0 0 0 0 0 0 0 0 127 0"/>
      <feOffset dy="-1.198"/>
      <feGaussianBlur stdDeviation="9.978"/>
      <feColorMatrix values="0 0 0 0 0 0 0 0 0 0 0 0 0 0 0 0 0 0 0.01 0"/>
      <feBlend in2="effect2_dropShadow_726_77" result="effect3_dropShadow_726_77"/>
      <feColorMatrix in="SourceAlpha" result="hardAlpha" values="0 0 0 0 0 0 0 0 0 0 0 0 0 0 0 0 0 0 127 0"/>
      <feOffset dy=".76"/>
      <feGaussianBlur stdDeviation="13.941"/>
      <feColorMatrix values="0 0 0 0 0 0 0 0 0 0 0 0 0 0 0 0 0 0 0.0152884 0"/>
      <feBlend in2="effect3_dropShadow_726_77" result="effect4_dropShadow_726_77"/>
      <feColorMatrix in="SourceAlpha" result="hardAlpha" values="0 0 0 0 0 0 0 0 0 0 0 0 0 0 0 0 0 0 127 0"/>
      <feOffset dy="6.484"/>
      <feGaussianBlur stdDeviation="20.491"/>
      <feColorMatrix values="0 0 0 0 0 0 0 0 0 0 0 0 0 0 0 0 0 0 0.0278278 0"/>
      <feBlend in2="effect4_dropShadow_726_77" result="effect5_dropShadow_726_77"/>
      <feColorMatrix in="SourceAlpha" result="hardAlpha" values="0 0 0 0 0 0 0 0 0 0 0 0 0 0 0 0 0 0 127 0"/>
      <feOffset dy="10"/>
      <feGaussianBlur stdDeviation="25"/>
      <feColorMatrix values="0 0 0 0 0 0 0 0 0 0 0 0 0 0 0 0 0 0 0.05 0"/>
      <feBlend in2="effect5_dropShadow_726_77" result="effect6_dropShadow_726_77"/>
      <feBlend in="SourceGraphic" in2="effect6_dropShadow_726_77" result="shape"/>
    </filter>
  </defs>
</svg>
