<svg xmlns="http://www.w3.org/2000/svg" width="16" height="16" fill="none"><g clip-path="url(#a)"><path fill="#fff" fill-rule="evenodd" d="M2.267.98a1.636 1.636 0 0 1 2.448.152l1.681 2.162c.31.396.418.913.296 1.4L6.18 6.747a.636.636 0 0 0 .167.604L8.65 9.654a.636.636 0 0 0 .604.167l2.052-.513a1.636 1.636 0 0 1 1.401.296l2.162 1.681c.777.604.85 1.753.153 2.448l-.97.97c-.693.693-1.73.998-2.697.658a17.47 17.47 0 0 1-6.571-4.144A17.47 17.47 0 0 1 .64 4.647c-.34-.968-.035-2.005.658-2.699l.97-.969V.98Z" clip-rule="evenodd"/></g><defs><clipPath id="a"><path fill="#fff" d="M0 0h16v16H0z"/></clipPath></defs></svg>