<svg xmlns="http://www.w3.org/2000/svg" id="youtube" fill="none">
  <path fill="#2360E2" d="M34.27 4.686a5.74 5.74 0 0 0-1.133-2.4c-.543-.664-1.22-1.143-1.961-1.388C28.446 0 17.5 0 17.5 0S6.555 0 3.824.893c-.742.244-1.418.723-1.961 1.388A5.732 5.732 0 0 0 .73 4.68C0 8.026 0 15 0 15s0 6.974.73 10.314c.403 1.844 1.59 3.296 3.094 3.788C6.554 30 17.5 30 17.5 30s10.945 0 13.676-.898c1.508-.492 2.691-1.944 3.094-3.788C35 21.974 35 15 35 15s0-6.975-.73-10.314ZM14.023 21.401V8.6l9.063 6.353-9.063 6.45Z"/>
</svg>
