<svg xmlns="http://www.w3.org/2000/svg" id="zoom" width="43" height="43" fill="none">
  <path fill="#21145F" fill-rule="evenodd" d="M26.792 5.692a.907.907 0 0 1 .915-.872l9.385.13.13 9.385a.907.907 0 0 1-.872.915.862.862 0 0 1-.896-.853l-.09-6.482L24.2 19.08a.884.884 0 0 1-1.251.013.884.884 0 0 1 .013-1.25L34.126 6.677l-6.48-.09a.862.862 0 0 1-.854-.896ZM15.25 36.35a.907.907 0 0 1-.914.872l-9.386-.13-.13-9.386a.907.907 0 0 1 .872-.914.862.862 0 0 1 .897.853l.09 6.481 11.163-11.163a.885.885 0 0 1 1.25-.013.884.884 0 0 1-.013 1.25L7.916 35.364l6.481.09c.489.006.87.408.853.896Z" clip-rule="evenodd"/>
</svg>
